<svg version="1.1" viewBox="0.0 0.0 668.2782152230972 274.81627296587925" fill="none" stroke="none" stroke-linecap="square" stroke-miterlimit="10" xmlns:xlink="http://www.w3.org/1999/xlink" xmlns="http://www.w3.org/2000/svg"><clipPath id="p.0"><path d="m0 0l668.2782 0l0 274.81628l-668.2782 0l0 -274.81628z" clip-rule="nonzero"/></clipPath><g clip-path="url(#p.0)"><path fill="#000000" fill-opacity="0.0" d="m0 0l668.2782 0l0 274.81628l-668.2782 0z" fill-rule="evenodd"/><path fill="#000000" fill-opacity="0.0" d="m0 27.973753l661.8268 0l0 227.77953l-661.8268 0z" fill-rule="evenodd"/><path fill="#000000" d="m9.46875 54.623753l3.046875 0l0 -1.5625q0 -2.609375 0.546875 -3.890625q0.5625 -1.296875 2.0625 -2.109375q1.5 -0.8125 3.78125 -0.8125q2.34375 0 4.59375 0.703125l-0.75 3.828125q-1.3125 -0.3125 -2.515625 -0.3125q-1.1875 0 -1.71875 0.5625q-0.515625 0.546875 -0.515625 2.140625l0 1.453125l4.109375 0l0 4.328125l-4.109375 0l0 16.421871l-5.484375 0l0 -16.421871l-3.046875 0l0 -4.328125zm14.4609375 10.078121q0 -2.7343712 1.34375 -5.281246q1.34375 -2.5625 3.8125 -3.90625q2.46875 -1.359375 5.515625 -1.359375q4.71875 0 7.71875 3.0625q3.015625 3.0625 3.015625 7.718746q0 4.71875 -3.046875 7.8125q-3.03125 3.09375 -7.640625 3.09375q-2.859375 0 -5.453125 -1.28125q-2.578125 -1.296875 -3.921875 -3.78125q-1.34375 -2.5 -1.34375 -6.078125zm5.625 0.296875q0 3.09375 1.453125 4.734375q1.46875 1.640625 3.625 1.640625q2.140625 0 3.59375 -1.640625q1.453125 -1.640625 1.453125 -4.765625q0 -3.0468712 -1.453125 -4.687496q-1.453125 -1.640625 -3.59375 -1.640625q-2.15625 0 -3.625 1.640625q-1.453125 1.640625 -1.453125 4.718746zm25.324219 10.375l-5.484375 0l0 -20.749996l5.09375 0l0 2.953125q1.3125 -2.09375 2.359375 -2.75q1.046875 -0.671875 2.375 -0.671875q1.875 0 3.609375 1.046875l-1.703125 4.78125q-1.390625 -0.90625 -2.578125 -0.90625q-1.15625 0 -1.953125 0.640625q-0.796875 0.640625 -1.265625 2.296875q-0.453125 1.65625 -0.453125 6.953121l0 6.40625z" fill-rule="nonzero"/><path fill="#000000" d="m82.79297 83.79562q-2.90625 -3.671875 -4.921875 -8.59375q-2.015625 -4.921875 -2.015625 -10.203125q0 -4.640621 1.5 -8.906246q1.765625 -4.9375 5.4375 -9.84375l2.515625 0q-2.359375 4.0625 -3.125 5.796875q-1.1875 2.703125 -1.875 5.625q-0.84375 3.65625 -0.84375 7.343746q0 9.40625 5.84375 18.78125l-2.515625 0z" fill-rule="nonzero"/><path fill="#000000" d="m93.09766 50.748753l0.84375 -4.015625l3.515625 0l-0.84375 4.015625l-3.515625 0zm-5.15625 24.624996l4.34375 -20.749996l3.53125 0l-4.328125 20.749996l-3.546875 0zm9.027344 0l4.34375 -20.749996l3.203125 0l-0.765625 3.625q2.09375 -2.140625 3.90625 -3.109375q1.8125 -0.984375 3.703125 -0.984375q2.53125 0 3.953125 1.375q1.4375 1.359375 1.4375 3.65625q0 1.140625 -0.5 3.625l-2.640625 12.562496l-3.53125 0l2.75 -13.140621q0.40625 -1.921875 0.40625 -2.84375q0 -1.03125 -0.71875 -1.671875q-0.703125 -0.640625 -2.046875 -0.640625q-2.71875 0 -4.84375 1.953125q-2.109375 1.953125 -3.109375 6.687496l-2.015625 9.65625l-3.53125 0zm27.261719 -24.624996l0.84375 -4.015625l3.515625 0l-0.84375 4.015625l-3.515625 0zm-5.15625 24.624996l4.34375 -20.749996l3.53125 0l-4.328125 20.749996l-3.546875 0zm23.339844 -7.5625l3.546875 0.375q-1.328125 3.890625 -3.78125 5.78125q-2.453125 1.875 -5.578125 1.875q-3.375 0 -5.484375 -2.1875q-2.09375 -2.1875 -2.09375 -6.109375q0 -3.40625 1.34375 -6.687496q1.34375 -3.28125 3.859375 -4.984375q2.515625 -1.71875 5.734375 -1.71875q3.34375 0 5.296875 1.890625q1.953125 1.890625 1.953125 4.984375l-3.484375 0.234375q-0.015625 -1.96875 -1.140625 -3.078125q-1.125 -1.109375 -2.953125 -1.109375q-2.140625 0 -3.703125 1.34375q-1.5625 1.34375 -2.453125 4.09375q-0.875 2.7343712 -0.875 5.281246q0 2.65625 1.171875 3.984375q1.171875 1.328125 2.890625 1.328125q1.71875 0 3.28125 -1.3125q1.578125 -1.3125 2.46875 -3.984375zm10.703125 -17.062496l0.84375 -4.015625l3.515625 0l-0.84375 4.015625l-3.515625 0zm-5.15625 24.624996l4.34375 -20.749996l3.53125 0l-4.328125 20.749996l-3.546875 0zm23.011719 -2.578125q-1.828125 1.578125 -3.53125 2.3125q-1.703125 0.734375 -3.640625 0.734375q-2.859375 0 -4.625 -1.6875q-1.75 -1.6875 -1.75 -4.328125q0 -1.734375 0.78125 -3.078125q0.796875 -1.34375 2.09375 -2.140625q1.3125 -0.8124962 3.21875 -1.1718712q1.1875 -0.234375 4.515625 -0.359375q3.328125 -0.140625 4.78125 -0.71875q0.40625 -1.4375 0.40625 -2.390625q0 -1.234375 -0.90625 -1.9375q-1.21875 -0.984375 -3.59375 -0.984375q-2.21875 0 -3.640625 1.0q-1.40625 0.984375 -2.0625 2.796875l-3.5625 -0.3125q1.09375 -3.09375 3.453125 -4.734375q2.375 -1.640625 6.0 -1.640625q3.84375 0 6.09375 1.84375q1.71875 1.359375 1.71875 3.546875q0 1.671875 -0.5 3.859375l-1.140625 5.156246q-0.546875 2.453125 -0.546875 4.0q0 0.96875 0.421875 2.8125l-3.578125 0q-0.28125 -1.015625 -0.40625 -2.578125zm1.3125 -7.9375q-0.75 0.296875 -1.59375 0.453125q-0.84375 0.15625 -2.84375 0.328125q-3.078125 0.28125 -4.359375 0.703125q-1.265625 0.421875 -1.90625 1.34375q-0.640625 0.90625 -0.640625 2.015625q0 1.484375 1.015625 2.453125q1.03125 0.953125 2.921875 0.953125q1.765625 0 3.375 -0.921875q1.625 -0.9375 2.5625 -2.59375q0.9375 -1.65625 1.46875 -4.734375zm6.6835938 10.515625l5.96875 -28.640621l3.53125 0l-5.96875 28.640621l-3.53125 0zm14.167969 -24.624996l0.84375 -4.015625l3.515625 0l-0.84375 4.015625l-3.515625 0zm-5.15625 24.624996l4.34375 -20.749996l3.53125 0l-4.328125 20.749996l-3.546875 0zm8.480469 0l0.5625 -2.734375l11.15625 -12.562496q1.1875 -1.328125 2.65625 -2.75q-2.515625 0.25 -3.609375 0.25l-7.71875 0l0.625 -2.953125l16.03125 0l-0.46875 2.234375l-11.25 12.640621q-0.953125 1.0625 -2.84375 2.9375q2.953125 -0.171875 4.046875 -0.171875l8.15625 0l-0.640625 3.109375l-16.703125 0zm34.53125 -2.578125q-1.828125 1.578125 -3.53125 2.3125q-1.703125 0.734375 -3.640625 0.734375q-2.859375 0 -4.625 -1.6875q-1.75 -1.6875 -1.75 -4.328125q0 -1.734375 0.78125 -3.078125q0.796875 -1.34375 2.09375 -2.140625q1.3125 -0.8124962 3.21875 -1.1718712q1.1875 -0.234375 4.515625 -0.359375q3.328125 -0.140625 4.78125 -0.71875q0.40625 -1.4375 0.40625 -2.390625q0 -1.234375 -0.90625 -1.9375q-1.21875 -0.984375 -3.59375 -0.984375q-2.21875 0 -3.640625 1.0q-1.40625 0.984375 -2.0625 2.796875l-3.5625 -0.3125q1.09375 -3.09375 3.453125 -4.734375q2.375 -1.640625 6.0 -1.640625q3.84375 0 6.09375 1.84375q1.71875 1.359375 1.71875 3.546875q0 1.671875 -0.5 3.859375l-1.140625 5.156246q-0.546875 2.453125 -0.546875 4.0q0 0.96875 0.421875 2.8125l-3.578125 0q-0.28125 -1.015625 -0.40625 -2.578125zm1.3125 -7.9375q-0.75 0.296875 -1.59375 0.453125q-0.84375 0.15625 -2.84375 0.328125q-3.078125 0.28125 -4.359375 0.703125q-1.265625 0.421875 -1.90625 1.34375q-0.640625 0.90625 -0.640625 2.015625q0 1.484375 1.015625 2.453125q1.03125 0.953125 2.921875 0.953125q1.765625 0 3.375 -0.921875q1.625 -0.9375 2.5625 -2.59375q0.9375 -1.65625 1.46875 -4.734375zm21.261719 2.953125l3.546875 0.375q-1.328125 3.890625 -3.78125 5.78125q-2.453125 1.875 -5.578125 1.875q-3.375 0 -5.484375 -2.1875q-2.09375 -2.1875 -2.09375 -6.109375q0 -3.40625 1.34375 -6.687496q1.34375 -3.28125 3.859375 -4.984375q2.515625 -1.71875 5.734375 -1.71875q3.34375 0 5.296875 1.890625q1.953125 1.890625 1.953125 4.984375l-3.484375 0.234375q-0.015625 -1.96875 -1.140625 -3.078125q-1.125 -1.109375 -2.953125 -1.109375q-2.140625 0 -3.703125 1.34375q-1.5625 1.34375 -2.453125 4.09375q-0.875 2.7343712 -0.875 5.281246q0 2.65625 1.171875 3.984375q1.171875 1.328125 2.890625 1.328125q1.71875 0 3.28125 -1.3125q1.578125 -1.3125 2.46875 -3.984375zm10.703125 -17.062496l0.84375 -4.015625l3.515625 0l-0.84375 4.015625l-3.515625 0zm-5.15625 24.624996l4.34375 -20.749996l3.53125 0l-4.328125 20.749996l-3.546875 0zm9.652344 -7.875q0 -6.078121 3.578125 -10.062496q2.953125 -3.28125 7.734375 -3.28125q3.75 0 6.046875 2.34375q2.296875 2.34375 2.296875 6.328125q0 3.5781212 -1.453125 6.656246q-1.4375 3.078125 -4.109375 4.71875q-2.671875 1.640625 -5.609375 1.640625q-2.421875 0 -4.40625 -1.03125q-1.984375 -1.046875 -3.03125 -2.9375q-1.046875 -1.890625 -1.046875 -4.375zm3.53125 -0.34375q0 2.921875 1.40625 4.4375q1.40625 1.515625 3.578125 1.515625q1.140625 0 2.25 -0.453125q1.109375 -0.46875 2.0625 -1.40625q0.96875 -0.9375 1.640625 -2.140625q0.671875 -1.203125 1.078125 -2.578125q0.609375 -1.9375 0.609375 -3.7187462q0 -2.8125 -1.421875 -4.359375q-1.40625 -1.5625 -3.5625 -1.5625q-1.65625 0 -3.03125 0.796875q-1.359375 0.796875 -2.46875 2.328125q-1.09375 1.515625 -1.625 3.53125q-0.515625 2.0156212 -0.515625 3.6093712zm5.28125 -15.046871l3.671875 -5.375l4.453125 0l-5.203125 5.375l-2.921875 0zm12.808594 23.265621l4.34375 -20.749996l3.203125 0l-0.765625 3.625q2.09375 -2.140625 3.90625 -3.109375q1.8125 -0.984375 3.703125 -0.984375q2.53125 0 3.953125 1.375q1.4375 1.359375 1.4375 3.65625q0 1.140625 -0.5 3.625l-2.640625 12.562496l-3.53125 0l2.75 -13.140621q0.40625 -1.921875 0.40625 -2.84375q0 -1.03125 -0.71875 -1.671875q-0.703125 -0.640625 -2.046875 -0.640625q-2.71875 0 -4.84375 1.953125q-2.109375 1.953125 -3.109375 6.687496l-2.015625 9.65625l-3.53125 0z" fill-rule="nonzero"/><path fill="#000000" d="m314.8672 58.639378l0 -4.015625l4.0 0l0 4.015625l-4.0 0zm0 16.734371l0 -4.0l4.0 0l0 4.0q0 2.203125 -0.78125 3.5625q-0.78125 1.359375 -2.484375 2.109375l-0.96875 -1.515625q1.109375 -0.484375 1.625 -1.4375q0.53125 -0.9375 0.59375 -2.71875l-1.984375 0z" fill-rule="nonzero"/><path fill="#000000" d="m349.17188 67.81125l3.546875 0.375q-1.328125 3.890625 -3.78125 5.78125q-2.453125 1.875 -5.578125 1.875q-3.375 0 -5.484375 -2.1875q-2.09375 -2.1875 -2.09375 -6.109375q0 -3.40625 1.34375 -6.687496q1.34375 -3.28125 3.859375 -4.984375q2.515625 -1.71875 5.734375 -1.71875q3.34375 0 5.296875 1.890625q1.953125 1.890625 1.953125 4.984375l-3.484375 0.234375q-0.015625 -1.96875 -1.140625 -3.078125q-1.125 -1.109375 -2.953125 -1.109375q-2.140625 0 -3.703125 1.34375q-1.5625 1.34375 -2.453125 4.09375q-0.875 2.7343712 -0.875 5.281246q0 2.65625 1.171875 3.984375q1.171875 1.328125 2.890625 1.328125q1.71875 0 3.28125 -1.3125q1.578125 -1.3125 2.46875 -3.984375zm6.3125 -0.3125q0 -6.078121 3.578125 -10.062496q2.953125 -3.28125 7.734375 -3.28125q3.75 0 6.046875 2.34375q2.296875 2.34375 2.296875 6.328125q0 3.5781212 -1.453125 6.656246q-1.4375 3.078125 -4.109375 4.71875q-2.671875 1.640625 -5.609375 1.640625q-2.421875 0 -4.40625 -1.03125q-1.984375 -1.046875 -3.03125 -2.9375q-1.046875 -1.890625 -1.046875 -4.375zm3.53125 -0.34375q0 2.921875 1.40625 4.4375q1.40625 1.515625 3.578125 1.515625q1.140625 0 2.25 -0.453125q1.109375 -0.46875 2.0625 -1.40625q0.96875 -0.9375 1.640625 -2.140625q0.671875 -1.203125 1.078125 -2.578125q0.609375 -1.9375 0.609375 -3.7187462q0 -2.8125 -1.421875 -4.359375q-1.40625 -1.5625 -3.5625 -1.5625q-1.65625 0 -3.03125 0.796875q-1.359375 0.796875 -2.46875 2.328125q-1.09375 1.515625 -1.625 3.53125q-0.515625 2.0156212 -0.515625 3.6093712zm18.089844 8.21875l4.34375 -20.749996l3.203125 0l-0.765625 3.625q2.09375 -2.140625 3.90625 -3.109375q1.8125 -0.984375 3.703125 -0.984375q2.53125 0 3.953125 1.375q1.4375 1.359375 1.4375 3.65625q0 1.140625 -0.5 3.625l-2.640625 12.562496l-3.53125 0l2.75 -13.140621q0.40625 -1.921875 0.40625 -2.84375q0 -1.03125 -0.71875 -1.671875q-0.703125 -0.640625 -2.046875 -0.640625q-2.71875 0 -4.84375 1.953125q-2.109375 1.953125 -3.109375 6.687496l-2.015625 9.65625l-3.53125 0zm36.23047 -3.015625q-3.03125 3.484375 -6.328125 3.484375q-2.953125 0 -4.921875 -2.171875q-1.953125 -2.1875 -1.953125 -6.328125q0 -3.7812462 1.546875 -6.921871q1.5625 -3.140625 3.890625 -4.703125q2.34375 -1.5625 4.6875 -1.5625q3.859375 0 5.828125 3.734375l2.34375 -11.15625l3.515625 0l-5.96875 28.640621l-3.265625 0l0.625 -3.015625zm-9.6875 -5.671875q0 2.15625 0.421875 3.40625q0.4375 1.25 1.46875 2.09375q1.046875 0.828125 2.484375 0.828125q2.40625 0 4.359375 -2.5q2.609375 -3.328125 2.609375 -8.203121q0 -2.46875 -1.296875 -3.84375q-1.28125 -1.390625 -3.234375 -1.390625q-1.265625 0 -2.3125 0.5625q-1.046875 0.5625 -2.078125 1.921875q-1.015625 1.359375 -1.71875 3.453125q-0.703125 2.0781212 -0.703125 3.6718712zm22.964844 -15.937496l0.84375 -4.015625l3.515625 0l-0.84375 4.015625l-3.515625 0zm-5.15625 24.624996l4.34375 -20.749996l3.53125 0l-4.328125 20.749996l-3.546875 0zm23.339844 -7.5625l3.546875 0.375q-1.328125 3.890625 -3.78125 5.78125q-2.453125 1.875 -5.578125 1.875q-3.375 0 -5.484375 -2.1875q-2.09375 -2.1875 -2.09375 -6.109375q0 -3.40625 1.34375 -6.687496q1.34375 -3.28125 3.859375 -4.984375q2.515625 -1.71875 5.734375 -1.71875q3.34375 0 5.296875 1.890625q1.953125 1.890625 1.953125 4.984375l-3.484375 0.234375q-0.015625 -1.96875 -1.140625 -3.078125q-1.125 -1.109375 -2.953125 -1.109375q-2.140625 0 -3.703125 1.34375q-1.5625 1.34375 -2.453125 4.09375q-0.875 2.7343712 -0.875 5.281246q0 2.65625 1.171875 3.984375q1.171875 1.328125 2.890625 1.328125q1.71875 0 3.28125 -1.3125q1.578125 -1.3125 2.46875 -3.984375zm10.703125 -17.062496l0.84375 -4.015625l3.515625 0l-0.84375 4.015625l-3.515625 0zm-5.15625 24.624996l4.34375 -20.749996l3.53125 0l-4.328125 20.749996l-3.546875 0zm9.652344 -7.875q0 -6.078121 3.578125 -10.062496q2.953125 -3.28125 7.734375 -3.28125q3.75 0 6.046875 2.34375q2.296875 2.34375 2.296875 6.328125q0 3.5781212 -1.453125 6.656246q-1.4375 3.078125 -4.109375 4.71875q-2.671875 1.640625 -5.609375 1.640625q-2.421875 0 -4.40625 -1.03125q-1.984375 -1.046875 -3.03125 -2.9375q-1.046875 -1.890625 -1.046875 -4.375zm3.53125 -0.34375q0 2.921875 1.40625 4.4375q1.40625 1.515625 3.578125 1.515625q1.140625 0 2.25 -0.453125q1.109375 -0.46875 2.0625 -1.40625q0.96875 -0.9375 1.640625 -2.140625q0.671875 -1.203125 1.078125 -2.578125q0.609375 -1.9375 0.609375 -3.7187462q0 -2.8125 -1.421875 -4.359375q-1.40625 -1.5625 -3.5625 -1.5625q-1.65625 0 -3.03125 0.796875q-1.359375 0.796875 -2.46875 2.328125q-1.09375 1.515625 -1.625 3.53125q-0.515625 2.0156212 -0.515625 3.6093712zm5.28125 -15.046871l3.671875 -5.375l4.453125 0l-5.203125 5.375l-2.921875 0zm12.808594 23.265621l4.34375 -20.749996l3.203125 0l-0.765625 3.625q2.09375 -2.140625 3.90625 -3.109375q1.8125 -0.984375 3.703125 -0.984375q2.53125 0 3.953125 1.375q1.4375 1.359375 1.4375 3.65625q0 1.140625 -0.5 3.625l-2.640625 12.562496l-3.53125 0l2.75 -13.140621q0.40625 -1.921875 0.40625 -2.84375q0 -1.03125 -0.71875 -1.671875q-0.703125 -0.640625 -2.046875 -0.640625q-2.71875 0 -4.84375 1.953125q-2.109375 1.953125 -3.109375 6.687496l-2.015625 9.65625l-3.53125 0z" fill-rule="nonzero"/><path fill="#000000" d="m506.09766 58.639378l0 -4.015625l4.0 0l0 4.015625l-4.0 0zm0 16.734371l0 -4.0l4.0 0l0 4.0q0 2.203125 -0.78125 3.5625q-0.78125 1.359375 -2.484375 2.109375l-0.96875 -1.515625q1.109375 -0.484375 1.625 -1.4375q0.53125 -0.9375 0.59375 -2.71875l-1.984375 0z" fill-rule="nonzero"/><path fill="#000000" d="m524.35547 83.32687l6.0 -28.703121l3.25 0l-0.59375 2.890625q1.8125 -1.890625 3.25 -2.625q1.4375 -0.734375 3.03125 -0.734375q2.96875 0 4.921875 2.171875q1.953125 2.15625 1.953125 6.171875q0 3.2499962 -1.078125 5.921871q-1.0625 2.65625 -2.625 4.28125q-1.5625 1.609375 -3.171875 2.375q-1.59375 0.765625 -3.28125 0.765625q-3.734375 0 -5.78125 -3.796875l-2.34375 11.28125l-3.53125 0zm6.984375 -16.4375q0 2.328125 0.34375 3.234375q0.484375 1.265625 1.59375 2.046875q1.109375 0.78125 2.578125 0.78125q3.046875 0 4.921875 -3.421875q1.875 -3.4375 1.875 -7.015621q0 -2.625 -1.265625 -4.0625q-1.25 -1.4375 -3.125 -1.4375q-1.34375 0 -2.5 0.71875q-1.15625 0.703125 -2.140625 2.125q-0.984375 1.40625 -1.640625 3.46875q-0.640625 2.0468712 -0.640625 3.5624962zm30.980469 5.90625q-1.828125 1.578125 -3.53125 2.3125q-1.703125 0.734375 -3.640625 0.734375q-2.859375 0 -4.625 -1.6875q-1.75 -1.6875 -1.75 -4.328125q0 -1.734375 0.78125 -3.078125q0.796875 -1.34375 2.09375 -2.140625q1.3125 -0.8124962 3.21875 -1.1718712q1.1875 -0.234375 4.515625 -0.359375q3.328125 -0.140625 4.78125 -0.71875q0.40625 -1.4375 0.40625 -2.390625q0 -1.234375 -0.90625 -1.9375q-1.21875 -0.984375 -3.59375 -0.984375q-2.21875 0 -3.640625 1.0q-1.40625 0.984375 -2.0625 2.796875l-3.5625 -0.3125q1.09375 -3.09375 3.453125 -4.734375q2.375 -1.640625 6.0 -1.640625q3.84375 0 6.09375 1.84375q1.71875 1.359375 1.71875 3.546875q0 1.671875 -0.5 3.859375l-1.140625 5.156246q-0.546875 2.453125 -0.546875 4.0q0 0.96875 0.421875 2.8125l-3.578125 0q-0.28125 -1.015625 -0.40625 -2.578125zm1.3125 -7.9375q-0.75 0.296875 -1.59375 0.453125q-0.84375 0.15625 -2.84375 0.328125q-3.078125 0.28125 -4.359375 0.703125q-1.265625 0.421875 -1.90625 1.34375q-0.640625 0.90625 -0.640625 2.015625q0 1.484375 1.015625 2.453125q1.03125 0.953125 2.921875 0.953125q1.765625 0 3.375 -0.921875q1.625 -0.9375 2.5625 -2.59375q0.9375 -1.65625 1.46875 -4.734375zm7.2773438 3.421875l3.546875 -0.21875q0 1.53125 0.46875 2.609375q0.46875 1.0625 1.71875 1.75q1.265625 0.6875 2.9375 0.6875q2.34375 0 3.515625 -0.9375q1.171875 -0.9375 1.171875 -2.203125q0 -0.921875 -0.703125 -1.75q-0.71875 -0.8125 -3.53125 -2.015625q-2.796875 -1.203125 -3.578125 -1.6875q-1.296875 -0.7968712 -1.96875 -1.8749962q-0.65625 -1.09375 -0.65625 -2.5q0 -2.46875 1.953125 -4.21875q1.953125 -1.765625 5.46875 -1.765625q3.90625 0 5.9375 1.8125q2.046875 1.8125 2.125 4.75l-3.453125 0.234375q-0.078125 -1.875 -1.328125 -2.96875q-1.25 -1.09375 -3.546875 -1.09375q-1.828125 0 -2.84375 0.84375q-1.015625 0.84375 -1.015625 1.8125q0 0.984375 0.875 1.71875q0.59375 0.515625 3.03125 1.5625q4.0625 1.7656212 5.109375 2.7812462q1.6875 1.625 1.6875 3.9375q0 1.546875 -0.953125 3.03125q-0.9375 1.484375 -2.890625 2.375q-1.9375 0.890625 -4.578125 0.890625q-3.59375 0 -6.109375 -1.78125q-2.515625 -1.78125 -2.390625 -5.78125zm20.296875 -0.78125q0 -6.078121 3.578125 -10.062496q2.953125 -3.28125 7.734375 -3.28125q3.75 0 6.046875 2.34375q2.296875 2.34375 2.296875 6.328125q0 3.5781212 -1.453125 6.656246q-1.4375 3.078125 -4.109375 4.71875q-2.671875 1.640625 -5.609375 1.640625q-2.421875 0 -4.40625 -1.03125q-1.984375 -1.046875 -3.03125 -2.9375q-1.046875 -1.890625 -1.046875 -4.375zm3.53125 -0.34375q0 2.921875 1.40625 4.4375q1.40625 1.515625 3.578125 1.515625q1.140625 0 2.25 -0.453125q1.109375 -0.46875 2.0625 -1.40625q0.96875 -0.9375 1.640625 -2.140625q0.671875 -1.203125 1.078125 -2.578125q0.609375 -1.9375 0.609375 -3.7187462q0 -2.8125 -1.421875 -4.359375q-1.40625 -1.5625 -3.5625 -1.5625q-1.65625 0 -3.03125 0.796875q-1.359375 0.796875 -2.46875 2.328125q-1.09375 1.515625 -1.625 3.53125q-0.515625 2.0156212 -0.515625 3.6093712z" fill-rule="nonzero"/><path fill="#000000" d="m616.4375 83.79562l-2.515625 0q5.84375 -9.375 5.84375 -18.78125q0 -3.6718712 -0.84375 -7.281246q-0.65625 -2.921875 -1.859375 -5.625q-0.75 -1.75 -3.140625 -5.859375l2.515625 0q3.671875 4.90625 5.4375 9.84375q1.5 4.265625 1.5 8.906246q0 5.28125 -2.03125 10.203125q-2.015625 4.921875 -4.90625 8.59375zm20.605469 -20.374996q1.515625 -0.046875 2.453125 -0.8125q0.953125 -0.765625 1.265625 -2.109375q0.3125 -1.359375 0.328125 -4.609375q0.015625 -3.265625 0.125 -4.3125q0.171875 -1.640625 0.640625 -2.625q0.484375 -1.0 1.1875 -1.59375q0.703125 -0.59375 1.796875 -0.90625q0.75 -0.203125 2.421875 -0.203125l1.09375 0l0 3.0625l-0.609375 0q-2.03125 0 -2.703125 0.734375q-0.65625 0.734375 -0.65625 3.28125q0 5.109375 -0.203125 6.453125q-0.359375 2.09375 -1.21875 3.234375q-0.84375 1.1249962 -2.65625 1.9999962q2.15625 0.90625 3.109375 2.75q0.96875 1.84375 0.96875 6.046875q0 3.8125 0.078125 4.53125q0.15625 1.328125 0.796875 1.859375q0.640625 0.53125 2.484375 0.53125l0.609375 0l0 3.0625l-1.09375 0q-1.90625 0 -2.765625 -0.3125q-1.25 -0.453125 -2.078125 -1.46875q-0.8125 -1.0 -1.0625 -2.546875q-0.25 -1.53125 -0.265625 -5.046875q-0.015625 -3.515625 -0.328125 -4.859375q-0.3125 -1.359375 -1.265625 -2.140625q-0.9375 -0.78125 -2.453125 -0.8125l0 -3.1874962z" fill-rule="nonzero"/><path fill="#ff0000" d="m290.52338 102.89375l0 -8.40625l-1.453125 0l0 -1.265625l1.453125 0l0 -1.03125q0 -0.96875 0.171875 -1.453125q0.234375 -0.640625 0.828125 -1.03125q0.59375 -0.390625 1.671875 -0.390625q0.6875 0 1.53125 0.15625l-0.25 1.4375q-0.5 -0.09375 -0.953125 -0.09375q-0.75 0 -1.0625 0.328125q-0.3125 0.3125 -0.3125 1.1875l0 0.890625l1.890625 0l0 1.265625l-1.890625 0l0 8.40625l-1.625 0zm11.105164 -1.1875q-0.921875 0.765625 -1.765625 1.09375q-0.828125 0.3125 -1.796875 0.3125q-1.59375 0 -2.453125 -0.78125q-0.859375 -0.78125 -0.859375 -1.984375q0 -0.71875 0.328125 -1.296875q0.328125 -0.59375 0.84375 -0.9375q0.53125 -0.359375 1.1875 -0.546875q0.46875 -0.125 1.453125 -0.25q1.984375 -0.234375 2.921875 -0.5625q0.015625 -0.34375 0.015625 -0.421875q0 -1.0 -0.46875 -1.421875q-0.625 -0.546875 -1.875 -0.546875q-1.15625 0 -1.703125 0.40625q-0.546875 0.40625 -0.8125 1.421875l-1.609375 -0.21875q0.21875 -1.015625 0.71875 -1.640625q0.5 -0.640625 1.453125 -0.984375q0.953125 -0.34375 2.1875 -0.34375q1.25 0 2.015625 0.296875q0.78125 0.28125 1.140625 0.734375q0.375 0.4375 0.515625 1.109375q0.078125 0.421875 0.078125 1.515625l0 2.1875q0 2.28125 0.109375 2.890625q0.109375 0.59375 0.40625 1.15625l-1.703125 0q-0.265625 -0.515625 -0.328125 -1.1875zm-0.140625 -3.671875q-0.890625 0.375 -2.671875 0.625q-1.015625 0.140625 -1.4375 0.328125q-0.421875 0.1875 -0.65625 0.53125q-0.21875 0.34375 -0.21875 0.78125q0 0.65625 0.5 1.09375q0.5 0.4375 1.453125 0.4375q0.9375 0 1.671875 -0.40625q0.75 -0.421875 1.09375 -1.140625q0.265625 -0.5625 0.265625 -1.640625l0 -0.609375zm4.1569824 4.859375l0 -13.359375l1.640625 0l0 13.359375l-1.640625 0zm3.5354614 -2.890625l1.625 -0.25q0.125 0.96875 0.75 1.5q0.625 0.515625 1.75 0.515625q1.125 0 1.671875 -0.453125q0.546875 -0.46875 0.546875 -1.09375q0 -0.546875 -0.484375 -0.875q-0.328125 -0.21875 -1.671875 -0.546875q-1.8125 -0.46875 -2.515625 -0.796875q-0.6875 -0.328125 -1.046875 -0.90625q-0.359375 -0.59375 -0.359375 -1.3125q0 -0.640625 0.296875 -1.1875q0.296875 -0.5625 0.8125 -0.921875q0.375 -0.28125 1.03125 -0.46875q0.671875 -0.203125 1.421875 -0.203125q1.140625 0 2.0 0.328125q0.859375 0.328125 1.265625 0.890625q0.421875 0.5625 0.578125 1.5l-1.609375 0.21875q-0.109375 -0.75 -0.640625 -1.171875q-0.515625 -0.421875 -1.46875 -0.421875q-1.140625 0 -1.625 0.375q-0.46875 0.375 -0.46875 0.875q0 0.3125 0.1875 0.578125q0.203125 0.265625 0.640625 0.4375q0.234375 0.09375 1.4375 0.421875q1.75 0.453125 2.4375 0.75q0.6875 0.296875 1.078125 0.859375q0.390625 0.5625 0.390625 1.40625q0 0.828125 -0.484375 1.546875q-0.46875 0.71875 -1.375 1.125q-0.90625 0.390625 -2.046875 0.390625q-1.875 0 -2.875 -0.78125q-0.984375 -0.78125 -1.25 -2.328125zm16.609375 -0.21875l1.6875 0.203125q-0.40625 1.484375 -1.484375 2.3125q-1.078125 0.8125 -2.765625 0.8125q-2.125 0 -3.375 -1.296875q-1.234375 -1.3125 -1.234375 -3.671875q0 -2.453125 1.25 -3.796875q1.265625 -1.34375 3.265625 -1.34375q1.9375 0 3.15625 1.328125q1.234375 1.3125 1.234375 3.703125q0 0.15625 0 0.4375l-7.21875 0q0.09375 1.59375 0.90625 2.453125q0.8125 0.84375 2.015625 0.84375q0.90625 0 1.546875 -0.46875q0.640625 -0.484375 1.015625 -1.515625zm-5.390625 -2.65625l5.40625 0q-0.109375 -1.21875 -0.625 -1.828125q-0.78125 -0.953125 -2.03125 -0.953125q-1.125 0 -1.90625 0.765625q-0.765625 0.75 -0.84375 2.015625z" fill-rule="nonzero"/><path fill="#0000ff" d="m421.23474 101.425l0.234375 1.453125q-0.6875 0.140625 -1.234375 0.140625q-0.890625 0 -1.390625 -0.28125q-0.484375 -0.28125 -0.6875 -0.734375q-0.203125 -0.46875 -0.203125 -1.9375l0 -5.578125l-1.203125 0l0 -1.265625l1.203125 0l0 -2.390625l1.625 -0.984375l0 3.375l1.65625 0l0 1.265625l-1.65625 0l0 5.671875q0 0.6875 0.078125 0.890625q0.09375 0.203125 0.28125 0.328125q0.203125 0.109375 0.578125 0.109375q0.265625 0 0.71875 -0.0625zm1.5895386 1.46875l0 -9.671875l1.46875 0l0 1.46875q0.5625 -1.03125 1.03125 -1.359375q0.484375 -0.328125 1.0625 -0.328125q0.828125 0 1.6875 0.53125l-0.5625 1.515625q-0.609375 -0.359375 -1.203125 -0.359375q-0.546875 0 -0.96875 0.328125q-0.421875 0.328125 -0.609375 0.890625q-0.28125 0.875 -0.28125 1.921875l0 5.0625l-1.625 0zm12.5564575 0l0 -1.421875q-1.125 1.640625 -3.0625 1.640625q-0.859375 0 -1.609375 -0.328125q-0.734375 -0.328125 -1.09375 -0.828125q-0.359375 -0.5 -0.5 -1.21875q-0.109375 -0.46875 -0.109375 -1.53125l0 -5.984375l1.640625 0l0 5.359375q0 1.28125 0.109375 1.734375q0.15625 0.640625 0.65625 1.015625q0.5 0.375 1.234375 0.375q0.734375 0 1.375 -0.375q0.65625 -0.390625 0.921875 -1.03125q0.265625 -0.65625 0.265625 -1.890625l0 -5.1875l1.640625 0l0 9.671875l-1.46875 0zm10.672577 -3.109375l1.6875 0.203125q-0.40625 1.484375 -1.484375 2.3125q-1.078125 0.8125 -2.765625 0.8125q-2.125 0 -3.375 -1.296875q-1.234375 -1.3125 -1.234375 -3.671875q0 -2.453125 1.25 -3.796875q1.265625 -1.34375 3.265625 -1.34375q1.9375 0 3.15625 1.328125q1.234375 1.3125 1.234375 3.703125q0 0.15625 0 0.4375l-7.21875 0q0.09375 1.59375 0.90625 2.453125q0.8125 0.84375 2.015625 0.84375q0.90625 0 1.546875 -0.46875q0.640625 -0.484375 1.015625 -1.515625zm-5.390625 -2.65625l5.40625 0q-0.109375 -1.21875 -0.625 -1.828125q-0.78125 -0.953125 -2.03125 -0.953125q-1.125 0 -1.90625 0.765625q-0.765625 0.75 -0.84375 2.015625z" fill-rule="nonzero"/><path fill="#000000" d="m237.60938 120.74875l0.84375 -4.015625l3.515625 0l-0.84375 4.015625l-3.515625 0zm-5.15625 24.625l4.34375 -20.75l3.53125 0l-4.328125 20.75l-3.546875 0zm9.027344 0l4.34375 -20.75l3.203125 0l-0.765625 3.625q2.09375 -2.140625 3.90625 -3.109375q1.8125 -0.984375 3.703125 -0.984375q2.53125 0 3.953125 1.375q1.4375 1.359375 1.4375 3.65625q0 1.140625 -0.5 3.625l-2.640625 12.5625l-3.53125 0l2.75 -13.140625q0.40625 -1.921875 0.40625 -2.84375q0 -1.03125 -0.71875 -1.671875q-0.703125 -0.640625 -2.046875 -0.640625q-2.71875 0 -4.84375 1.953125q-2.109375 1.953125 -3.109375 6.6875l-2.015625 9.65625l-3.53125 0zm22.574219 -7.09375l3.546875 -0.21875q0 1.53125 0.46875 2.609375q0.46875 1.0625 1.71875 1.75q1.265625 0.6875 2.9375 0.6875q2.34375 0 3.515625 -0.9375q1.171875 -0.9375 1.171875 -2.203125q0 -0.921875 -0.703125 -1.75q-0.71875 -0.8125 -3.53125 -2.015625q-2.796875 -1.203125 -3.578125 -1.6875q-1.296875 -0.796875 -1.96875 -1.875q-0.65625 -1.09375 -0.65625 -2.5q0 -2.46875 1.953125 -4.21875q1.953125 -1.765625 5.46875 -1.765625q3.90625 0 5.9375 1.8125q2.046875 1.8125 2.125 4.75l-3.453125 0.234375q-0.078125 -1.875 -1.328125 -2.96875q-1.25 -1.09375 -3.546875 -1.09375q-1.828125 0 -2.84375 0.84375q-1.015625 0.84375 -1.015625 1.8125q0 0.984375 0.875 1.71875q0.59375 0.515625 3.03125 1.5625q4.0625 1.765625 5.109375 2.78125q1.6875 1.625 1.6875 3.9375q0 1.546875 -0.953125 3.03125q-0.9375 1.484375 -2.890625 2.375q-1.9375 0.890625 -4.578125 0.890625q-3.59375 0 -6.109375 -1.78125q-2.515625 -1.78125 -2.390625 -5.78125zm27.9375 4.21875l-0.59375 2.890625q-1.265625 0.34375 -2.453125 0.34375q-2.109375 0 -3.359375 -1.046875q-0.9375 -0.78125 -0.9375 -2.125q0 -0.6875 0.5 -3.140625l2.53125 -12.0625l-2.796875 0l0.5625 -2.734375l2.796875 0l1.078125 -5.09375l4.03125 -2.4375l-1.578125 7.53125l3.484375 0l-0.59375 2.734375l-3.453125 0l-2.40625 11.46875q-0.453125 2.1875 -0.453125 2.625q0 0.625 0.359375 0.953125q0.375 0.328125 1.1875 0.328125q1.171875 0 2.09375 -0.234375zm2.8476562 2.875l4.34375 -20.75l3.125 0l-0.890625 4.25q1.609375 -2.40625 3.140625 -3.5625q1.53125 -1.15625 3.140625 -1.15625q1.046875 0 2.59375 0.765625l-1.453125 3.28125q-0.90625 -0.65625 -2.0 -0.65625q-1.859375 0 -3.8125 2.078125q-1.953125 2.0625 -3.0625 7.421875l-1.765625 8.328125l-3.359375 0zm27.476562 -3.75q-3.71875 4.21875 -7.625 4.21875q-2.40625 0 -3.890625 -1.375q-1.46875 -1.375 -1.46875 -3.375q0 -1.3125 0.671875 -4.484375l2.5 -11.984375l3.53125 0l-2.78125 13.265625q-0.34375 1.65625 -0.34375 2.578125q0 1.171875 0.703125 1.828125q0.71875 0.65625 2.109375 0.65625q1.484375 0 2.890625 -0.71875q1.421875 -0.734375 2.4375 -1.953125q1.03125 -1.234375 1.6875 -2.921875q0.421875 -1.0625 0.984375 -3.765625l1.875 -8.96875l3.546875 0l-4.34375 20.75l-3.265625 0l0.78125 -3.75zm22.402344 -3.8125l3.546875 0.375q-1.328125 3.890625 -3.78125 5.78125q-2.453125 1.875 -5.578125 1.875q-3.375 0 -5.484375 -2.1875q-2.09375 -2.1875 -2.09375 -6.109375q0 -3.40625 1.34375 -6.6875q1.34375 -3.28125 3.859375 -4.984375q2.515625 -1.71875 5.734375 -1.71875q3.34375 0 5.296875 1.890625q1.953125 1.890625 1.953125 4.984375l-3.484375 0.234375q-0.015625 -1.96875 -1.140625 -3.078125q-1.125 -1.109375 -2.953125 -1.109375q-2.140625 0 -3.703125 1.34375q-1.5625 1.34375 -2.453125 4.09375q-0.875 2.734375 -0.875 5.28125q0 2.65625 1.171875 3.984375q1.171875 1.328125 2.890625 1.328125q1.71875 0 3.28125 -1.3125q1.578125 -1.3125 2.46875 -3.984375zm20.0 0l3.546875 0.375q-1.328125 3.890625 -3.78125 5.78125q-2.453125 1.875 -5.578125 1.875q-3.375 0 -5.484375 -2.1875q-2.09375 -2.1875 -2.09375 -6.109375q0 -3.40625 1.34375 -6.6875q1.34375 -3.28125 3.859375 -4.984375q2.515625 -1.71875 5.734375 -1.71875q3.34375 0 5.296875 1.890625q1.953125 1.890625 1.953125 4.984375l-3.484375 0.234375q-0.015625 -1.96875 -1.140625 -3.078125q-1.125 -1.109375 -2.953125 -1.109375q-2.140625 0 -3.703125 1.34375q-1.5625 1.34375 -2.453125 4.09375q-0.875 2.734375 -0.875 5.28125q0 2.65625 1.171875 3.984375q1.171875 1.328125 2.890625 1.328125q1.71875 0 3.28125 -1.3125q1.578125 -1.3125 2.46875 -3.984375zm10.703125 -17.0625l0.84375 -4.015625l3.515625 0l-0.84375 4.015625l-3.515625 0zm-5.15625 24.625l4.34375 -20.75l3.53125 0l-4.328125 20.75l-3.546875 0zm9.652344 -7.875q0 -6.078125 3.578125 -10.0625q2.953125 -3.28125 7.734375 -3.28125q3.75 0 6.046875 2.34375q2.296875 2.34375 2.296875 6.328125q0 3.578125 -1.453125 6.65625q-1.4375 3.078125 -4.109375 4.71875q-2.671875 1.640625 -5.609375 1.640625q-2.421875 0 -4.40625 -1.03125q-1.984375 -1.046875 -3.03125 -2.9375q-1.046875 -1.890625 -1.046875 -4.375zm3.53125 -0.34375q0 2.921875 1.40625 4.4375q1.40625 1.515625 3.578125 1.515625q1.140625 0 2.25 -0.453125q1.109375 -0.46875 2.0625 -1.40625q0.96875 -0.9375 1.640625 -2.140625q0.671875 -1.203125 1.078125 -2.578125q0.609375 -1.9375 0.609375 -3.71875q0 -2.8125 -1.421875 -4.359375q-1.40625 -1.5625 -3.5625 -1.5625q-1.65625 0 -3.03125 0.796875q-1.359375 0.796875 -2.46875 2.328125q-1.09375 1.515625 -1.625 3.53125q-0.515625 2.015625 -0.515625 3.609375zm18.089844 8.21875l4.34375 -20.75l3.203125 0l-0.765625 3.625q2.09375 -2.140625 3.90625 -3.109375q1.8125 -0.984375 3.703125 -0.984375q2.53125 0 3.953125 1.375q1.4375 1.359375 1.4375 3.65625q0 1.140625 -0.5 3.625l-2.640625 12.5625l-3.53125 0l2.75 -13.140625q0.40625 -1.921875 0.40625 -2.84375q0 -1.03125 -0.71875 -1.671875q-0.703125 -0.640625 -2.046875 -0.640625q-2.71875 0 -4.84375 1.953125q-2.109375 1.953125 -3.109375 6.6875l-2.015625 9.65625l-3.53125 0zm37.48047 -7.046875l3.4375 0.34375q-0.734375 2.5625 -3.40625 4.875q-2.671875 2.296875 -6.359375 2.296875q-2.296875 0 -4.234375 -1.0625q-1.921875 -1.0625 -2.921875 -3.09375q-1.0 -2.03125 -1.0 -4.640625q0 -3.390625 1.5625 -6.578125q1.578125 -3.203125 4.078125 -4.75q2.5 -1.5625 5.40625 -1.5625q3.71875 0 5.921875 2.3125q2.21875 2.296875 2.21875 6.28125q0 1.53125 -0.265625 3.125l-15.28125 0q-0.078125 0.609375 -0.078125 1.09375q0 2.921875 1.34375 4.453125q1.34375 1.53125 3.265625 1.53125q1.828125 0 3.578125 -1.1875q1.765625 -1.203125 2.734375 -3.4375zm-10.265625 -5.140625l11.640625 0q0.015625 -0.546875 0.015625 -0.78125q0 -2.65625 -1.328125 -4.0625q-1.328125 -1.421875 -3.421875 -1.421875q-2.265625 0 -4.140625 1.5625q-1.859375 1.5625 -2.765625 4.703125zm17.605469 5.09375l3.546875 -0.21875q0 1.53125 0.46875 2.609375q0.46875 1.0625 1.71875 1.75q1.265625 0.6875 2.9375 0.6875q2.34375 0 3.515625 -0.9375q1.171875 -0.9375 1.171875 -2.203125q0 -0.921875 -0.703125 -1.75q-0.71875 -0.8125 -3.53125 -2.015625q-2.796875 -1.203125 -3.578125 -1.6875q-1.296875 -0.796875 -1.96875 -1.875q-0.65625 -1.09375 -0.65625 -2.5q0 -2.46875 1.953125 -4.21875q1.953125 -1.765625 5.46875 -1.765625q3.90625 0 5.9375 1.8125q2.046875 1.8125 2.125 4.75l-3.453125 0.234375q-0.078125 -1.875 -1.328125 -2.96875q-1.25 -1.09375 -3.546875 -1.09375q-1.828125 0 -2.84375 0.84375q-1.015625 0.84375 -1.015625 1.8125q0 0.984375 0.875 1.71875q0.59375 0.515625 3.03125 1.5625q4.0625 1.765625 5.109375 2.78125q1.6875 1.625 1.6875 3.9375q0 1.546875 -0.953125 3.03125q-0.9375 1.484375 -2.890625 2.375q-1.9375 0.890625 -4.578125 0.890625q-3.59375 0 -6.109375 -1.78125q-2.515625 -1.78125 -2.390625 -5.78125z" fill-rule="nonzero"/><path fill="#000000" d="m21.234375 181.42062l0 3.1875q-1.515625 0.03125 -2.46875 0.8125q-0.9375 0.78125 -1.25 2.125q-0.3125 1.328125 -0.328125 4.59375q-0.015625 3.265625 -0.125 4.296875q-0.171875 1.671875 -0.65625 2.65625q-0.46875 0.984375 -1.171875 1.578125q-0.703125 0.59375 -1.796875 0.90625q-0.75 0.21875 -2.421875 0.21875l-1.09375 0l0 -3.0625l0.609375 0q2.03125 0 2.6875 -0.734375q0.671875 -0.734375 0.671875 -3.296875q0 -4.890625 0.171875 -6.1875q0.3125 -2.171875 1.25 -3.46875q0.9375 -1.296875 2.65625 -2.03125q-2.25 -1.0625 -3.171875 -2.828125q-0.90625 -1.78125 -0.90625 -5.96875q0 -3.8125 -0.109375 -4.5625q-0.125 -1.296875 -0.765625 -1.8125q-0.640625 -0.53125 -2.484375 -0.53125l-0.609375 0l0 -3.0625l1.09375 0q1.90625 0 2.765625 0.3125q1.25 0.4375 2.0625 1.453125q0.828125 1.015625 1.078125 2.5625q0.25 1.53125 0.265625 5.046875q0.015625 3.515625 0.328125 4.859375q0.3125 1.328125 1.25 2.109375q0.953125 0.78125 2.46875 0.828125z" fill-rule="nonzero"/><path fill="#000000" d="m15.34375 216.74875l0.84375 -4.015625l3.515625 0l-0.84375 4.015625l-3.515625 0zm-5.15625 24.625l4.34375 -20.75l3.53125 0l-4.328125 20.75l-3.546875 0zm9.027344 0l4.34375 -20.75l3.203125 0l-0.765625 3.625q2.09375 -2.140625 3.90625 -3.109375q1.8125 -0.984375 3.703125 -0.984375q2.53125 0 3.953125 1.375q1.4375 1.359375 1.4375 3.65625q0 1.140625 -0.5 3.625l-2.640625 12.5625l-3.53125 0l2.75 -13.140625q0.40625 -1.921875 0.40625 -2.84375q0 -1.03125 -0.71875 -1.671875q-0.703125 -0.640625 -2.046875 -0.640625q-2.71875 0 -4.84375 1.953125q-2.109375 1.953125 -3.109375 6.6875l-2.015625 9.65625l-3.53125 0zm22.574219 -7.09375l3.546875 -0.21875q0 1.53125 0.46875 2.609375q0.46875 1.0625 1.71875 1.75q1.265625 0.6875 2.9375 0.6875q2.34375 0 3.515625 -0.9375q1.171875 -0.9375 1.171875 -2.203125q0 -0.921875 -0.703125 -1.75q-0.71875 -0.8125 -3.53125 -2.015625q-2.796875 -1.203125 -3.578125 -1.6875q-1.296875 -0.796875 -1.96875 -1.875q-0.65625 -1.09375 -0.65625 -2.5q0 -2.46875 1.953125 -4.21875q1.953125 -1.765625 5.46875 -1.765625q3.90625 0 5.9375 1.8125q2.046875 1.8125 2.125 4.75l-3.453125 0.234375q-0.078125 -1.875 -1.328125 -2.96875q-1.25 -1.09375 -3.546875 -1.09375q-1.828125 0 -2.84375 0.84375q-1.015625 0.84375 -1.015625 1.8125q0 0.984375 0.875 1.71875q0.59375 0.515625 3.03125 1.5625q4.0625 1.765625 5.109375 2.78125q1.6875 1.625 1.6875 3.9375q0 1.546875 -0.953125 3.03125q-0.9375 1.484375 -2.890625 2.375q-1.9375 0.890625 -4.578125 0.890625q-3.59375 0 -6.109375 -1.78125q-2.515625 -1.78125 -2.390625 -5.78125zm27.9375 4.21875l-0.59375 2.890625q-1.265625 0.34375 -2.453125 0.34375q-2.109375 0 -3.359375 -1.046875q-0.9375 -0.78125 -0.9375 -2.125q0 -0.6875 0.5 -3.140625l2.53125 -12.0625l-2.796875 0l0.5625 -2.734375l2.796875 0l1.078125 -5.09375l4.03125 -2.4375l-1.578125 7.53125l3.484375 0l-0.59375 2.734375l-3.453125 0l-2.40625 11.46875q-0.453125 2.1875 -0.453125 2.625q0 0.625 0.359375 0.953125q0.375 0.328125 1.1875 0.328125q1.171875 0 2.09375 -0.234375zm2.8476562 2.875l4.34375 -20.75l3.125 0l-0.890625 4.25q1.609375 -2.40625 3.140625 -3.5625q1.53125 -1.15625 3.140625 -1.15625q1.046875 0 2.59375 0.765625l-1.453125 3.28125q-0.90625 -0.65625 -2.0 -0.65625q-1.859375 0 -3.8125 2.078125q-1.953125 2.0625 -3.0625 7.421875l-1.765625 8.328125l-3.359375 0zm27.476562 -3.75q-3.71875 4.21875 -7.625 4.21875q-2.40625 0 -3.890625 -1.375q-1.46875 -1.375 -1.46875 -3.375q0 -1.3125 0.671875 -4.484375l2.5 -11.984375l3.53125 0l-2.78125 13.265625q-0.34375 1.65625 -0.34375 2.578125q0 1.171875 0.703125 1.828125q0.71875 0.65625 2.109375 0.65625q1.484375 0 2.890625 -0.71875q1.421875 -0.734375 2.4375 -1.953125q1.03125 -1.234375 1.6875 -2.921875q0.421875 -1.0625 0.984375 -3.765625l1.875 -8.96875l3.546875 0l-4.34375 20.75l-3.265625 0l0.78125 -3.75zm22.402344 -3.8125l3.546875 0.375q-1.328125 3.890625 -3.78125 5.78125q-2.453125 1.875 -5.578125 1.875q-3.375 0 -5.484375 -2.1875q-2.09375 -2.1875 -2.09375 -6.109375q0 -3.40625 1.34375 -6.6875q1.34375 -3.28125 3.859375 -4.984375q2.515625 -1.71875 5.734375 -1.71875q3.34375 0 5.296875 1.890625q1.953125 1.890625 1.953125 4.984375l-3.484375 0.234375q-0.015625 -1.96875 -1.140625 -3.078125q-1.125 -1.109375 -2.953125 -1.109375q-2.140625 0 -3.703125 1.34375q-1.5625 1.34375 -2.453125 4.09375q-0.875 2.734375 -0.875 5.28125q0 2.65625 1.171875 3.984375q1.171875 1.328125 2.890625 1.328125q1.71875 0 3.28125 -1.3125q1.578125 -1.3125 2.46875 -3.984375zm20.0 0l3.546875 0.375q-1.328125 3.890625 -3.78125 5.78125q-2.453125 1.875 -5.578125 1.875q-3.375 0 -5.484375 -2.1875q-2.09375 -2.1875 -2.09375 -6.109375q0 -3.40625 1.34375 -6.6875q1.34375 -3.28125 3.859375 -4.984375q2.515625 -1.71875 5.734375 -1.71875q3.34375 0 5.296875 1.890625q1.953125 1.890625 1.953125 4.984375l-3.484375 0.234375q-0.015625 -1.96875 -1.140625 -3.078125q-1.125 -1.109375 -2.953125 -1.109375q-2.140625 0 -3.703125 1.34375q-1.5625 1.34375 -2.453125 4.09375q-0.875 2.734375 -0.875 5.28125q0 2.65625 1.171875 3.984375q1.171875 1.328125 2.890625 1.328125q1.71875 0 3.28125 -1.3125q1.578125 -1.3125 2.46875 -3.984375zm10.703125 -17.0625l0.84375 -4.015625l3.515625 0l-0.84375 4.015625l-3.515625 0zm-5.15625 24.625l4.34375 -20.75l3.53125 0l-4.328125 20.75l-3.546875 0zm9.652344 -7.875q0 -6.078125 3.578125 -10.0625q2.953125 -3.28125 7.734375 -3.28125q3.75 0 6.046875 2.34375q2.296875 2.34375 2.296875 6.328125q0 3.578125 -1.453125 6.65625q-1.4375 3.078125 -4.109375 4.71875q-2.671875 1.640625 -5.609375 1.640625q-2.421875 0 -4.40625 -1.03125q-1.984375 -1.046875 -3.03125 -2.9375q-1.046875 -1.890625 -1.046875 -4.375zm3.53125 -0.34375q0 2.921875 1.40625 4.4375q1.40625 1.515625 3.578125 1.515625q1.140625 0 2.25 -0.453125q1.109375 -0.46875 2.0625 -1.40625q0.96875 -0.9375 1.640625 -2.140625q0.671875 -1.203125 1.078125 -2.578125q0.609375 -1.9375 0.609375 -3.71875q0 -2.8125 -1.421875 -4.359375q-1.40625 -1.5625 -3.5625 -1.5625q-1.65625 0 -3.03125 0.796875q-1.359375 0.796875 -2.46875 2.328125q-1.09375 1.515625 -1.625 3.53125q-0.515625 2.015625 -0.515625 3.609375zm18.089844 8.21875l4.34375 -20.75l3.203125 0l-0.765625 3.625q2.09375 -2.140625 3.90625 -3.109375q1.8125 -0.984375 3.703125 -0.984375q2.53125 0 3.953125 1.375q1.4375 1.359375 1.4375 3.65625q0 1.140625 -0.5 3.625l-2.640625 12.5625l-3.53125 0l2.75 -13.140625q0.40625 -1.921875 0.40625 -2.84375q0 -1.03125 -0.71875 -1.671875q-0.703125 -0.640625 -2.046875 -0.640625q-2.71875 0 -4.84375 1.953125q-2.109375 1.953125 -3.109375 6.6875l-2.015625 9.65625l-3.53125 0zm37.48047 -7.046875l3.4375 0.34375q-0.734375 2.5625 -3.40625 4.875q-2.671875 2.296875 -6.359375 2.296875q-2.296875 0 -4.234375 -1.0625q-1.921875 -1.0625 -2.921875 -3.09375q-1.0 -2.03125 -1.0 -4.640625q0 -3.390625 1.5625 -6.578125q1.578125 -3.203125 4.078125 -4.75q2.5 -1.5625 5.40625 -1.5625q3.71875 0 5.921875 2.3125q2.21875 2.296875 2.21875 6.28125q0 1.53125 -0.265625 3.125l-15.28125 0q-0.078125 0.609375 -0.078125 1.09375q0 2.921875 1.34375 4.453125q1.34375 1.53125 3.265625 1.53125q1.828125 0 3.578125 -1.1875q1.765625 -1.203125 2.734375 -3.4375zm-10.265625 -5.140625l11.640625 0q0.015625 -0.546875 0.015625 -0.78125q0 -2.65625 -1.328125 -4.0625q-1.328125 -1.421875 -3.421875 -1.421875q-2.265625 0 -4.140625 1.5625q-1.859375 1.5625 -2.765625 4.703125zm17.605469 5.09375l3.546875 -0.21875q0 1.53125 0.46875 2.609375q0.46875 1.0625 1.71875 1.75q1.265625 0.6875 2.9375 0.6875q2.34375 0 3.515625 -0.9375q1.171875 -0.9375 1.171875 -2.203125q0 -0.921875 -0.703125 -1.75q-0.71875 -0.8125 -3.53125 -2.015625q-2.796875 -1.203125 -3.578125 -1.6875q-1.296875 -0.796875 -1.96875 -1.875q-0.65625 -1.09375 -0.65625 -2.5q0 -2.46875 1.953125 -4.21875q1.953125 -1.765625 5.46875 -1.765625q3.90625 0 5.9375 1.8125q2.046875 1.8125 2.125 4.75l-3.453125 0.234375q-0.078125 -1.875 -1.328125 -2.96875q-1.25 -1.09375 -3.546875 -1.09375q-1.828125 0 -2.84375 0.84375q-1.015625 0.84375 -1.015625 1.8125q0 0.984375 0.875 1.71875q0.59375 0.515625 3.03125 1.5625q4.0625 1.765625 5.109375 2.78125q1.6875 1.625 1.6875 3.9375q0 1.546875 -0.953125 3.03125q-0.9375 1.484375 -2.890625 2.375q-1.9375 0.890625 -4.578125 0.890625q-3.59375 0 -6.109375 -1.78125q-2.515625 -1.78125 -2.390625 -5.78125z" fill-rule="nonzero"/><path fill="#000000" fill-opacity="0.0" d="m179.87665 0l0.81889343 51.149605" fill-rule="evenodd"/><path stroke="#9900ff" stroke-width="2.0" stroke-linejoin="round" stroke-linecap="butt" d="m179.87665 0l0.62680054 39.151146" fill-rule="evenodd"/><path fill="#9900ff" stroke="#9900ff" stroke-width="2.0" stroke-linecap="butt" d="m177.20041 39.204025l3.4483185 9.022152l3.1577606 -9.127914z" fill-rule="evenodd"/><path fill="#000000" fill-opacity="0.0" d="m355.73227 80.125984l0 26.139107l-164.79526 1.1364822l-0.5695648 111.38058" fill-rule="evenodd"/><path stroke="#ff0000" stroke-width="2.0" stroke-linejoin="round" stroke-linecap="butt" d="m355.73227 80.125984l0 26.139107l-164.79526 1.1364822l-0.5081787 99.380745" fill-rule="evenodd"/><path fill="#ff0000" stroke="#ff0000" stroke-width="2.0" stroke-linecap="butt" d="m187.1254 206.76541l3.2570038 9.092972l3.3498383 -9.059189z" fill-rule="evenodd"/><path fill="#000000" fill-opacity="0.0" d="m241.51181 55.69029l0 -33.527557l159.6824 0.56692886l-0.56954956 33.527557" fill-rule="evenodd"/><path stroke="#9900ff" stroke-width="2.0" stroke-linejoin="round" stroke-linecap="butt" d="m241.51181 55.69029l0 -33.527557l159.6824 0.56692886l-0.36572266 21.529291" fill-rule="evenodd"/><path fill="#9900ff" stroke="#9900ff" stroke-width="2.0" stroke-linecap="butt" d="m397.5255 44.20284l3.1488342 9.130997l3.4571228 -9.018776z" fill-rule="evenodd"/><path fill="#000000" fill-opacity="0.0" d="m400.05774 79.55643l0.56692505 44.881897" fill-rule="evenodd"/><path stroke="#0000ff" stroke-width="2.0" stroke-linejoin="round" stroke-linecap="butt" d="m400.05774 79.55643l0.41534424 32.882843" fill-rule="evenodd"/><path fill="#0000ff" stroke="#0000ff" stroke-width="2.0" stroke-linecap="butt" d="m397.1699 112.481l3.4178467 9.033745l3.188568 -9.117195z" fill-rule="evenodd"/><path fill="#000000" fill-opacity="0.0" d="m399.4882 148.31758l0 34.094498l173.32285 -1.7034149l-0.5695801 -102.855644" fill-rule="evenodd"/><path stroke="#0000ff" stroke-width="2.0" stroke-linejoin="round" stroke-linecap="butt" d="m399.4882 148.31758l0 34.094498l173.32285 -1.7034149l-0.5031128 -90.85583" fill-rule="evenodd"/><path fill="#0000ff" stroke="#0000ff" stroke-width="2.0" stroke-linecap="butt" d="m575.6113 89.83454l-3.3536987 -9.057762l-3.2531128 9.094345z" fill-rule="evenodd"/><path fill="#000000" fill-opacity="0.0" d="m572.24146 55.120735l0 -31.254593l-121.03937 0l0.56695557 31.254593" fill-rule="evenodd"/><path stroke="#0000ff" stroke-width="2.0" stroke-linejoin="round" stroke-linecap="butt" d="m572.24146 55.120735l0 -31.254593l-121.03937 0l0.3493042 19.256565" fill-rule="evenodd"/><path fill="#0000ff" stroke="#0000ff" stroke-width="2.0" stroke-linecap="butt" d="m448.24847 43.18262l3.4675293 9.01479l3.1383057 -9.134613z" fill-rule="evenodd"/></g></svg>