<svg version="1.1" viewBox="0.0 0.0 496.43832020997377 124.93175853018373" fill="none" stroke="none" stroke-linecap="square" stroke-miterlimit="10" xmlns:xlink="http://www.w3.org/1999/xlink" xmlns="http://www.w3.org/2000/svg"><clipPath id="p.0"><path d="m0 0l496.43832 0l0 124.931755l-496.43832 0l0 -124.931755z" clip-rule="nonzero"/></clipPath><g clip-path="url(#p.0)"><path fill="#000000" fill-opacity="0.0" d="m0 0l496.43832 0l0 124.931755l-496.43832 0z" fill-rule="evenodd"/><path fill="#000000" fill-opacity="0.0" d="m14.706037 60.89501l0 0c0 -24.90065 20.185966 -45.086613 45.086617 -45.086613l88.72441 0l0 0c11.957718 0 23.425674 4.750183 31.881058 13.205563c8.455368 8.4553795 13.205551 19.923336 13.205551 31.88105l0 0l0 0c0 24.90065 -20.185959 45.086617 -45.08661 45.086617l-88.72441 0l0 0c-24.90065 0 -45.086617 -20.185966 -45.086617 -45.086617z" fill-rule="evenodd"/><path stroke="#000000" stroke-width="24.0" stroke-linejoin="round" stroke-linecap="butt" d="m14.706037 60.89501l0 0c0 -24.90065 20.185966 -45.086613 45.086617 -45.086613l88.72441 0l0 0c11.957718 0 23.425674 4.750183 31.881058 13.205563c8.455368 8.4553795 13.205551 19.923336 13.205551 31.88105l0 0l0 0c0 24.90065 -20.185959 45.086617 -45.08661 45.086617l-88.72441 0l0 0c-24.90065 0 -45.086617 -20.185966 -45.086617 -45.086617z" fill-rule="evenodd"/><path fill="#000000" fill-opacity="0.0" d="m155.64043 60.89501l0 0c0 -24.90065 20.185959 -45.086613 45.08661 -45.086613l88.72441 0l0 0c11.957703 0 23.42566 4.750183 31.881042 13.205563c8.455383 8.4553795 13.205566 19.923336 13.205566 31.88105l0 0l0 0c0 24.90065 -20.185974 45.086617 -45.08661 45.086617l-88.72441 0l0 0c-24.90065 0 -45.08661 -20.185966 -45.08661 -45.086617z" fill-rule="evenodd"/><path stroke="#000000" stroke-width="24.0" stroke-linejoin="round" stroke-linecap="butt" d="m155.64043 60.89501l0 0c0 -24.90065 20.185959 -45.086613 45.08661 -45.086613l88.72441 0l0 0c11.957703 0 23.42566 4.750183 31.881042 13.205563c8.455383 8.4553795 13.205566 19.923336 13.205566 31.88105l0 0l0 0c0 24.90065 -20.185974 45.086617 -45.08661 45.086617l-88.72441 0l0 0c-24.90065 0 -45.08661 -20.185966 -45.08661 -45.086617z" fill-rule="evenodd"/><path fill="#000000" fill-opacity="0.0" d="m301.10236 60.89501l0 0c0 -24.90065 20.185974 -45.086613 45.08661 -45.086613l88.72443 0l0 0c11.957703 0 23.42566 4.750183 31.881042 13.205563c8.455383 8.4553795 13.205566 19.923336 13.205566 31.88105l0 0l0 0c0 24.90065 -20.185974 45.086617 -45.08661 45.086617l-88.72443 0l0 0c-24.900635 0 -45.08661 -20.185966 -45.08661 -45.086617z" fill-rule="evenodd"/><path stroke="#000000" stroke-width="24.0" stroke-linejoin="round" stroke-linecap="butt" d="m301.10236 60.89501l0 0c0 -24.90065 20.185974 -45.086613 45.08661 -45.086613l88.72443 0l0 0c11.957703 0 23.42566 4.750183 31.881042 13.205563c8.455383 8.4553795 13.205566 19.923336 13.205566 31.88105l0 0l0 0c0 24.90065 -20.185974 45.086617 -45.08661 45.086617l-88.72443 0l0 0c-24.900635 0 -45.08661 -20.185966 -45.08661 -45.086617z" fill-rule="evenodd"/></g></svg>