<svg version="1.1" viewBox="0.0 0.0 207.9028871391076 121.2755905511811" fill="none" stroke="none" stroke-linecap="square" stroke-miterlimit="10" xmlns:xlink="http://www.w3.org/1999/xlink" xmlns="http://www.w3.org/2000/svg"><clipPath id="p.0"><path d="m0 0l207.9029 0l0 121.27559l-207.9029 0l0 -121.27559z" clip-rule="nonzero"/></clipPath><g clip-path="url(#p.0)"><path fill="#000000" fill-opacity="0.0" d="m0 0l207.9029 0l0 121.27559l-207.9029 0z" fill-rule="evenodd"/><path fill="#000000" fill-opacity="0.0" d="m14.706037 60.89501l0 0c0 -24.90065 20.185966 -45.086613 45.086617 -45.086613l88.72441 0l0 0c11.957718 0 23.425674 4.750183 31.881058 13.205563c8.455368 8.4553795 13.205551 19.923336 13.205551 31.88105l0 0l0 0c0 24.90065 -20.185959 45.086617 -45.08661 45.086617l-88.72441 0l0 0c-24.90065 0 -45.086617 -20.185966 -45.086617 -45.086617z" fill-rule="evenodd"/><path stroke="#000000" stroke-width="24.0" stroke-linejoin="round" stroke-linecap="butt" d="m14.706037 60.89501l0 0c0 -24.90065 20.185966 -45.086613 45.086617 -45.086613l88.72441 0l0 0c11.957718 0 23.425674 4.750183 31.881058 13.205563c8.455368 8.4553795 13.205551 19.923336 13.205551 31.88105l0 0l0 0c0 24.90065 -20.185959 45.086617 -45.08661 45.086617l-88.72441 0l0 0c-24.90065 0 -45.086617 -20.185966 -45.086617 -45.086617z" fill-rule="evenodd"/></g></svg>