<svg version="1.1" viewBox="0.0 0.0 371.1076115485564 186.3044619422572" fill="none" stroke="none" stroke-linecap="square" stroke-miterlimit="10" xmlns:xlink="http://www.w3.org/1999/xlink" xmlns="http://www.w3.org/2000/svg"><clipPath id="p.0"><path d="m0 0l371.1076 0l0 186.30446l-371.1076 0l0 -186.30446z" clip-rule="nonzero"/></clipPath><g clip-path="url(#p.0)"><path fill="#000000" fill-opacity="0.0" d="m0 0l371.1076 0l0 186.30446l-371.1076 0z" fill-rule="evenodd"/><path fill="#000000" fill-opacity="0.0" d="m1.4540682 -1.4540682l366.2677 0l0 184.8189l-366.2677 0z" fill-rule="evenodd"/><path fill="#000000" d="m32.344692 45.94593l-5.093748 0l0 -3.046875q-1.265625 1.78125 -3.0 2.65625q-1.71875 0.859375 -3.484375 0.859375q-3.578125 0 -6.125001 -2.875q-2.546875 -2.890625 -2.546875 -8.046875q0 -5.265627 2.484375 -8.015627q2.484376 -2.75 6.265626 -2.75q3.484375 0 6.015625 2.890625l0 -10.3125l5.484373 0l0 28.640627zm-14.640623 -10.828125q0 3.328125 0.921875 4.8125q1.328125 2.140625 3.703125 2.140625q1.890625 0 3.21875 -1.609375q1.328125 -1.609375 1.328125 -4.8125q0 -3.578125 -1.296875 -5.140627q-1.28125 -1.578125 -3.28125 -1.578125q-1.953125 0 -3.28125 1.5625q-1.3125 1.5468769 -1.3125 4.625002zm18.792967 0.15625q0 -2.734375 1.34375 -5.281252q1.34375 -2.5625 3.8125 -3.90625q2.46875 -1.359375 5.515625 -1.359375q4.71875 0 7.71875 3.0625q3.015625 3.0625 3.015625 7.718752q0 4.71875 -3.046875 7.8125q-3.03125 3.09375 -7.640625 3.09375q-2.859375 0 -5.453125 -1.28125q-2.578125 -1.296875 -3.921875 -3.78125q-1.34375 -2.5 -1.34375 -6.078125zm5.625 0.296875q0 3.09375 1.453125 4.734375q1.46875 1.640625 3.625 1.640625q2.140625 0 3.59375 -1.640625q1.453125 -1.640625 1.453125 -4.765625q0 -3.046875 -1.453125 -4.687502q-1.453125 -1.640625 -3.59375 -1.640625q-2.15625 0 -3.625 1.640625q-1.453125 1.6406269 -1.453125 4.718752z" fill-rule="nonzero"/><path fill="#000000" d="m71.543915 33.992805q1.515625 -0.046875 2.453125 -0.8125q0.953125 -0.765625 1.265625 -2.109377q0.3125 -1.359375 0.328125 -4.609375q0.015625 -3.265625 0.125 -4.3125q0.171875 -1.640625 0.640625 -2.625q0.484375 -1.0 1.1875 -1.59375q0.703125 -0.59375 1.796875 -0.90625q0.75 -0.203125 2.421875 -0.203125l1.09375 0l0 3.0625l-0.609375 0q-2.03125 0 -2.703125 0.734375q-0.65625 0.734375 -0.65625 3.28125q0 5.109375 -0.203125 6.453125q-0.359375 2.093752 -1.21875 3.234377q-0.84375 1.125 -2.65625 2.0q2.15625 0.90625 3.109375 2.75q0.96875 1.84375 0.96875 6.046875q0 3.8125 0.078125 4.53125q0.15625 1.328125 0.796875 1.859375q0.640625 0.53125 2.484375 0.53125l0.609375 0l0 3.0625l-1.09375 0q-1.90625 0 -2.765625 -0.3125q-1.25 -0.453125 -2.078125 -1.46875q-0.8125 -1.0 -1.0625 -2.546875q-0.25 -1.53125 -0.265625 -5.046875q-0.015625 -3.515625 -0.328125 -4.859375q-0.3125 -1.359375 -1.265625 -2.140625q-0.9375 -0.78125 -2.453125 -0.8125l0 -3.1875z" fill-rule="nonzero"/><path fill="#000000" d="m35.33688 69.35217l0 -4.046875l3.515625 0l0 4.046875l-3.515625 0zm0 24.59375l0 -20.75l3.515625 0l0 20.75l-3.515625 0zm8.871094 0l0 -20.75l3.15625 0l0 2.953125q2.296875 -3.421875 6.609375 -3.421875q1.875 0 3.4375 0.6875q1.578125 0.671875 2.359375 1.765625q0.78125 1.09375 1.09375 2.59375q0.203125 0.96875 0.203125 3.421875l0 12.75l-3.515625 0l0 -12.625q0 -2.140625 -0.421875 -3.203125q-0.40625 -1.0625 -1.453125 -1.703125q-1.046875 -0.640625 -2.453125 -0.640625q-2.234375 0 -3.875 1.4375q-1.625 1.421875 -1.625 5.40625l0 11.328125l-3.515625 0zm20.839848 -6.1875l3.46875 -0.546875q0.296875 2.078125 1.625 3.203125q1.34375 1.109375 3.75 1.109375q2.421875 0 3.59375 -0.984375q1.171875 -0.984375 1.171875 -2.3125q0 -1.203125 -1.03125 -1.875q-0.71875 -0.46875 -3.59375 -1.203125q-3.875 -0.96875 -5.375 -1.671875q-1.484375 -0.71875 -2.265625 -1.984375q-0.765625 -1.265625 -0.765625 -2.78125q0 -1.390625 0.640625 -2.5625q0.640625 -1.1875 1.734375 -1.96875q0.8125 -0.609375 2.21875 -1.03125q1.421875 -0.421875 3.046875 -0.421875q2.4375 0 4.28125 0.703125q1.859375 0.703125 2.734375 1.90625q0.875 1.203125 1.203125 3.21875l-3.4375 0.46875q-0.234375 -1.609375 -1.359375 -2.5q-1.109375 -0.90625 -3.171875 -0.90625q-2.421875 0 -3.453125 0.8125q-1.03125 0.796875 -1.03125 1.875q0 0.671875 0.421875 1.21875q0.4375 0.578125 1.359375 0.9375q0.515625 0.203125 3.09375 0.90625q3.734375 1.0 5.203125 1.640625q1.484375 0.625 2.3125 1.84375q0.84375 1.203125 0.84375 3.0q0 1.75 -1.03125 3.3125q-1.015625 1.546875 -2.953125 2.40625q-1.921875 0.84375 -4.375 0.84375q-4.03125 0 -6.15625 -1.671875q-2.125 -1.6875 -2.703125 -4.984375zm29.078125 3.046875l0.515625 3.09375q-1.484375 0.328125 -2.65625 0.328125q-1.921875 0 -2.984375 -0.609375q-1.046875 -0.609375 -1.484375 -1.59375q-0.421875 -0.984375 -0.421875 -4.15625l0 -11.9375l-2.578125 0l0 -2.734375l2.578125 0l0 -5.125l3.5 -2.109375l0 7.234375l3.53125 0l0 2.734375l-3.53125 0l0 12.140625q0 1.5 0.1875 1.9375q0.1875 0.421875 0.59375 0.671875q0.421875 0.25 1.203125 0.25q0.59375 0 1.546875 -0.125zm3.3945312 3.140625l0 -20.75l3.171875 0l0 3.15625q1.203125 -2.21875 2.234375 -2.921875q1.03125 -0.703125 2.25 -0.703125q1.78125 0 3.625 1.140625l-1.21875 3.265625q-1.28125 -0.765625 -2.578125 -0.765625q-1.15625 0 -2.078125 0.703125q-0.90625 0.6875 -1.296875 1.90625q-0.59375 1.875 -0.59375 4.109375l0 10.859375l-3.515625 0zm26.960938 0l0 -3.046875q-2.421875 3.515625 -6.578125 3.515625q-1.84375 0 -3.4375 -0.703125q-1.59375 -0.703125 -2.359375 -1.765625q-0.765625 -1.0625 -1.078125 -2.609375q-0.21875 -1.03125 -0.21875 -3.28125l0 -12.859375l3.515625 0l0 11.515625q0 2.75 0.21875 3.703125q0.328125 1.390625 1.390625 2.1875q1.078125 0.78125 2.671875 0.78125q1.578125 0 2.953125 -0.8125q1.390625 -0.8125 1.96875 -2.203125q0.578125 -1.390625 0.578125 -4.046875l0 -11.125l3.515625 0l0 20.75l-3.140625 0zm22.183594 -7.59375l3.453125 0.4375q-0.5625 3.578125 -2.90625 5.609375q-2.328125 2.015625 -5.71875 2.015625q-4.265625 0 -6.859375 -2.78125q-2.578125 -2.78125 -2.578125 -7.984375q0 -3.359375 1.109375 -5.875q1.125 -2.515625 3.390625 -3.78125q2.28125 -1.265625 4.953125 -1.265625q3.375 0 5.515625 1.71875q2.15625 1.703125 2.765625 4.84375l-3.421875 0.53125q-0.484375 -2.09375 -1.734375 -3.140625q-1.234375 -1.0625 -2.984375 -1.0625q-2.65625 0 -4.328125 1.90625q-1.65625 1.90625 -1.65625 6.03125q0 4.171875 1.59375 6.078125q1.609375 1.890625 4.1875 1.890625q2.078125 0 3.453125 -1.265625q1.390625 -1.28125 1.765625 -3.90625zm20.0 0l3.453125 0.4375q-0.5625 3.578125 -2.90625 5.609375q-2.328125 2.015625 -5.71875 2.015625q-4.265625 0 -6.859375 -2.78125q-2.578125 -2.78125 -2.578125 -7.984375q0 -3.359375 1.109375 -5.875q1.125 -2.515625 3.390625 -3.78125q2.28125 -1.265625 4.953125 -1.265625q3.375 0 5.515625 1.71875q2.15625 1.703125 2.765625 4.84375l-3.421875 0.53125q-0.484375 -2.09375 -1.734375 -3.140625q-1.234375 -1.0625 -2.984375 -1.0625q-2.65625 0 -4.328125 1.90625q-1.65625 1.90625 -1.65625 6.03125q0 4.171875 1.59375 6.078125q1.609375 1.890625 4.1875 1.890625q2.078125 0 3.453125 -1.265625q1.390625 -1.28125 1.765625 -3.90625zm6.484375 -17.0l0 -4.046875l3.515625 0l0 4.046875l-3.515625 0zm0 24.59375l0 -20.75l3.515625 0l0 20.75l-3.515625 0zm7.5585938 -10.375q0 -5.765625 3.203125 -8.53125q2.671875 -2.3125 6.53125 -2.3125q4.265625 0 6.984375 2.8125q2.71875 2.796875 2.71875 7.734375q0 4.015625 -1.203125 6.3125q-1.203125 2.28125 -3.5 3.5625q-2.296875 1.265625 -5.0 1.265625q-4.359375 0 -7.046875 -2.796875q-2.6875 -2.796875 -2.6875 -8.046875zm3.609375 0q0 3.984375 1.734375 5.96875q1.75 1.984375 4.390625 1.984375q2.609375 0 4.34375 -1.984375q1.75 -2.0 1.75 -6.078125q0 -3.859375 -1.75 -5.828125q-1.75 -1.984375 -4.34375 -1.984375q-2.640625 0 -4.390625 1.96875q-1.734375 1.96875 -1.734375 5.953125zm19.949219 10.375l0 -20.75l3.15625 0l0 2.953125q2.296875 -3.421875 6.609375 -3.421875q1.875 0 3.4375 0.6875q1.578125 0.671875 2.359375 1.765625q0.78125 1.09375 1.09375 2.59375q0.203125 0.96875 0.203125 3.421875l0 12.75l-3.515625 0l0 -12.625q0 -2.140625 -0.421875 -3.203125q-0.40625 -1.0625 -1.453125 -1.703125q-1.046875 -0.640625 -2.453125 -0.640625q-2.234375 0 -3.875 1.4375q-1.625 1.421875 -1.625 5.40625l0 11.328125l-3.515625 0zm36.44922 -6.6875l3.625 0.453125q-0.859375 3.1875 -3.1875 4.953125q-2.3125 1.75 -5.9375 1.75q-4.546875 0 -7.21875 -2.796875q-2.65625 -2.8125 -2.65625 -7.875q0 -5.234375 2.6875 -8.125q2.703125 -2.890625 7.0 -2.890625q4.15625 0 6.796875 2.84375q2.640625 2.828125 2.640625 7.96875q0 0.3125 -0.03125 0.9375l-15.46875 0q0.203125 3.40625 1.9375 5.234375q1.734375 1.8125 4.34375 1.8125q1.921875 0 3.28125 -1.015625q1.375 -1.015625 2.1875 -3.25zm-11.546875 -5.671875l11.578125 0q-0.234375 -2.625 -1.328125 -3.9375q-1.671875 -2.03125 -4.359375 -2.03125q-2.421875 0 -4.078125 1.625q-1.640625 1.625 -1.8125 4.34375zm18.183594 6.171875l3.46875 -0.546875q0.296875 2.078125 1.625 3.203125q1.34375 1.109375 3.75 1.109375q2.421875 0 3.59375 -0.984375q1.171875 -0.984375 1.171875 -2.3125q0 -1.203125 -1.03125 -1.875q-0.71875 -0.46875 -3.59375 -1.203125q-3.875 -0.96875 -5.375 -1.671875q-1.484375 -0.71875 -2.265625 -1.984375q-0.765625 -1.265625 -0.765625 -2.78125q0 -1.390625 0.640625 -2.5625q0.640625 -1.1875 1.734375 -1.96875q0.8125 -0.609375 2.21875 -1.03125q1.421875 -0.421875 3.046875 -0.421875q2.4375 0 4.28125 0.703125q1.859375 0.703125 2.734375 1.90625q0.875 1.203125 1.203125 3.21875l-3.4375 0.46875q-0.234375 -1.609375 -1.359375 -2.5q-1.109375 -0.90625 -3.171875 -0.90625q-2.421875 0 -3.453125 0.8125q-1.03125 0.796875 -1.03125 1.875q0 0.671875 0.421875 1.21875q0.4375 0.578125 1.359375 0.9375q0.515625 0.203125 3.09375 0.90625q3.734375 1.0 5.203125 1.640625q1.484375 0.625 2.3125 1.84375q0.84375 1.203125 0.84375 3.0q0 1.75 -1.03125 3.3125q-1.015625 1.546875 -2.953125 2.40625q-1.921875 0.84375 -4.375 0.84375q-4.03125 0 -6.15625 -1.671875q-2.125 -1.6875 -2.703125 -4.984375z" fill-rule="nonzero"/><path fill="#000000" d="m22.688444 129.9928l0 3.1875q-1.515625 0.03125 -2.46875 0.8125q-0.9375 0.78125 -1.25 2.125q-0.3125 1.328125 -0.328125 4.59375q-0.015625 3.265625 -0.125 4.296875q-0.171875 1.671875 -0.65625 2.65625q-0.46875 0.984375 -1.171875 1.578125q-0.70312595 0.59375 -1.796876 0.90625q-0.75 0.21875 -2.421875 0.21875l-1.09375 0l0 -3.0625l0.609375 0q2.03125 0 2.6875 -0.734375q0.671875 -0.734375 0.671875 -3.296875q0 -4.890625 0.171875 -6.1875q0.3125 -2.171875 1.250001 -3.46875q0.9375 -1.296875 2.65625 -2.03125q-2.25 -1.0625 -3.171875 -2.828125q-0.90625095 -1.78125 -0.90625095 -5.96875q0 -3.8125 -0.109375 -4.5625q-0.125 -1.296875 -0.765625 -1.8125q-0.640625 -0.53125 -2.484375 -0.53125l-0.609375 0l0 -3.0625l1.09375 0q1.90625 0 2.765625 0.3125q1.250001 0.4375 2.062501 1.453125q0.828125 1.015625 1.078125 2.5625q0.25 1.53125 0.265625 5.046875q0.015625 3.515625 0.328125 4.859375q0.3125 1.328125 1.25 2.109375q0.953125 0.78125 2.46875 0.828125z" fill-rule="nonzero"/><path fill="#000000" d="m41.6611 141.94592l-6.5625 -20.75l5.34375 0l3.875 13.59375l3.578125 -13.59375l5.296875 0l3.453125 13.59375l3.96875 -13.59375l5.406254 0l-6.656254 20.75l-5.28125 0l-3.5625 -13.34375l-3.515625 13.34375l-5.34375 0zm32.72266 -28.640625l0 10.53125q2.65625 -3.109375 6.34375 -3.109375q1.890625 0 3.40625 0.703125q1.53125 0.703125 2.296875 1.796875q0.78125 1.09375 1.0625 2.421875q0.28125 1.328125 0.28125 4.125l0 12.171875l-5.484375 0l0 -10.953125q0 -3.265625 -0.3125 -4.140625q-0.3125 -0.890625 -1.109375 -1.40625q-0.78125 -0.515625 -1.96875 -0.515625q-1.375 0 -2.453125 0.671875q-1.0625 0.65625 -1.5625 2.0q-0.5 1.328125 -0.5 3.953125l0 10.390625l-5.484375 0l0 -28.640625l5.484375 0zm18.964844 5.078125l0 -5.078125l5.484375 0l0 5.078125l-5.484375 0zm0 23.5625l0 -20.75l5.484375 0l0 20.75l-5.484375 0zm11.113281 0l0 -28.640625l5.484375 0l0 28.640625l-5.484375 0zm23.128906 -6.609375l5.46875 0.921875q-1.0625 3.015625 -3.34375 4.59375q-2.265625 1.5625 -5.6875 1.5625q-5.40625 0 -8.0 -3.53125q-2.0625 -2.84375 -2.0625 -7.15625q0 -5.15625 2.6875 -8.078125q2.703125 -2.921875 6.828125 -2.921875q4.625 0 7.296875 3.0625q2.6875 3.0625 2.5625 9.359375l-13.75 0q0.0625 2.453125 1.328125 3.8125q1.28125 1.34375 3.171875 1.34375q1.28125 0 2.15625 -0.703125q0.890625 -0.703125 1.34375 -2.265625zm0.3125 -5.546875q-0.0625 -2.375 -1.234375 -3.609375q-1.171875 -1.25 -2.859375 -1.25q-1.796875 0 -2.96875 1.3125q-1.171875 1.3125 -1.140625 3.546875l8.203125 0z" fill-rule="nonzero"/><path fill="#000000" d="m155.41891 150.3678q-2.90625 -3.671875 -4.921875 -8.59375q-2.015625 -4.921875 -2.015625 -10.203125q0 -4.640625 1.5 -8.90625q1.765625 -4.9375 5.4375 -9.84375l2.515625 0q-2.359375 4.0625 -3.125 5.796875q-1.1875 2.703125 -1.875 5.625q-0.84375 3.65625 -0.84375 7.34375q0 9.40625 5.84375 18.78125l-2.515625 0zm20.132812 -16.015625l3.453125 0.4375q-0.5625 3.578125 -2.90625 5.609375q-2.328125 2.015625 -5.71875 2.015625q-4.265625 0 -6.859375 -2.78125q-2.578125 -2.78125 -2.578125 -7.984375q0 -3.359375 1.109375 -5.875q1.125 -2.515625 3.390625 -3.78125q2.28125 -1.265625 4.953125 -1.265625q3.375 0 5.515625 1.71875q2.15625 1.703125 2.765625 4.84375l-3.421875 0.53125q-0.484375 -2.09375 -1.734375 -3.140625q-1.234375 -1.0625 -2.984375 -1.0625q-2.65625 0 -4.328125 1.90625q-1.65625 1.90625 -1.65625 6.03125q0 4.171875 1.59375 6.078125q1.609375 1.890625 4.1875 1.890625q2.078125 0 3.453125 -1.265625q1.390625 -1.28125 1.765625 -3.90625zm5.15625 -2.78125q0 -5.765625 3.203125 -8.53125q2.671875 -2.3125 6.53125 -2.3125q4.265625 0 6.984375 2.8125q2.71875 2.796875 2.71875 7.734375q0 4.015625 -1.203125 6.3125q-1.203125 2.28125 -3.5 3.5625q-2.296875 1.265625 -5.0 1.265625q-4.359375 0 -7.046875 -2.796875q-2.6875 -2.796875 -2.6875 -8.046875zm3.609375 0q0 3.984375 1.734375 5.96875q1.75 1.984375 4.390625 1.984375q2.609375 0 4.34375 -1.984375q1.75 -2.0 1.75 -6.078125q0 -3.859375 -1.75 -5.828125q-1.75 -1.984375 -4.34375 -1.984375q-2.640625 0 -4.390625 1.96875q-1.734375 1.96875 -1.734375 5.953125zm19.949219 10.375l0 -20.75l3.15625 0l0 2.953125q2.296875 -3.421875 6.609375 -3.421875q1.875 0 3.4375 0.6875q1.578125 0.671875 2.359375 1.765625q0.78125 1.09375 1.09375 2.59375q0.203125 0.96875 0.203125 3.421875l0 12.75l-3.515625 0l0 -12.625q0 -2.140625 -0.421875 -3.203125q-0.40625 -1.0625 -1.453125 -1.703125q-1.046875 -0.640625 -2.453125 -0.640625q-2.234375 0 -3.875 1.4375q-1.625 1.421875 -1.625 5.40625l0 11.328125l-3.515625 0zm35.69922 0l0 -2.625q-1.96875 3.09375 -5.796875 3.09375q-2.484375 0 -4.5625 -1.359375q-2.078125 -1.375 -3.21875 -3.828125q-1.140625 -2.453125 -1.140625 -5.640625q0 -3.09375 1.03125 -5.625q1.03125 -2.53125 3.09375 -3.875q2.078125 -1.359375 4.640625 -1.359375q1.875 0 3.328125 0.796875q1.46875 0.796875 2.390625 2.0625l0 -10.28125l3.5 0l0 28.640625l-3.265625 0zm-11.109375 -10.359375q0 3.984375 1.671875 5.96875q1.6875 1.96875 3.96875 1.96875q2.3125 0 3.921875 -1.875q1.609375 -1.890625 1.609375 -5.765625q0 -4.25 -1.640625 -6.234375q-1.640625 -2.0 -4.046875 -2.0q-2.34375 0 -3.921875 1.921875q-1.5625 1.90625 -1.5625 6.015625zm19.917969 -14.234375l0 -4.046875l3.515625 0l0 4.046875l-3.515625 0zm0 24.59375l0 -20.75l3.515625 0l0 20.75l-3.515625 0zm22.402344 -7.59375l3.453125 0.4375q-0.5625 3.578125 -2.90625 5.609375q-2.328125 2.015625 -5.71875 2.015625q-4.265625 0 -6.859375 -2.78125q-2.578125 -2.78125 -2.578125 -7.984375q0 -3.359375 1.109375 -5.875q1.125 -2.515625 3.390625 -3.78125q2.28125 -1.265625 4.953125 -1.265625q3.375 0 5.515625 1.71875q2.15625 1.703125 2.765625 4.84375l-3.421875 0.53125q-0.484375 -2.09375 -1.734375 -3.140625q-1.234375 -1.0625 -2.984375 -1.0625q-2.65625 0 -4.328125 1.90625q-1.65625 1.90625 -1.65625 6.03125q0 4.171875 1.59375 6.078125q1.609375 1.890625 4.1875 1.890625q2.078125 0 3.453125 -1.265625q1.390625 -1.28125 1.765625 -3.90625zm6.484375 -17.0l0 -4.046875l3.515625 0l0 4.046875l-3.515625 0zm0 24.59375l0 -20.75l3.515625 0l0 20.75l-3.515625 0zm7.5585938 -10.375q0 -5.765625 3.203125 -8.53125q2.671875 -2.3125 6.53125 -2.3125q4.265625 0 6.984375 2.8125q2.71875 2.796875 2.71875 7.734375q0 4.015625 -1.203125 6.3125q-1.203125 2.28125 -3.5 3.5625q-2.296875 1.265625 -5.0 1.265625q-4.359375 0 -7.046875 -2.796875q-2.6875 -2.796875 -2.6875 -8.046875zm3.609375 0q0 3.984375 1.734375 5.96875q1.75 1.984375 4.390625 1.984375q2.609375 0 4.34375 -1.984375q1.75 -2.0 1.75 -6.078125q0 -3.859375 -1.75 -5.828125q-1.75 -1.984375 -4.34375 -1.984375q-2.640625 0 -4.390625 1.96875q-1.734375 1.96875 -1.734375 5.953125zm4.40625 -12.953125l2.59375 -5.46875l4.609375 0l-4.296875 5.46875l-2.90625 0zm15.542969 23.328125l0 -20.75l3.15625 0l0 2.953125q2.296875 -3.421875 6.609375 -3.421875q1.875 0 3.4375 0.6875q1.578125 0.671875 2.359375 1.765625q0.78125 1.09375 1.09375 2.59375q0.203125 0.96875 0.203125 3.421875l0 12.75l-3.515625 0l0 -12.625q0 -2.140625 -0.421875 -3.203125q-0.40625 -1.0625 -1.453125 -1.703125q-1.046875 -0.640625 -2.453125 -0.640625q-2.234375 0 -3.875 1.4375q-1.625 1.421875 -1.625 5.40625l0 11.328125l-3.515625 0zm24.542969 8.421875l-2.515625 0q5.84375 -9.375 5.84375 -18.78125q0 -3.671875 -0.84375 -7.28125q-0.65625 -2.921875 -1.859375 -5.625q-0.75 -1.75 -3.140625 -5.859375l2.515625 0q3.671875 4.90625 5.4375 9.84375q1.5 4.265625 1.5 8.90625q0 5.28125 -2.03125 10.203125q-2.015625 4.921875 -4.90625 8.59375zm11.9453125 -25.15625l0 -4.015625l4.0 0l0 4.015625l-4.0 0zm0 16.734375l0 -4.0l4.0 0l0 4.0q0 2.203125 -0.78125 3.5625q-0.78125 1.359375 -2.484375 2.109375l-0.96875 -1.515625q1.109375 -0.484375 1.625 -1.4375q0.53125 -0.9375 0.59375 -2.71875l-1.984375 0z" fill-rule="nonzero"/><path fill="#ff0000" d="m136.47836 169.46593l0 -8.40625l-1.453125 0l0 -1.265625l1.453125 0l0 -1.03125q0 -0.96875 0.171875 -1.453125q0.234375 -0.640625 0.828125 -1.03125q0.59375 -0.390625 1.671875 -0.390625q0.6875 0 1.53125 0.15625l-0.25 1.4375q-0.5 -0.09375 -0.953125 -0.09375q-0.75 0 -1.0625 0.328125q-0.3125 0.3125 -0.3125 1.1875l0 0.890625l1.890625 0l0 1.265625l-1.890625 0l0 8.40625l-1.625 0zm11.105179 -1.1875q-0.921875 0.765625 -1.765625 1.09375q-0.828125 0.3125 -1.796875 0.3125q-1.59375 0 -2.453125 -0.78125q-0.859375 -0.78125 -0.859375 -1.984375q0 -0.71875 0.328125 -1.296875q0.328125 -0.59375 0.84375 -0.9375q0.53125 -0.359375 1.1875 -0.546875q0.46875 -0.125 1.453125 -0.25q1.984375 -0.234375 2.921875 -0.5625q0.015625 -0.34375 0.015625 -0.421875q0 -1.0 -0.46875 -1.421875q-0.625 -0.546875 -1.875 -0.546875q-1.15625 0 -1.703125 0.40625q-0.546875 0.40625 -0.8125 1.421875l-1.609375 -0.21875q0.21875 -1.015625 0.71875 -1.640625q0.5 -0.640625 1.453125 -0.984375q0.953125 -0.34375 2.1875 -0.34375q1.25 0 2.015625 0.296875q0.78125 0.28125 1.140625 0.734375q0.375 0.4375 0.515625 1.109375q0.078125 0.421875 0.078125 1.515625l0 2.1875q0 2.28125 0.109375 2.890625q0.109375 0.59375 0.40625 1.15625l-1.703125 0q-0.265625 -0.515625 -0.328125 -1.1875zm-0.140625 -3.671875q-0.890625 0.375 -2.671875 0.625q-1.015625 0.140625 -1.4375 0.328125q-0.421875 0.1875 -0.65625 0.53125q-0.21875 0.34375 -0.21875 0.78125q0 0.65625 0.5 1.09375q0.5 0.4375 1.453125 0.4375q0.9375 0 1.671875 -0.40625q0.75 -0.421875 1.09375 -1.140625q0.265625 -0.5625 0.265625 -1.640625l0 -0.609375zm4.156967 4.859375l0 -13.359375l1.640625 0l0 13.359375l-1.640625 0zm3.5354462 -2.890625l1.625 -0.25q0.125 0.96875 0.75 1.5q0.625 0.515625 1.75 0.515625q1.125 0 1.671875 -0.453125q0.546875 -0.46875 0.546875 -1.09375q0 -0.546875 -0.484375 -0.875q-0.328125 -0.21875 -1.671875 -0.546875q-1.8125 -0.46875 -2.515625 -0.796875q-0.6875 -0.328125 -1.046875 -0.90625q-0.359375 -0.59375 -0.359375 -1.3125q0 -0.640625 0.296875 -1.1875q0.296875 -0.5625 0.8125 -0.921875q0.375 -0.28125 1.03125 -0.46875q0.671875 -0.203125 1.421875 -0.203125q1.140625 0 2.0 0.328125q0.859375 0.328125 1.265625 0.890625q0.421875 0.5625 0.578125 1.5l-1.609375 0.21875q-0.109375 -0.75 -0.640625 -1.171875q-0.515625 -0.421875 -1.46875 -0.421875q-1.140625 0 -1.625 0.375q-0.46875 0.375 -0.46875 0.875q0 0.3125 0.1875 0.578125q0.203125 0.265625 0.640625 0.4375q0.234375 0.09375 1.4375 0.421875q1.75 0.453125 2.4375 0.75q0.6875 0.296875 1.078125 0.859375q0.390625 0.5625 0.390625 1.40625q0 0.828125 -0.484375 1.546875q-0.46875 0.71875 -1.375 1.125q-0.90625 0.390625 -2.046875 0.390625q-1.875 0 -2.875 -0.78125q-0.984375 -0.78125 -1.25 -2.328125zm16.609375 -0.21875l1.6875 0.203125q-0.40625 1.484375 -1.484375 2.3125q-1.078125 0.8125 -2.765625 0.8125q-2.125 0 -3.375 -1.296875q-1.234375 -1.3125 -1.234375 -3.671875q0 -2.453125 1.25 -3.796875q1.265625 -1.34375 3.265625 -1.34375q1.9375 0 3.15625 1.328125q1.234375 1.3125 1.234375 3.703125q0 0.15625 0 0.4375l-7.21875 0q0.09375 1.59375 0.90625 2.453125q0.8125 0.84375 2.015625 0.84375q0.90625 0 1.546875 -0.46875q0.640625 -0.484375 1.015625 -1.515625zm-5.390625 -2.65625l5.40625 0q-0.109375 -1.21875 -0.625 -1.828125q-0.78125 -0.953125 -2.03125 -0.953125q-1.125 0 -1.90625 0.765625q-0.765625 0.75 -0.84375 2.015625z" fill-rule="nonzero"/><path fill="#0000ff" d="m215.35667 167.99718l0.234375 1.453125q-0.6875 0.140625 -1.234375 0.140625q-0.890625 0 -1.390625 -0.28125q-0.484375 -0.28125 -0.6875 -0.734375q-0.203125 -0.46875 -0.203125 -1.9375l0 -5.578125l-1.203125 0l0 -1.265625l1.203125 0l0 -2.390625l1.625 -0.984375l0 3.375l1.65625 0l0 1.265625l-1.65625 0l0 5.671875q0 0.6875 0.078125 0.890625q0.09375 0.203125 0.28125 0.328125q0.203125 0.109375 0.578125 0.109375q0.265625 0 0.71875 -0.0625zm1.5895538 1.46875l0 -9.671875l1.46875 0l0 1.46875q0.5625 -1.03125 1.03125 -1.359375q0.484375 -0.328125 1.0625 -0.328125q0.828125 0 1.6875 0.53125l-0.5625 1.515625q-0.609375 -0.359375 -1.203125 -0.359375q-0.546875 0 -0.96875 0.328125q-0.421875 0.328125 -0.609375 0.890625q-0.28125 0.875 -0.28125 1.921875l0 5.0625l-1.625 0zm12.556427 0l0 -1.421875q-1.125 1.640625 -3.0625 1.640625q-0.859375 0 -1.609375 -0.328125q-0.734375 -0.328125 -1.09375 -0.828125q-0.359375 -0.5 -0.5 -1.21875q-0.109375 -0.46875 -0.109375 -1.53125l0 -5.984375l1.640625 0l0 5.359375q0 1.28125 0.109375 1.734375q0.15625 0.640625 0.65625 1.015625q0.5 0.375 1.234375 0.375q0.734375 0 1.375 -0.375q0.65625 -0.390625 0.921875 -1.03125q0.265625 -0.65625 0.265625 -1.890625l0 -5.1875l1.640625 0l0 9.671875l-1.46875 0zm10.672592 -3.109375l1.6875 0.203125q-0.40625 1.484375 -1.484375 2.3125q-1.078125 0.8125 -2.765625 0.8125q-2.125 0 -3.375 -1.296875q-1.234375 -1.3125 -1.234375 -3.671875q0 -2.453125 1.25 -3.796875q1.265625 -1.34375 3.265625 -1.34375q1.9375 0 3.15625 1.328125q1.234375 1.3125 1.234375 3.703125q0 0.15625 0 0.4375l-7.21875 0q0.09375 1.59375 0.90625 2.453125q0.8125 0.84375 2.015625 0.84375q0.90625 0 1.546875 -0.46875q0.640625 -0.484375 1.015625 -1.515625zm-5.390625 -2.65625l5.40625 0q-0.109375 -1.21875 -0.625 -1.828125q-0.78125 -0.953125 -2.03125 -0.953125q-1.125 0 -1.90625 0.765625q-0.765625 0.75 -0.84375 2.015625z" fill-rule="nonzero"/><path fill="#000000" fill-opacity="0.0" d="m181.83202 153.71129l-0.4094391 26.48819" fill-rule="evenodd"/><path stroke="#ff0000" stroke-width="2.0" stroke-linejoin="round" stroke-linecap="butt" d="m181.83202 153.71129l-0.2239685 14.489624" fill-rule="evenodd"/><path fill="#ff0000" stroke="#ff0000" stroke-width="2.0" stroke-linecap="butt" d="m178.30498 168.14986l3.1627808 9.12616l3.4433594 -9.024048z" fill-rule="evenodd"/><path fill="#000000" fill-opacity="0.0" d="m151.46457 8.9868765l0.4409485 64.72441" fill-rule="evenodd"/><path stroke="#9900ff" stroke-width="2.0" stroke-linejoin="round" stroke-linecap="butt" d="m151.46457 8.9868765l0.3591919 52.724686" fill-rule="evenodd"/><path fill="#9900ff" stroke="#9900ff" stroke-width="2.0" stroke-linecap="butt" d="m148.52037 61.73407l3.365219 9.053482l3.241562 -9.098492z" fill-rule="evenodd"/><path fill="#000000" fill-opacity="0.0" d="m247.64568 154.16011l0 23.372696l109.15788 0l0 -143.82414l-109.15788 -0.4488182l0 40.0" fill-rule="evenodd"/><path stroke="#0000ff" stroke-width="2.0" stroke-linejoin="round" stroke-linecap="butt" d="m247.64568 154.16011l0 23.372696l109.15788 0l0 -143.82414l-109.15788 -0.4488182l0 28.0" fill-rule="evenodd"/><path fill="#0000ff" stroke="#0000ff" stroke-width="2.0" stroke-linecap="butt" d="m244.34221 61.259842l3.3034668 9.076195l3.3034515 -9.076195z" fill-rule="evenodd"/><path fill="#000000" fill-opacity="0.0" d="m201.35957 94.46982l0.3779602 27.464561" fill-rule="evenodd"/><path stroke="#9900ff" stroke-width="2.0" stroke-linejoin="round" stroke-linecap="butt" d="m201.35957 94.46982l0.21282959 15.465706" fill-rule="evenodd"/><path fill="#9900ff" stroke="#9900ff" stroke-width="2.0" stroke-linecap="butt" d="m198.26926 109.98097l3.4280396 9.029884l3.1782684 -9.120796z" fill-rule="evenodd"/></g></svg>