<svg version="1.1" viewBox="0.0 0.0 420.3569553805774 564.7454068241469" fill="none" stroke="none" stroke-linecap="square" stroke-miterlimit="10" xmlns:xlink="http://www.w3.org/1999/xlink" xmlns="http://www.w3.org/2000/svg"><clipPath id="p.0"><path d="m0 0l420.35696 0l0 564.7454l-420.35696 0l0 -564.7454z" clip-rule="nonzero"/></clipPath><g clip-path="url(#p.0)"><path fill="#000000" fill-opacity="0.0" d="m0 0l420.35696 0l0 564.7454l-420.35696 0z" fill-rule="evenodd"/><path fill="#000000" fill-opacity="0.0" d="m1.4540682 0l390.2362 0l0 561.2598l-390.2362 0z" fill-rule="evenodd"/><path fill="#000000" d="m13.329068 23.837498l0 -5.078125l5.484376 0l0 5.078125l-5.484376 0zm0 23.5625l0 -20.75l5.484376 0l0 20.75l-5.484376 0zm8.707032 -20.75l3.046875 0l0 -1.5625q0 -2.609375 0.546875 -3.890625q0.5625 -1.296875 2.0625 -2.109375q1.5 -0.8125 3.78125 -0.8125q2.343748 0 4.593748 0.703125l-0.75 3.828125q-1.3125 -0.3125 -2.515625 -0.3125q-1.1874981 0 -1.7187481 0.5625q-0.515625 0.546875 -0.515625 2.140625l0 1.453125l4.109373 0l0 4.328125l-4.109373 0l0 16.421875l-5.484375 0l0 -16.421875l-3.046875 0l0 -4.328125z" fill-rule="nonzero"/><path fill="#000000" d="m55.360317 55.821873q-2.90625 -3.671875 -4.921875 -8.59375q-2.015625 -4.921875 -2.015625 -10.203125q0 -4.640625 1.5 -8.90625q1.765625 -4.9375 5.4375 -9.84375l2.515625 0q-2.359375 4.0625 -3.125 5.796875q-1.1875 2.703125 -1.875 5.625q-0.84375 3.65625 -0.84375 7.34375q0 9.40625 5.84375 18.78125l-2.515625 0z" fill-rule="nonzero"/><path fill="#000000" d="m74.96188 39.837498l3.546875 0.375q-1.328125 3.890625 -3.78125 5.78125q-2.453125 1.875 -5.578125 1.875q-3.375 0 -5.484379 -2.1875q-2.09375 -2.1875 -2.09375 -6.109375q0 -3.40625 1.34375 -6.6875q1.3437538 -3.28125 3.8593788 -4.984375q2.515625 -1.71875 5.734375 -1.71875q3.34375 0 5.296875 1.890625q1.953125 1.890625 1.953125 4.984375l-3.484375 0.234375q-0.015625 -1.96875 -1.140625 -3.078125q-1.125 -1.109375 -2.953125 -1.109375q-2.140625 0 -3.703125 1.34375q-1.5625 1.34375 -2.453125 4.09375q-0.875 2.734375 -0.875 5.28125q0 2.65625 1.171875 3.984375q1.171875 1.328125 2.890625 1.328125q1.71875 0 3.28125 -1.3125q1.578125 -1.3125 2.46875 -3.984375zm6.3125 -0.3125q0 -6.078125 3.578125 -10.0625q2.953125 -3.28125 7.734375 -3.28125q3.75 0 6.046875 2.34375q2.296875 2.34375 2.296875 6.328125q0 3.578125 -1.453125 6.65625q-1.4375 3.078125 -4.109375 4.71875q-2.671875 1.640625 -5.609375 1.640625q-2.421875 0 -4.40625 -1.03125q-1.984375 -1.046875 -3.03125 -2.9375q-1.046875 -1.890625 -1.046875 -4.375zm3.53125 -0.34375q0 2.921875 1.40625 4.4375q1.40625 1.515625 3.578125 1.515625q1.140625 0 2.25 -0.453125q1.109375 -0.46875 2.0625 -1.40625q0.96875 -0.9375 1.640625 -2.140625q0.671875 -1.203125 1.078125 -2.578125q0.609375 -1.9375 0.609375 -3.71875q0 -2.8125 -1.421875 -4.359375q-1.40625 -1.5625 -3.5625 -1.5625q-1.65625 0 -3.03125 0.796875q-1.359375 0.796875 -2.46875 2.328125q-1.09375 1.515625 -1.625 3.53125q-0.515625 2.015625 -0.515625 3.609375zm18.089844 8.21875l4.34375 -20.75l3.203125 0l-0.765625 3.625q2.09375 -2.140625 3.90625 -3.109375q1.8125 -0.984375 3.703125 -0.984375q2.53125 0 3.953125 1.375q1.4375 1.359375 1.4375 3.65625q0 1.140625 -0.5 3.625l-2.640625 12.5625l-3.53125 0l2.75 -13.140625q0.40625 -1.921875 0.40625 -2.84375q0 -1.03125 -0.71875 -1.671875q-0.703125 -0.640625 -2.046875 -0.640625q-2.71875 0 -4.84375 1.953125q-2.109375 1.953125 -3.109375 6.6875l-2.015625 9.65625l-3.53125 0zm36.23047 -3.015625q-3.03125 3.484375 -6.328125 3.484375q-2.953125 0 -4.921875 -2.171875q-1.953125 -2.1875 -1.953125 -6.328125q0 -3.78125 1.546875 -6.921875q1.5625 -3.140625 3.890625 -4.703125q2.34375 -1.5625 4.6875 -1.5625q3.859375 0 5.828125 3.734375l2.34375 -11.15625l3.515625 0l-5.96875 28.640625l-3.265625 0l0.625 -3.015625zm-9.6875 -5.671875q0 2.15625 0.421875 3.40625q0.4375 1.25 1.46875 2.09375q1.046875 0.828125 2.484375 0.828125q2.40625 0 4.359375 -2.5q2.609375 -3.328125 2.609375 -8.203125q0 -2.46875 -1.296875 -3.84375q-1.28125 -1.390625 -3.234375 -1.390625q-1.265625 0 -2.3125 0.5625q-1.046875 0.5625 -2.078125 1.921875q-1.015625 1.359375 -1.71875 3.453125q-0.703125 2.078125 -0.703125 3.671875zm22.964844 -15.9375l0.84375 -4.015625l3.515625 0l-0.84375 4.015625l-3.515625 0zm-5.15625 24.625l4.34375 -20.75l3.53125 0l-4.328125 20.75l-3.546875 0zm23.339844 -7.5625l3.546875 0.375q-1.328125 3.890625 -3.78125 5.78125q-2.453125 1.875 -5.578125 1.875q-3.375 0 -5.484375 -2.1875q-2.09375 -2.1875 -2.09375 -6.109375q0 -3.40625 1.34375 -6.6875q1.34375 -3.28125 3.859375 -4.984375q2.515625 -1.71875 5.734375 -1.71875q3.34375 0 5.296875 1.890625q1.953125 1.890625 1.953125 4.984375l-3.484375 0.234375q-0.015625 -1.96875 -1.140625 -3.078125q-1.125 -1.109375 -2.953125 -1.109375q-2.140625 0 -3.703125 1.34375q-1.5625 1.34375 -2.453125 4.09375q-0.875 2.734375 -0.875 5.28125q0 2.65625 1.171875 3.984375q1.171875 1.328125 2.890625 1.328125q1.71875 0 3.28125 -1.3125q1.578125 -1.3125 2.46875 -3.984375zm10.703125 -17.0625l0.84375 -4.015625l3.515625 0l-0.84375 4.015625l-3.515625 0zm-5.15625 24.625l4.34375 -20.75l3.53125 0l-4.328125 20.75l-3.546875 0zm9.652344 -7.875q0 -6.078125 3.578125 -10.0625q2.953125 -3.28125 7.734375 -3.28125q3.75 0 6.046875 2.34375q2.296875 2.34375 2.296875 6.328125q0 3.578125 -1.453125 6.65625q-1.4375 3.078125 -4.109375 4.71875q-2.671875 1.640625 -5.609375 1.640625q-2.421875 0 -4.40625 -1.03125q-1.984375 -1.046875 -3.03125 -2.9375q-1.046875 -1.890625 -1.046875 -4.375zm3.53125 -0.34375q0 2.921875 1.40625 4.4375q1.40625 1.515625 3.578125 1.515625q1.140625 0 2.25 -0.453125q1.109375 -0.46875 2.0625 -1.40625q0.96875 -0.9375 1.640625 -2.140625q0.671875 -1.203125 1.078125 -2.578125q0.609375 -1.9375 0.609375 -3.71875q0 -2.8125 -1.421875 -4.359375q-1.40625 -1.5625 -3.5625 -1.5625q-1.65625 0 -3.03125 0.796875q-1.359375 0.796875 -2.46875 2.328125q-1.09375 1.515625 -1.625 3.53125q-0.515625 2.015625 -0.515625 3.609375zm5.28125 -15.046875l3.671875 -5.375l4.453125 0l-5.203125 5.375l-2.921875 0zm12.808594 23.265625l4.34375 -20.75l3.203125 0l-0.765625 3.625q2.09375 -2.140625 3.90625 -3.109375q1.8125 -0.984375 3.703125 -0.984375q2.53125 0 3.953125 1.375q1.4375 1.359375 1.4375 3.65625q0 1.140625 -0.5 3.625l-2.640625 12.5625l-3.53125 0l2.75 -13.140625q0.40625 -1.921875 0.40625 -2.84375q0 -1.03125 -0.71875 -1.671875q-0.703125 -0.640625 -2.046875 -0.640625q-2.71875 0 -4.84375 1.953125q-2.109375 1.953125 -3.109375 6.6875l-2.015625 9.65625l-3.53125 0z" fill-rule="nonzero"/><path fill="#000000" d="m233.26266 55.821873l-2.515625 0q5.84375 -9.375 5.84375 -18.78125q0 -3.671875 -0.84375 -7.28125q-0.65625 -2.921875 -1.859375 -5.625q-0.75 -1.75 -3.140625 -5.859375l2.515625 0q3.671875 4.90625 5.4375 9.84375q1.5 4.265625 1.5 8.90625q0 5.28125 -2.03125 10.203125q-2.015625 4.921875 -4.90625 8.59375zm20.605469 -20.375q1.515625 -0.046875 2.453125 -0.8125q0.953125 -0.765625 1.265625 -2.109375q0.3125 -1.359375 0.328125 -4.609375q0.015625 -3.265625 0.125 -4.3125q0.171875 -1.640625 0.640625 -2.625q0.484375 -1.0 1.1875 -1.59375q0.703125 -0.59375 1.796875 -0.90625q0.75 -0.203125 2.421875 -0.203125l1.09375 0l0 3.0625l-0.609375 0q-2.03125 0 -2.703125 0.734375q-0.65625 0.734375 -0.65625 3.28125q0 5.109375 -0.203125 6.453125q-0.359375 2.09375 -1.21875 3.234375q-0.84375 1.125 -2.65625 2.0q2.15625 0.90625 3.109375 2.75q0.96875 1.84375 0.96875 6.046875q0 3.8125 0.078125 4.53125q0.15625 1.328125 0.796875 1.859375q0.640625 0.53125 2.484375 0.53125l0.609375 0l0 3.0625l-1.09375 0q-1.90625 0 -2.765625 -0.3125q-1.25 -0.453125 -2.078125 -1.46875q-0.8125 -1.0 -1.0625 -2.546875q-0.25 -1.53125 -0.265625 -5.046875q-0.015625 -3.515625 -0.328125 -4.859375q-0.3125 -1.359375 -1.265625 -2.140625q-0.9375 -0.78125 -2.453125 -0.8125l0 -3.1875z" fill-rule="nonzero"/><path fill="#ff0000" d="m74.27872 74.92l0 -8.40625l-1.453125 0l0 -1.265625l1.453125 0l0 -1.03125q0 -0.96875 0.171875 -1.453125q0.234375 -0.640625 0.828125 -1.03125q0.59375 -0.390625 1.671875 -0.390625q0.6875 0 1.53125 0.15625l-0.25 1.4375q-0.5 -0.09375 -0.953125 -0.09375q-0.75 0 -1.0625 0.328125q-0.3125 0.3125 -0.3125 1.1875l0 0.890625l1.890625 0l0 1.265625l-1.890625 0l0 8.40625l-1.625 0zm11.105179 -1.1875q-0.921875 0.765625 -1.765625 1.09375q-0.828125 0.3125 -1.796875 0.3125q-1.59375 0 -2.453125 -0.78125q-0.859375 -0.78125 -0.859375 -1.984375q0 -0.71875 0.328125 -1.296875q0.328125 -0.59375 0.84375 -0.9375q0.53125 -0.359375 1.1875 -0.546875q0.46875 -0.125 1.453125 -0.25q1.984375 -0.234375 2.921875 -0.5625q0.015625 -0.34375 0.015625 -0.421875q0 -1.0 -0.46875 -1.421875q-0.625 -0.546875 -1.875 -0.546875q-1.15625 0 -1.703125 0.40625q-0.546875 0.40625 -0.8125 1.421875l-1.609375 -0.21875q0.21875 -1.015625 0.71875 -1.640625q0.5 -0.640625 1.453125 -0.984375q0.953125 -0.34375 2.1875 -0.34375q1.25 0 2.015625 0.296875q0.78125 0.28125 1.140625 0.734375q0.375 0.4375 0.515625 1.109375q0.078125 0.421875 0.078125 1.515625l0 2.1875q0 2.28125 0.109375 2.890625q0.109375 0.59375 0.40625 1.15625l-1.703125 0q-0.265625 -0.515625 -0.328125 -1.1875zm-0.140625 -3.671875q-0.890625 0.375 -2.671875 0.625q-1.015625 0.140625 -1.4375 0.328125q-0.421875 0.1875 -0.65625 0.53125q-0.21875 0.34375 -0.21875 0.78125q0 0.65625 0.5 1.09375q0.5 0.4375 1.453125 0.4375q0.9375 0 1.671875 -0.40625q0.75 -0.421875 1.09375 -1.140625q0.265625 -0.5625 0.265625 -1.640625l0 -0.609375zm4.156967 4.859375l0 -13.359375l1.640625 0l0 13.359375l-1.640625 0zm3.5354462 -2.890625l1.625 -0.25q0.125 0.96875 0.75 1.5q0.625 0.515625 1.75 0.515625q1.125 0 1.671875 -0.453125q0.546875 -0.46875 0.546875 -1.09375q0 -0.546875 -0.484375 -0.875q-0.328125 -0.21875 -1.671875 -0.546875q-1.8125 -0.46875 -2.515625 -0.796875q-0.6875 -0.328125 -1.046875 -0.90625q-0.359375 -0.59375 -0.359375 -1.3125q0 -0.640625 0.296875 -1.1875q0.296875 -0.5625 0.8125 -0.921875q0.375 -0.28125 1.03125 -0.46875q0.671875 -0.203125 1.421875 -0.203125q1.140625 0 2.0 0.328125q0.859375 0.328125 1.265625 0.890625q0.421875 0.5625 0.578125 1.5l-1.609375 0.21875q-0.109375 -0.75 -0.640625 -1.171875q-0.515625 -0.421875 -1.46875 -0.421875q-1.140625 0 -1.625 0.375q-0.46875 0.375 -0.46875 0.875q0 0.3125 0.1875 0.578125q0.203125 0.265625 0.640625 0.4375q0.234375 0.09375 1.4375 0.421875q1.75 0.453125 2.4375 0.75q0.6875 0.296875 1.078125 0.859375q0.390625 0.5625 0.390625 1.40625q0 0.828125 -0.484375 1.546875q-0.46875 0.71875 -1.375 1.125q-0.90625 0.390625 -2.046875 0.390625q-1.875 0 -2.875 -0.78125q-0.984375 -0.78125 -1.25 -2.328125zm16.609375 -0.21875l1.6875 0.203125q-0.40625 1.484375 -1.484375 2.3125q-1.078125 0.8125 -2.765625 0.8125q-2.125 0 -3.375 -1.296875q-1.234375 -1.3125 -1.234375 -3.671875q0 -2.453125 1.25 -3.796875q1.265625 -1.34375 3.265625 -1.34375q1.9375 0 3.15625 1.328125q1.234375 1.3125 1.234375 3.703125q0 0.15625 0 0.4375l-7.21875 0q0.09375 1.59375 0.90625 2.453125q0.8125 0.84375 2.015625 0.84375q0.90625 0 1.546875 -0.46875q0.640625 -0.484375 1.015625 -1.515625zm-5.390625 -2.65625l5.40625 0q-0.109375 -1.21875 -0.625 -1.828125q-0.78125 -0.953125 -2.03125 -0.953125q-1.125 0 -1.90625 0.765625q-0.765625 0.75 -0.84375 2.015625z" fill-rule="nonzero"/><path fill="#0000ff" d="m158.34033 73.45125l0.234375 1.453125q-0.6875 0.140625 -1.234375 0.140625q-0.890625 0 -1.390625 -0.28125q-0.484375 -0.28125 -0.6875 -0.734375q-0.203125 -0.46875 -0.203125 -1.9375l0 -5.578125l-1.203125 0l0 -1.265625l1.203125 0l0 -2.390625l1.625 -0.984375l0 3.375l1.65625 0l0 1.265625l-1.65625 0l0 5.671875q0 0.6875 0.078125 0.890625q0.09375 0.203125 0.28125 0.328125q0.203125 0.109375 0.578125 0.109375q0.265625 0 0.71875 -0.0625zm1.5895538 1.46875l0 -9.671875l1.46875 0l0 1.46875q0.5625 -1.03125 1.03125 -1.359375q0.484375 -0.328125 1.0625 -0.328125q0.828125 0 1.6875 0.53125l-0.5625 1.515625q-0.609375 -0.359375 -1.203125 -0.359375q-0.546875 0 -0.96875 0.328125q-0.421875 0.328125 -0.609375 0.890625q-0.28125 0.875 -0.28125 1.921875l0 5.0625l-1.625 0zm12.556427 0l0 -1.421875q-1.125 1.640625 -3.0625 1.640625q-0.859375 0 -1.609375 -0.328125q-0.734375 -0.328125 -1.09375 -0.828125q-0.359375 -0.5 -0.5 -1.21875q-0.109375 -0.46875 -0.109375 -1.53125l0 -5.984375l1.640625 0l0 5.359375q0 1.28125 0.109375 1.734375q0.15625 0.640625 0.65625 1.015625q0.5 0.375 1.234375 0.375q0.734375 0 1.375 -0.375q0.65625 -0.390625 0.921875 -1.03125q0.265625 -0.65625 0.265625 -1.890625l0 -5.1875l1.640625 0l0 9.671875l-1.46875 0zm10.672592 -3.109375l1.6875 0.203125q-0.40625 1.484375 -1.484375 2.3125q-1.078125 0.8125 -2.765625 0.8125q-2.125 0 -3.375 -1.296875q-1.234375 -1.3125 -1.234375 -3.671875q0 -2.453125 1.25 -3.796875q1.265625 -1.34375 3.265625 -1.34375q1.9375 0 3.15625 1.328125q1.234375 1.3125 1.234375 3.703125q0 0.15625 0 0.4375l-7.21875 0q0.09375 1.59375 0.90625 2.453125q0.8125 0.84375 2.015625 0.84375q0.90625 0 1.546875 -0.46875q0.640625 -0.484375 1.015625 -1.515625zm-5.390625 -2.65625l5.40625 0q-0.109375 -1.21875 -0.625 -1.828125q-0.78125 -0.953125 -2.03125 -0.953125q-1.125 0 -1.90625 0.765625q-0.765625 0.75 -0.84375 2.015625z" fill-rule="nonzero"/><path fill="#000000" d="m39.02438 92.774994l0.84375 -4.015625l3.515625 0l-0.84375 4.015625l-3.515625 0zm-5.15625 24.625l4.34375 -20.75l3.53125 0l-4.328125 20.75l-3.546875 0zm9.027344 0l4.34375 -20.75l3.203125 0l-0.765625 3.625q2.09375 -2.140625 3.90625 -3.109375q1.8125 -0.984375 3.703125 -0.984375q2.53125 0 3.953125 1.375q1.4375 1.359375 1.4375 3.65625q0 1.140625 -0.5 3.625l-2.640625 12.5625l-3.53125 0l2.75 -13.140625q0.40625 -1.921875 0.40625 -2.84375q0 -1.03125 -0.71875 -1.671875q-0.703125 -0.640625 -2.046875 -0.640625q-2.71875 0 -4.84375 1.953125q-2.109375 1.953125 -3.109375 6.6875l-2.015625 9.65625l-3.53125 0zm22.574223 -7.09375l3.546875 -0.21875q0 1.53125 0.46875 2.609375q0.46875 1.0625 1.71875 1.75q1.265625 0.6875 2.9375 0.6875q2.34375 0 3.515625 -0.9375q1.171875 -0.9375 1.171875 -2.203125q0 -0.921875 -0.703125 -1.75q-0.71875 -0.8125 -3.53125 -2.015625q-2.796875 -1.203125 -3.578125 -1.6875q-1.296875 -0.796875 -1.96875 -1.875q-0.65625 -1.09375 -0.65625 -2.5q0 -2.46875 1.953125 -4.21875q1.953125 -1.765625 5.46875 -1.765625q3.90625 0 5.9375 1.8125q2.046875 1.8125 2.125 4.75l-3.453125 0.234375q-0.078125 -1.875 -1.328125 -2.96875q-1.25 -1.09375 -3.546875 -1.09375q-1.828125 0 -2.84375 0.84375q-1.015625 0.84375 -1.015625 1.8125q0 0.984375 0.875 1.71875q0.59375 0.515625 3.03125 1.5625q4.0625 1.765625 5.109375 2.78125q1.6875 1.625 1.6875 3.9375q0 1.546875 -0.953125 3.03125q-0.9375 1.484375 -2.890625 2.375q-1.9375 0.890625 -4.578125 0.890625q-3.59375 0 -6.109375 -1.78125q-2.515625 -1.78125 -2.390625 -5.78125zm27.9375 4.21875l-0.59375 2.890625q-1.265625 0.34375 -2.453125 0.34375q-2.109375 0 -3.359375 -1.046875q-0.9375 -0.78125 -0.9375 -2.125q0 -0.6875 0.5 -3.140625l2.53125 -12.0625l-2.796875 0l0.5625 -2.734375l2.796875 0l1.078125 -5.09375l4.03125 -2.4375l-1.578125 7.53125l3.484375 0l-0.59375 2.734375l-3.453125 0l-2.40625 11.46875q-0.453125 2.1875 -0.453125 2.625q0 0.625 0.359375 0.953125q0.375 0.328125 1.1875 0.328125q1.171875 0 2.09375 -0.234375zm2.8476562 2.875l4.34375 -20.75l3.125 0l-0.890625 4.25q1.609375 -2.40625 3.140625 -3.5625q1.53125 -1.15625 3.140625 -1.15625q1.046875 0 2.59375 0.765625l-1.453125 3.28125q-0.90625 -0.65625 -2.0 -0.65625q-1.859375 0 -3.8125 2.078125q-1.953125 2.0625 -3.0625 7.421875l-1.765625 8.328125l-3.359375 0zm27.476562 -3.75q-3.71875 4.21875 -7.625 4.21875q-2.40625 0 -3.890625 -1.375q-1.46875 -1.375 -1.46875 -3.375q0 -1.3125 0.671875 -4.484375l2.5 -11.984375l3.53125 0l-2.78125 13.265625q-0.34375 1.65625 -0.34375 2.578125q0 1.171875 0.703125 1.828125q0.71875 0.65625 2.109375 0.65625q1.484375 0 2.890625 -0.71875q1.421875 -0.734375 2.4375 -1.953125q1.03125 -1.234375 1.6875 -2.921875q0.421875 -1.0625 0.984375 -3.765625l1.875 -8.96875l3.546875 0l-4.34375 20.75l-3.265625 0l0.78125 -3.75zm22.402344 -3.8125l3.546875 0.375q-1.328125 3.890625 -3.78125 5.78125q-2.453125 1.875 -5.578125 1.875q-3.375 0 -5.484375 -2.1875q-2.09375 -2.1875 -2.09375 -6.109375q0 -3.40625 1.34375 -6.6875q1.34375 -3.28125 3.859375 -4.984375q2.515625 -1.71875 5.734375 -1.71875q3.34375 0 5.296875 1.890625q1.953125 1.890625 1.953125 4.984375l-3.484375 0.234375q-0.015625 -1.96875 -1.140625 -3.078125q-1.125 -1.109375 -2.953125 -1.109375q-2.140625 0 -3.703125 1.34375q-1.5625 1.34375 -2.453125 4.09375q-0.875 2.734375 -0.875 5.28125q0 2.65625 1.171875 3.984375q1.171875 1.328125 2.890625 1.328125q1.71875 0 3.28125 -1.3125q1.578125 -1.3125 2.46875 -3.984375zm20.0 0l3.546875 0.375q-1.328125 3.890625 -3.78125 5.78125q-2.453125 1.875 -5.578125 1.875q-3.375 0 -5.484375 -2.1875q-2.09375 -2.1875 -2.09375 -6.109375q0 -3.40625 1.34375 -6.6875q1.34375 -3.28125 3.859375 -4.984375q2.515625 -1.71875 5.734375 -1.71875q3.34375 0 5.296875 1.890625q1.953125 1.890625 1.953125 4.984375l-3.484375 0.234375q-0.015625 -1.96875 -1.140625 -3.078125q-1.125 -1.109375 -2.953125 -1.109375q-2.140625 0 -3.703125 1.34375q-1.5625 1.34375 -2.453125 4.09375q-0.875 2.734375 -0.875 5.28125q0 2.65625 1.171875 3.984375q1.171875 1.328125 2.890625 1.328125q1.71875 0 3.28125 -1.3125q1.578125 -1.3125 2.46875 -3.984375zm10.703125 -17.0625l0.84375 -4.015625l3.515625 0l-0.84375 4.015625l-3.515625 0zm-5.15625 24.625l4.34375 -20.75l3.53125 0l-4.328125 20.75l-3.546875 0zm9.652344 -7.875q0 -6.078125 3.578125 -10.0625q2.953125 -3.28125 7.734375 -3.28125q3.75 0 6.046875 2.34375q2.296875 2.34375 2.296875 6.328125q0 3.578125 -1.453125 6.65625q-1.4375 3.078125 -4.109375 4.71875q-2.671875 1.640625 -5.609375 1.640625q-2.421875 0 -4.40625 -1.03125q-1.984375 -1.046875 -3.03125 -2.9375q-1.046875 -1.890625 -1.046875 -4.375zm3.53125 -0.34375q0 2.921875 1.40625 4.4375q1.40625 1.515625 3.578125 1.515625q1.140625 0 2.25 -0.453125q1.109375 -0.46875 2.0625 -1.40625q0.96875 -0.9375 1.640625 -2.140625q0.671875 -1.203125 1.078125 -2.578125q0.609375 -1.9375 0.609375 -3.71875q0 -2.8125 -1.421875 -4.359375q-1.40625 -1.5625 -3.5625 -1.5625q-1.65625 0 -3.03125 0.796875q-1.359375 0.796875 -2.46875 2.328125q-1.09375 1.515625 -1.625 3.53125q-0.515625 2.015625 -0.515625 3.609375zm18.089844 8.21875l4.34375 -20.75l3.203125 0l-0.765625 3.625q2.09375 -2.140625 3.90625 -3.109375q1.8125 -0.984375 3.703125 -0.984375q2.53125 0 3.953125 1.375q1.4375 1.359375 1.4375 3.65625q0 1.140625 -0.5 3.625l-2.640625 12.5625l-3.53125 0l2.75 -13.140625q0.40625 -1.921875 0.40625 -2.84375q0 -1.03125 -0.71875 -1.671875q-0.703125 -0.640625 -2.046875 -0.640625q-2.71875 0 -4.84375 1.953125q-2.109375 1.953125 -3.109375 6.6875l-2.015625 9.65625l-3.53125 0zm37.48047 -7.046875l3.4375 0.34375q-0.734375 2.5625 -3.40625 4.875q-2.671875 2.296875 -6.359375 2.296875q-2.296875 0 -4.234375 -1.0625q-1.921875 -1.0625 -2.921875 -3.09375q-1.0 -2.03125 -1.0 -4.640625q0 -3.390625 1.5625 -6.578125q1.578125 -3.203125 4.078125 -4.75q2.5 -1.5625 5.40625 -1.5625q3.71875 0 5.921875 2.3125q2.21875 2.296875 2.21875 6.28125q0 1.53125 -0.265625 3.125l-15.28125 0q-0.078125 0.609375 -0.078125 1.09375q0 2.921875 1.34375 4.453125q1.34375 1.53125 3.265625 1.53125q1.828125 0 3.578125 -1.1875q1.765625 -1.203125 2.734375 -3.4375zm-10.265625 -5.140625l11.640625 0q0.015625 -0.546875 0.015625 -0.78125q0 -2.65625 -1.328125 -4.0625q-1.328125 -1.421875 -3.421875 -1.421875q-2.265625 0 -4.140625 1.5625q-1.859375 1.5625 -2.765625 4.703125zm17.605469 5.09375l3.546875 -0.21875q0 1.53125 0.46875 2.609375q0.46875 1.0625 1.71875 1.75q1.265625 0.6875 2.9375 0.6875q2.34375 0 3.515625 -0.9375q1.171875 -0.9375 1.171875 -2.203125q0 -0.921875 -0.703125 -1.75q-0.71875 -0.8125 -3.53125 -2.015625q-2.796875 -1.203125 -3.578125 -1.6875q-1.296875 -0.796875 -1.96875 -1.875q-0.65625 -1.09375 -0.65625 -2.5q0 -2.46875 1.953125 -4.21875q1.953125 -1.765625 5.46875 -1.765625q3.90625 0 5.9375 1.8125q2.046875 1.8125 2.125 4.75l-3.453125 0.234375q-0.078125 -1.875 -1.328125 -2.96875q-1.25 -1.09375 -3.546875 -1.09375q-1.828125 0 -2.84375 0.84375q-1.015625 0.84375 -1.015625 1.8125q0 0.984375 0.875 1.71875q0.59375 0.515625 3.03125 1.5625q4.0625 1.765625 5.109375 2.78125q1.6875 1.625 1.6875 3.9375q0 1.546875 -0.953125 3.03125q-0.9375 1.484375 -2.890625 2.375q-1.9375 0.890625 -4.578125 0.890625q-3.59375 0 -6.109375 -1.78125q-2.515625 -1.78125 -2.390625 -5.78125z" fill-rule="nonzero"/><path fill="#000000" d="m22.688444 153.44687l0 3.1875q-1.515625 0.03125 -2.46875 0.8125q-0.9375 0.78125 -1.25 2.125q-0.3125 1.328125 -0.328125 4.59375q-0.015625 3.265625 -0.125 4.296875q-0.171875 1.671875 -0.65625 2.65625q-0.46875 0.984375 -1.171875 1.578125q-0.70312595 0.59375 -1.796876 0.90625q-0.75 0.21875 -2.421875 0.21875l-1.09375 0l0 -3.0625l0.609375 0q2.03125 0 2.6875 -0.734375q0.671875 -0.734375 0.671875 -3.296875q0 -4.890625 0.171875 -6.1875q0.3125 -2.171875 1.250001 -3.46875q0.9375 -1.296875 2.65625 -2.03125q-2.25 -1.0625 -3.171875 -2.828125q-0.90625095 -1.78125 -0.90625095 -5.96875q0 -3.8125 -0.109375 -4.5625q-0.125 -1.296875 -0.765625 -1.8125q-0.640625 -0.53125 -2.484375 -0.53125l-0.609375 0l0 -3.0625l1.09375 0q1.90625 0 2.765625 0.3125q1.250001 0.4375 2.062501 1.453125q0.828125 1.015625 1.078125 2.5625q0.25 1.53125 0.265625 5.046875q0.015625 3.515625 0.328125 4.859375q0.3125 1.328125 1.25 2.109375q0.953125 0.78125 2.46875 0.828125z" fill-rule="nonzero"/><path fill="#000000" d="m49.81735 158.79062l5.46875 0.921875q-1.0625 3.015625 -3.34375 4.59375q-2.265625 1.5625 -5.6875 1.5625q-5.40625 0 -8.0 -3.53125q-2.0625 -2.84375 -2.0625 -7.15625q0 -5.15625 2.6875 -8.078125q2.703125 -2.921875 6.828125 -2.921875q4.625 0 7.296875 3.0625q2.6875 3.0625 2.5625 9.359375l-13.75 0q0.0625 2.453125 1.328125 3.8125q1.28125 1.34375 3.171875 1.34375q1.28125 0 2.15625 -0.703125q0.890625 -0.703125 1.34375 -2.265625zm0.3125 -5.546875q-0.0625 -2.375 -1.234375 -3.609375q-1.171875 -1.25 -2.859375 -1.25q-1.796875 0 -2.96875 1.3125q-1.171875 1.3125 -1.140625 3.546875l8.203125 0zm9.917969 12.15625l0 -28.640625l5.484379 0l0 28.640625l-5.484379 0zm9.175785 -5.921875l5.515625 -0.84375q0.34375 1.609375 1.421875 2.4375q1.078125 0.828125 3.0 0.828125q2.140625 0 3.203125 -0.78125q0.734375 -0.546875 0.734375 -1.46875q0 -0.625 -0.390625 -1.03125q-0.421875 -0.390625 -1.84375 -0.71875q-6.640625 -1.46875 -8.421875 -2.671875q-2.453125 -1.6875 -2.453125 -4.671875q0 -2.703125 2.125 -4.53125q2.125 -1.84375 6.609375 -1.84375q4.25 0 6.3125 1.390625q2.078125 1.390625 2.859375 4.109375l-5.171875 0.953125q-0.328125 -1.21875 -1.265625 -1.859375q-0.921875 -0.640625 -2.640625 -0.640625q-2.171875 0 -3.109375 0.609375q-0.625 0.421875 -0.625 1.109375q0 0.578125 0.546875 1.0q0.75 0.546875 5.125 1.546875q4.390625 0.984375 6.125 2.4375q1.71875 1.453125 1.71875 4.078125q0 2.84375 -2.390625 4.90625q-2.375 2.046875 -7.046875 2.046875q-4.234375 0 -6.703125 -1.71875q-2.46875 -1.71875 -3.234375 -4.671875zm36.19922 -0.6875l5.46875 0.921875q-1.0625 3.015625 -3.34375 4.59375q-2.265625 1.5625 -5.6875 1.5625q-5.40625 0 -8.0 -3.53125q-2.0625 -2.84375 -2.0625 -7.15625q0 -5.15625 2.6875 -8.078125q2.703125 -2.921875 6.828125 -2.921875q4.625 0 7.296875 3.0625q2.6875 3.0625 2.5625 9.359375l-13.75 0q0.0625 2.453125 1.328125 3.8125q1.28125 1.34375 3.171875 1.34375q1.28125 0 2.15625 -0.703125q0.890625 -0.703125 1.34375 -2.265625zm0.3125 -5.546875q-0.0625 -2.375 -1.234375 -3.609375q-1.171875 -1.25 -2.859375 -1.25q-1.796875 0 -2.96875 1.3125q-1.171875 1.3125 -1.140625 3.546875l8.203125 0zm21.03125 -11.40625l0 -5.078125l5.484375 0l0 5.078125l-5.484375 0zm0 23.5625l0 -20.75l5.484375 0l0 20.75l-5.484375 0zm8.707031 -20.75l3.046875 0l0 -1.5625q0 -2.609375 0.546875 -3.890625q0.5625 -1.296875 2.0625 -2.109375q1.5 -0.8125 3.78125 -0.8125q2.34375 0 4.59375 0.703125l-0.75 3.828125q-1.3125 -0.3125 -2.515625 -0.3125q-1.1875 0 -1.71875 0.5625q-0.515625 0.546875 -0.515625 2.140625l0 1.453125l4.109375 0l0 4.328125l-4.109375 0l0 16.421875l-5.484375 0l0 -16.421875l-3.046875 0l0 -4.328125z" fill-rule="nonzero"/><path fill="#000000" d="m168.79782 173.82187q-2.90625 -3.671875 -4.921875 -8.59375q-2.015625 -4.921875 -2.015625 -10.203125q0 -4.640625 1.5 -8.90625q1.765625 -4.9375 5.4375 -9.84375l2.515625 0q-2.359375 4.0625 -3.125 5.796875q-1.1875 2.703125 -1.875 5.625q-0.84375 3.65625 -0.84375 7.34375q0 9.40625 5.84375 18.78125l-2.515625 0z" fill-rule="nonzero"/><path fill="#000000" d="m188.39938 157.8375l3.546875 0.375q-1.328125 3.890625 -3.78125 5.78125q-2.453125 1.875 -5.578125 1.875q-3.375 0 -5.484375 -2.1875q-2.09375 -2.1875 -2.09375 -6.109375q0 -3.40625 1.34375 -6.6875q1.34375 -3.28125 3.859375 -4.984375q2.515625 -1.71875 5.734375 -1.71875q3.34375 0 5.296875 1.890625q1.953125 1.890625 1.953125 4.984375l-3.484375 0.234375q-0.015625 -1.96875 -1.140625 -3.078125q-1.125 -1.109375 -2.953125 -1.109375q-2.140625 0 -3.703125 1.34375q-1.5625 1.34375 -2.453125 4.09375q-0.875 2.734375 -0.875 5.28125q0 2.65625 1.171875 3.984375q1.171875 1.328125 2.890625 1.328125q1.71875 0 3.28125 -1.3125q1.578125 -1.3125 2.46875 -3.984375zm6.3125 -0.3125q0 -6.078125 3.578125 -10.0625q2.953125 -3.28125 7.734375 -3.28125q3.75 0 6.046875 2.34375q2.296875 2.34375 2.296875 6.328125q0 3.578125 -1.453125 6.65625q-1.4375 3.078125 -4.109375 4.71875q-2.671875 1.640625 -5.609375 1.640625q-2.421875 0 -4.40625 -1.03125q-1.984375 -1.046875 -3.03125 -2.9375q-1.046875 -1.890625 -1.046875 -4.375zm3.53125 -0.34375q0 2.921875 1.40625 4.4375q1.40625 1.515625 3.578125 1.515625q1.140625 0 2.25 -0.453125q1.109375 -0.46875 2.0625 -1.40625q0.96875 -0.9375 1.640625 -2.140625q0.671875 -1.203125 1.078125 -2.578125q0.609375 -1.9375 0.609375 -3.71875q0 -2.8125 -1.421875 -4.359375q-1.40625 -1.5625 -3.5625 -1.5625q-1.65625 0 -3.03125 0.796875q-1.359375 0.796875 -2.46875 2.328125q-1.09375 1.515625 -1.625 3.53125q-0.515625 2.015625 -0.515625 3.609375zm18.089844 8.21875l4.34375 -20.75l3.203125 0l-0.765625 3.625q2.09375 -2.140625 3.90625 -3.109375q1.8125 -0.984375 3.703125 -0.984375q2.53125 0 3.953125 1.375q1.4375 1.359375 1.4375 3.65625q0 1.140625 -0.5 3.625l-2.640625 12.5625l-3.53125 0l2.75 -13.140625q0.40625 -1.921875 0.40625 -2.84375q0 -1.03125 -0.71875 -1.671875q-0.703125 -0.640625 -2.046875 -0.640625q-2.71875 0 -4.84375 1.953125q-2.109375 1.953125 -3.109375 6.6875l-2.015625 9.65625l-3.53125 0zm36.23047 -3.015625q-3.03125 3.484375 -6.328125 3.484375q-2.953125 0 -4.921875 -2.171875q-1.953125 -2.1875 -1.953125 -6.328125q0 -3.78125 1.546875 -6.921875q1.5625 -3.140625 3.890625 -4.703125q2.34375 -1.5625 4.6875 -1.5625q3.859375 0 5.828125 3.734375l2.34375 -11.15625l3.515625 0l-5.96875 28.640625l-3.265625 0l0.625 -3.015625zm-9.6875 -5.671875q0 2.15625 0.421875 3.40625q0.4375 1.25 1.46875 2.09375q1.046875 0.828125 2.484375 0.828125q2.40625 0 4.359375 -2.5q2.609375 -3.328125 2.609375 -8.203125q0 -2.46875 -1.296875 -3.84375q-1.28125 -1.390625 -3.234375 -1.390625q-1.265625 0 -2.3125 0.5625q-1.046875 0.5625 -2.078125 1.921875q-1.015625 1.359375 -1.71875 3.453125q-0.703125 2.078125 -0.703125 3.671875zm22.964844 -15.9375l0.84375 -4.015625l3.515625 0l-0.84375 4.015625l-3.515625 0zm-5.15625 24.625l4.34375 -20.75l3.53125 0l-4.328125 20.75l-3.546875 0zm23.339844 -7.5625l3.546875 0.375q-1.328125 3.890625 -3.78125 5.78125q-2.453125 1.875 -5.578125 1.875q-3.375 0 -5.484375 -2.1875q-2.09375 -2.1875 -2.09375 -6.109375q0 -3.40625 1.34375 -6.6875q1.34375 -3.28125 3.859375 -4.984375q2.515625 -1.71875 5.734375 -1.71875q3.34375 0 5.296875 1.890625q1.953125 1.890625 1.953125 4.984375l-3.484375 0.234375q-0.015625 -1.96875 -1.140625 -3.078125q-1.125 -1.109375 -2.953125 -1.109375q-2.140625 0 -3.703125 1.34375q-1.5625 1.34375 -2.453125 4.09375q-0.875 2.734375 -0.875 5.28125q0 2.65625 1.171875 3.984375q1.171875 1.328125 2.890625 1.328125q1.71875 0 3.28125 -1.3125q1.578125 -1.3125 2.46875 -3.984375zm10.703125 -17.0625l0.84375 -4.015625l3.515625 0l-0.84375 4.015625l-3.515625 0zm-5.15625 24.625l4.34375 -20.75l3.53125 0l-4.328125 20.75l-3.546875 0zm9.652344 -7.875q0 -6.078125 3.578125 -10.0625q2.953125 -3.28125 7.734375 -3.28125q3.75 0 6.046875 2.34375q2.296875 2.34375 2.296875 6.328125q0 3.578125 -1.453125 6.65625q-1.4375 3.078125 -4.109375 4.71875q-2.671875 1.640625 -5.609375 1.640625q-2.421875 0 -4.40625 -1.03125q-1.984375 -1.046875 -3.03125 -2.9375q-1.046875 -1.890625 -1.046875 -4.375zm3.53125 -0.34375q0 2.921875 1.40625 4.4375q1.40625 1.515625 3.578125 1.515625q1.140625 0 2.25 -0.453125q1.109375 -0.46875 2.0625 -1.40625q0.96875 -0.9375 1.640625 -2.140625q0.671875 -1.203125 1.078125 -2.578125q0.609375 -1.9375 0.609375 -3.71875q0 -2.8125 -1.421875 -4.359375q-1.40625 -1.5625 -3.5625 -1.5625q-1.65625 0 -3.03125 0.796875q-1.359375 0.796875 -2.46875 2.328125q-1.09375 1.515625 -1.625 3.53125q-0.515625 2.015625 -0.515625 3.609375zm5.28125 -15.046875l3.671875 -5.375l4.453125 0l-5.203125 5.375l-2.921875 0zm12.808594 23.265625l4.34375 -20.75l3.203125 0l-0.765625 3.625q2.09375 -2.140625 3.90625 -3.109375q1.8125 -0.984375 3.703125 -0.984375q2.53125 0 3.953125 1.375q1.4375 1.359375 1.4375 3.65625q0 1.140625 -0.5 3.625l-2.640625 12.5625l-3.53125 0l2.75 -13.140625q0.40625 -1.921875 0.40625 -2.84375q0 -1.03125 -0.71875 -1.671875q-0.703125 -0.640625 -2.046875 -0.640625q-2.71875 0 -4.84375 1.953125q-2.109375 1.953125 -3.109375 6.6875l-2.015625 9.65625l-3.53125 0z" fill-rule="nonzero"/><path fill="#000000" d="m346.70016 173.82187l-2.515625 0q5.84375 -9.375 5.84375 -18.78125q0 -3.671875 -0.84375 -7.28125q-0.65625 -2.921875 -1.859375 -5.625q-0.75 -1.75 -3.140625 -5.859375l2.515625 0q3.671875 4.90625 5.4375 9.84375q1.5 4.265625 1.5 8.90625q0 5.28125 -2.03125 10.203125q-2.015625 4.921875 -4.90625 8.59375zm20.605469 -20.375q1.515625 -0.046875 2.453125 -0.8125q0.953125 -0.765625 1.265625 -2.109375q0.3125 -1.359375 0.328125 -4.609375q0.015625 -3.265625 0.125 -4.3125q0.171875 -1.640625 0.640625 -2.625q0.484375 -1.0 1.1875 -1.59375q0.703125 -0.59375 1.796875 -0.90625q0.75 -0.203125 2.421875 -0.203125l1.09375 0l0 3.0625l-0.609375 0q-2.03125 0 -2.703125 0.734375q-0.65625 0.734375 -0.65625 3.28125q0 5.109375 -0.203125 6.453125q-0.359375 2.09375 -1.21875 3.234375q-0.84375 1.125 -2.65625 2.0q2.15625 0.90625 3.109375 2.75q0.96875 1.84375 0.96875 6.046875q0 3.8125 0.078125 4.53125q0.15625 1.328125 0.796875 1.859375q0.640625 0.53125 2.484375 0.53125l0.609375 0l0 3.0625l-1.09375 0q-1.90625 0 -2.765625 -0.3125q-1.25 -0.453125 -2.078125 -1.46875q-0.8125 -1.0 -1.0625 -2.546875q-0.25 -1.53125 -0.265625 -5.046875q-0.015625 -3.515625 -0.328125 -4.859375q-0.3125 -1.359375 -1.265625 -2.140625q-0.9375 -0.78125 -2.453125 -0.8125l0 -3.1875z" fill-rule="nonzero"/><path fill="#ff0000" d="m136.47836 192.92l0 -8.40625l-1.453125 0l0 -1.265625l1.453125 0l0 -1.03125q0 -0.96875 0.171875 -1.453125q0.234375 -0.640625 0.828125 -1.03125q0.59375 -0.390625 1.671875 -0.390625q0.6875 0 1.53125 0.15625l-0.25 1.4375q-0.5 -0.09375 -0.953125 -0.09375q-0.75 0 -1.0625 0.328125q-0.3125 0.3125 -0.3125 1.1875l0 0.890625l1.890625 0l0 1.265625l-1.890625 0l0 8.40625l-1.625 0zm11.105179 -1.1875q-0.921875 0.765625 -1.765625 1.09375q-0.828125 0.3125 -1.796875 0.3125q-1.59375 0 -2.453125 -0.78125q-0.859375 -0.78125 -0.859375 -1.984375q0 -0.71875 0.328125 -1.296875q0.328125 -0.59375 0.84375 -0.9375q0.53125 -0.359375 1.1875 -0.546875q0.46875 -0.125 1.453125 -0.25q1.984375 -0.234375 2.921875 -0.5625q0.015625 -0.34375 0.015625 -0.421875q0 -1.0 -0.46875 -1.421875q-0.625 -0.546875 -1.875 -0.546875q-1.15625 0 -1.703125 0.40625q-0.546875 0.40625 -0.8125 1.421875l-1.609375 -0.21875q0.21875 -1.015625 0.71875 -1.640625q0.5 -0.640625 1.453125 -0.984375q0.953125 -0.34375 2.1875 -0.34375q1.25 0 2.015625 0.296875q0.78125 0.28125 1.140625 0.734375q0.375 0.4375 0.515625 1.109375q0.078125 0.421875 0.078125 1.515625l0 2.1875q0 2.28125 0.109375 2.890625q0.109375 0.59375 0.40625 1.15625l-1.703125 0q-0.265625 -0.515625 -0.328125 -1.1875zm-0.140625 -3.671875q-0.890625 0.375 -2.671875 0.625q-1.015625 0.140625 -1.4375 0.328125q-0.421875 0.1875 -0.65625 0.53125q-0.21875 0.34375 -0.21875 0.78125q0 0.65625 0.5 1.09375q0.5 0.4375 1.453125 0.4375q0.9375 0 1.671875 -0.40625q0.75 -0.421875 1.09375 -1.140625q0.265625 -0.5625 0.265625 -1.640625l0 -0.609375zm4.156967 4.859375l0 -13.359375l1.640625 0l0 13.359375l-1.640625 0zm3.5354462 -2.890625l1.625 -0.25q0.125 0.96875 0.75 1.5q0.625 0.515625 1.75 0.515625q1.125 0 1.671875 -0.453125q0.546875 -0.46875 0.546875 -1.09375q0 -0.546875 -0.484375 -0.875q-0.328125 -0.21875 -1.671875 -0.546875q-1.8125 -0.46875 -2.515625 -0.796875q-0.6875 -0.328125 -1.046875 -0.90625q-0.359375 -0.59375 -0.359375 -1.3125q0 -0.640625 0.296875 -1.1875q0.296875 -0.5625 0.8125 -0.921875q0.375 -0.28125 1.03125 -0.46875q0.671875 -0.203125 1.421875 -0.203125q1.140625 0 2.0 0.328125q0.859375 0.328125 1.265625 0.890625q0.421875 0.5625 0.578125 1.5l-1.609375 0.21875q-0.109375 -0.75 -0.640625 -1.171875q-0.515625 -0.421875 -1.46875 -0.421875q-1.140625 0 -1.625 0.375q-0.46875 0.375 -0.46875 0.875q0 0.3125 0.1875 0.578125q0.203125 0.265625 0.640625 0.4375q0.234375 0.09375 1.4375 0.421875q1.75 0.453125 2.4375 0.75q0.6875 0.296875 1.078125 0.859375q0.390625 0.5625 0.390625 1.40625q0 0.828125 -0.484375 1.546875q-0.46875 0.71875 -1.375 1.125q-0.90625 0.390625 -2.046875 0.390625q-1.875 0 -2.875 -0.78125q-0.984375 -0.78125 -1.25 -2.328125zm16.609375 -0.21875l1.6875 0.203125q-0.40625 1.484375 -1.484375 2.3125q-1.078125 0.8125 -2.765625 0.8125q-2.125 0 -3.375 -1.296875q-1.234375 -1.3125 -1.234375 -3.671875q0 -2.453125 1.25 -3.796875q1.265625 -1.34375 3.265625 -1.34375q1.9375 0 3.15625 1.328125q1.234375 1.3125 1.234375 3.703125q0 0.15625 0 0.4375l-7.21875 0q0.09375 1.59375 0.90625 2.453125q0.8125 0.84375 2.015625 0.84375q0.90625 0 1.546875 -0.46875q0.640625 -0.484375 1.015625 -1.515625zm-5.390625 -2.65625l5.40625 0q-0.109375 -1.21875 -0.625 -1.828125q-0.78125 -0.953125 -2.03125 -0.953125q-1.125 0 -1.90625 0.765625q-0.765625 0.75 -0.84375 2.015625z" fill-rule="nonzero"/><path fill="#0000ff" d="m210.17337 191.45125l0.234375 1.453125q-0.6875 0.140625 -1.234375 0.140625q-0.890625 0 -1.390625 -0.28125q-0.484375 -0.28125 -0.6875 -0.734375q-0.203125 -0.46875 -0.203125 -1.9375l0 -5.578125l-1.203125 0l0 -1.265625l1.203125 0l0 -2.390625l1.625 -0.984375l0 3.375l1.65625 0l0 1.265625l-1.65625 0l0 5.671875q0 0.6875 0.078125 0.890625q0.09375 0.203125 0.28125 0.328125q0.203125 0.109375 0.578125 0.109375q0.265625 0 0.71875 -0.0625zm1.5895538 1.46875l0 -9.671875l1.46875 0l0 1.46875q0.5625 -1.03125 1.03125 -1.359375q0.484375 -0.328125 1.0625 -0.328125q0.828125 0 1.6875 0.53125l-0.5625 1.515625q-0.609375 -0.359375 -1.203125 -0.359375q-0.546875 0 -0.96875 0.328125q-0.421875 0.328125 -0.609375 0.890625q-0.28125 0.875 -0.28125 1.921875l0 5.0625l-1.625 0zm12.556427 0l0 -1.421875q-1.125 1.640625 -3.0625 1.640625q-0.859375 0 -1.609375 -0.328125q-0.734375 -0.328125 -1.09375 -0.828125q-0.359375 -0.5 -0.5 -1.21875q-0.109375 -0.46875 -0.109375 -1.53125l0 -5.984375l1.640625 0l0 5.359375q0 1.28125 0.109375 1.734375q0.15625 0.640625 0.65625 1.015625q0.5 0.375 1.234375 0.375q0.734375 0 1.375 -0.375q0.65625 -0.390625 0.921875 -1.03125q0.265625 -0.65625 0.265625 -1.890625l0 -5.1875l1.640625 0l0 9.671875l-1.46875 0zm10.672592 -3.109375l1.6875 0.203125q-0.40625 1.484375 -1.484375 2.3125q-1.078125 0.8125 -2.765625 0.8125q-2.125 0 -3.375 -1.296875q-1.234375 -1.3125 -1.234375 -3.671875q0 -2.453125 1.25 -3.796875q1.265625 -1.34375 3.265625 -1.34375q1.9375 0 3.15625 1.328125q1.234375 1.3125 1.234375 3.703125q0 0.15625 0 0.4375l-7.21875 0q0.09375 1.59375 0.90625 2.453125q0.8125 0.84375 2.015625 0.84375q0.90625 0 1.546875 -0.46875q0.640625 -0.484375 1.015625 -1.515625zm-5.390625 -2.65625l5.40625 0q-0.109375 -1.21875 -0.625 -1.828125q-0.78125 -0.953125 -2.03125 -0.953125q-1.125 0 -1.90625 0.765625q-0.765625 0.75 -0.84375 2.015625z" fill-rule="nonzero"/><path fill="#000000" d="m39.02438 210.775l0.84375 -4.015625l3.515625 0l-0.84375 4.015625l-3.515625 0zm-5.15625 24.625l4.34375 -20.75l3.53125 0l-4.328125 20.75l-3.546875 0zm9.027344 0l4.34375 -20.75l3.203125 0l-0.765625 3.625q2.09375 -2.140625 3.90625 -3.109375q1.8125 -0.984375 3.703125 -0.984375q2.53125 0 3.953125 1.375q1.4375 1.359375 1.4375 3.65625q0 1.140625 -0.5 3.625l-2.640625 12.5625l-3.53125 0l2.75 -13.140625q0.40625 -1.921875 0.40625 -2.84375q0 -1.03125 -0.71875 -1.671875q-0.703125 -0.640625 -2.046875 -0.640625q-2.71875 0 -4.84375 1.953125q-2.109375 1.953125 -3.109375 6.6875l-2.015625 9.65625l-3.53125 0zm22.574223 -7.09375l3.546875 -0.21875q0 1.53125 0.46875 2.609375q0.46875 1.0625 1.71875 1.75q1.265625 0.6875 2.9375 0.6875q2.34375 0 3.515625 -0.9375q1.171875 -0.9375 1.171875 -2.203125q0 -0.921875 -0.703125 -1.75q-0.71875 -0.8125 -3.53125 -2.015625q-2.796875 -1.203125 -3.578125 -1.6875q-1.296875 -0.796875 -1.96875 -1.875q-0.65625 -1.09375 -0.65625 -2.5q0 -2.46875 1.953125 -4.21875q1.953125 -1.765625 5.46875 -1.765625q3.90625 0 5.9375 1.8125q2.046875 1.8125 2.125 4.75l-3.453125 0.234375q-0.078125 -1.875 -1.328125 -2.96875q-1.25 -1.09375 -3.546875 -1.09375q-1.828125 0 -2.84375 0.84375q-1.015625 0.84375 -1.015625 1.8125q0 0.984375 0.875 1.71875q0.59375 0.515625 3.03125 1.5625q4.0625 1.765625 5.109375 2.78125q1.6875 1.625 1.6875 3.9375q0 1.546875 -0.953125 3.03125q-0.9375 1.484375 -2.890625 2.375q-1.9375 0.890625 -4.578125 0.890625q-3.59375 0 -6.109375 -1.78125q-2.515625 -1.78125 -2.390625 -5.78125zm27.9375 4.21875l-0.59375 2.890625q-1.265625 0.34375 -2.453125 0.34375q-2.109375 0 -3.359375 -1.046875q-0.9375 -0.78125 -0.9375 -2.125q0 -0.6875 0.5 -3.140625l2.53125 -12.0625l-2.796875 0l0.5625 -2.734375l2.796875 0l1.078125 -5.09375l4.03125 -2.4375l-1.578125 7.53125l3.484375 0l-0.59375 2.734375l-3.453125 0l-2.40625 11.46875q-0.453125 2.1875 -0.453125 2.625q0 0.625 0.359375 0.953125q0.375 0.328125 1.1875 0.328125q1.171875 0 2.09375 -0.234375zm2.8476562 2.875l4.34375 -20.75l3.125 0l-0.890625 4.25q1.609375 -2.40625 3.140625 -3.5625q1.53125 -1.15625 3.140625 -1.15625q1.046875 0 2.59375 0.765625l-1.453125 3.28125q-0.90625 -0.65625 -2.0 -0.65625q-1.859375 0 -3.8125 2.078125q-1.953125 2.0625 -3.0625 7.421875l-1.765625 8.328125l-3.359375 0zm27.476562 -3.75q-3.71875 4.21875 -7.625 4.21875q-2.40625 0 -3.890625 -1.375q-1.46875 -1.375 -1.46875 -3.375q0 -1.3125 0.671875 -4.484375l2.5 -11.984375l3.53125 0l-2.78125 13.265625q-0.34375 1.65625 -0.34375 2.578125q0 1.171875 0.703125 1.828125q0.71875 0.65625 2.109375 0.65625q1.484375 0 2.890625 -0.71875q1.421875 -0.734375 2.4375 -1.953125q1.03125 -1.234375 1.6875 -2.921875q0.421875 -1.0625 0.984375 -3.765625l1.875 -8.96875l3.546875 0l-4.34375 20.75l-3.265625 0l0.78125 -3.75zm22.402344 -3.8125l3.546875 0.375q-1.328125 3.890625 -3.78125 5.78125q-2.453125 1.875 -5.578125 1.875q-3.375 0 -5.484375 -2.1875q-2.09375 -2.1875 -2.09375 -6.109375q0 -3.40625 1.34375 -6.6875q1.34375 -3.28125 3.859375 -4.984375q2.515625 -1.71875 5.734375 -1.71875q3.34375 0 5.296875 1.890625q1.953125 1.890625 1.953125 4.984375l-3.484375 0.234375q-0.015625 -1.96875 -1.140625 -3.078125q-1.125 -1.109375 -2.953125 -1.109375q-2.140625 0 -3.703125 1.34375q-1.5625 1.34375 -2.453125 4.09375q-0.875 2.734375 -0.875 5.28125q0 2.65625 1.171875 3.984375q1.171875 1.328125 2.890625 1.328125q1.71875 0 3.28125 -1.3125q1.578125 -1.3125 2.46875 -3.984375zm20.0 0l3.546875 0.375q-1.328125 3.890625 -3.78125 5.78125q-2.453125 1.875 -5.578125 1.875q-3.375 0 -5.484375 -2.1875q-2.09375 -2.1875 -2.09375 -6.109375q0 -3.40625 1.34375 -6.6875q1.34375 -3.28125 3.859375 -4.984375q2.515625 -1.71875 5.734375 -1.71875q3.34375 0 5.296875 1.890625q1.953125 1.890625 1.953125 4.984375l-3.484375 0.234375q-0.015625 -1.96875 -1.140625 -3.078125q-1.125 -1.109375 -2.953125 -1.109375q-2.140625 0 -3.703125 1.34375q-1.5625 1.34375 -2.453125 4.09375q-0.875 2.734375 -0.875 5.28125q0 2.65625 1.171875 3.984375q1.171875 1.328125 2.890625 1.328125q1.71875 0 3.28125 -1.3125q1.578125 -1.3125 2.46875 -3.984375zm10.703125 -17.0625l0.84375 -4.015625l3.515625 0l-0.84375 4.015625l-3.515625 0zm-5.15625 24.625l4.34375 -20.75l3.53125 0l-4.328125 20.75l-3.546875 0zm9.652344 -7.875q0 -6.078125 3.578125 -10.0625q2.953125 -3.28125 7.734375 -3.28125q3.75 0 6.046875 2.34375q2.296875 2.34375 2.296875 6.328125q0 3.578125 -1.453125 6.65625q-1.4375 3.078125 -4.109375 4.71875q-2.671875 1.640625 -5.609375 1.640625q-2.421875 0 -4.40625 -1.03125q-1.984375 -1.046875 -3.03125 -2.9375q-1.046875 -1.890625 -1.046875 -4.375zm3.53125 -0.34375q0 2.921875 1.40625 4.4375q1.40625 1.515625 3.578125 1.515625q1.140625 0 2.25 -0.453125q1.109375 -0.46875 2.0625 -1.40625q0.96875 -0.9375 1.640625 -2.140625q0.671875 -1.203125 1.078125 -2.578125q0.609375 -1.9375 0.609375 -3.71875q0 -2.8125 -1.421875 -4.359375q-1.40625 -1.5625 -3.5625 -1.5625q-1.65625 0 -3.03125 0.796875q-1.359375 0.796875 -2.46875 2.328125q-1.09375 1.515625 -1.625 3.53125q-0.515625 2.015625 -0.515625 3.609375zm18.089844 8.21875l4.34375 -20.75l3.203125 0l-0.765625 3.625q2.09375 -2.140625 3.90625 -3.109375q1.8125 -0.984375 3.703125 -0.984375q2.53125 0 3.953125 1.375q1.4375 1.359375 1.4375 3.65625q0 1.140625 -0.5 3.625l-2.640625 12.5625l-3.53125 0l2.75 -13.140625q0.40625 -1.921875 0.40625 -2.84375q0 -1.03125 -0.71875 -1.671875q-0.703125 -0.640625 -2.046875 -0.640625q-2.71875 0 -4.84375 1.953125q-2.109375 1.953125 -3.109375 6.6875l-2.015625 9.65625l-3.53125 0zm37.48047 -7.046875l3.4375 0.34375q-0.734375 2.5625 -3.40625 4.875q-2.671875 2.296875 -6.359375 2.296875q-2.296875 0 -4.234375 -1.0625q-1.921875 -1.0625 -2.921875 -3.09375q-1.0 -2.03125 -1.0 -4.640625q0 -3.390625 1.5625 -6.578125q1.578125 -3.203125 4.078125 -4.75q2.5 -1.5625 5.40625 -1.5625q3.71875 0 5.921875 2.3125q2.21875 2.296875 2.21875 6.28125q0 1.53125 -0.265625 3.125l-15.28125 0q-0.078125 0.609375 -0.078125 1.09375q0 2.921875 1.34375 4.453125q1.34375 1.53125 3.265625 1.53125q1.828125 0 3.578125 -1.1875q1.765625 -1.203125 2.734375 -3.4375zm-10.265625 -5.140625l11.640625 0q0.015625 -0.546875 0.015625 -0.78125q0 -2.65625 -1.328125 -4.0625q-1.328125 -1.421875 -3.421875 -1.421875q-2.265625 0 -4.140625 1.5625q-1.859375 1.5625 -2.765625 4.703125zm17.605469 5.09375l3.546875 -0.21875q0 1.53125 0.46875 2.609375q0.46875 1.0625 1.71875 1.75q1.265625 0.6875 2.9375 0.6875q2.34375 0 3.515625 -0.9375q1.171875 -0.9375 1.171875 -2.203125q0 -0.921875 -0.703125 -1.75q-0.71875 -0.8125 -3.53125 -2.015625q-2.796875 -1.203125 -3.578125 -1.6875q-1.296875 -0.796875 -1.96875 -1.875q-0.65625 -1.09375 -0.65625 -2.5q0 -2.46875 1.953125 -4.21875q1.953125 -1.765625 5.46875 -1.765625q3.90625 0 5.9375 1.8125q2.046875 1.8125 2.125 4.75l-3.453125 0.234375q-0.078125 -1.875 -1.328125 -2.96875q-1.25 -1.09375 -3.546875 -1.09375q-1.828125 0 -2.84375 0.84375q-1.015625 0.84375 -1.015625 1.8125q0 0.984375 0.875 1.71875q0.59375 0.515625 3.03125 1.5625q4.0625 1.765625 5.109375 2.78125q1.6875 1.625 1.6875 3.9375q0 1.546875 -0.953125 3.03125q-0.9375 1.484375 -2.890625 2.375q-1.9375 0.890625 -4.578125 0.890625q-3.59375 0 -6.109375 -1.78125q-2.515625 -1.78125 -2.390625 -5.78125z" fill-rule="nonzero"/><path fill="#000000" d="m22.688444 271.44687l0 3.1875q-1.515625 0.03125 -2.46875 0.8125q-0.9375 0.78125 -1.25 2.125q-0.3125 1.328125 -0.328125 4.59375q-0.015625 3.265625 -0.125 4.296875q-0.171875 1.671875 -0.65625 2.65625q-0.46875 0.984375 -1.171875 1.578125q-0.70312595 0.59375 -1.796876 0.90625q-0.75 0.21875 -2.421875 0.21875l-1.09375 0l0 -3.0625l0.609375 0q2.03125 0 2.6875 -0.734375q0.671875 -0.734375 0.671875 -3.296875q0 -4.890625 0.171875 -6.1875q0.3125 -2.171875 1.250001 -3.46875q0.9375 -1.296875 2.65625 -2.03125q-2.25 -1.0625 -3.171875 -2.828125q-0.90625095 -1.78125 -0.90625095 -5.96875q0 -3.8125 -0.109375 -4.5625q-0.125 -1.296875 -0.765625 -1.8125q-0.640625 -0.53125 -2.484375 -0.53125l-0.609375 0l0 -3.0625l1.09375 0q1.90625 0 2.765625 0.3125q1.250001 0.4375 2.062501 1.453125q0.828125 1.015625 1.078125 2.5625q0.25 1.53125 0.265625 5.046875q0.015625 3.515625 0.328125 4.859375q0.3125 1.328125 1.25 2.109375q0.953125 0.78125 2.46875 0.828125z" fill-rule="nonzero"/><path fill="#000000" d="m49.81735 276.79062l5.46875 0.921875q-1.0625 3.015625 -3.34375 4.59375q-2.265625 1.5625 -5.6875 1.5625q-5.40625 0 -8.0 -3.53125q-2.0625 -2.84375 -2.0625 -7.15625q0 -5.15625 2.6875 -8.078125q2.703125 -2.921875 6.828125 -2.921875q4.625 0 7.296875 3.0625q2.6875 3.0625 2.5625 9.359375l-13.75 0q0.0625 2.453125 1.328125 3.8125q1.28125 1.34375 3.171875 1.34375q1.28125 0 2.15625 -0.703125q0.890625 -0.703125 1.34375 -2.265625zm0.3125 -5.546875q-0.0625 -2.375 -1.234375 -3.609375q-1.171875 -1.25 -2.859375 -1.25q-1.796875 0 -2.96875 1.3125q-1.171875 1.3125 -1.140625 3.546875l8.203125 0zm9.917969 12.15625l0 -28.640625l5.484379 0l0 28.640625l-5.484379 0zm9.175785 -5.921875l5.515625 -0.84375q0.34375 1.609375 1.421875 2.4375q1.078125 0.828125 3.0 0.828125q2.140625 0 3.203125 -0.78125q0.734375 -0.546875 0.734375 -1.46875q0 -0.625 -0.390625 -1.03125q-0.421875 -0.390625 -1.84375 -0.71875q-6.640625 -1.46875 -8.421875 -2.671875q-2.453125 -1.6875 -2.453125 -4.671875q0 -2.703125 2.125 -4.53125q2.125 -1.84375 6.609375 -1.84375q4.25 0 6.3125 1.390625q2.078125 1.390625 2.859375 4.109375l-5.171875 0.953125q-0.328125 -1.21875 -1.265625 -1.859375q-0.921875 -0.640625 -2.640625 -0.640625q-2.171875 0 -3.109375 0.609375q-0.625 0.421875 -0.625 1.109375q0 0.578125 0.546875 1.0q0.75 0.546875 5.125 1.546875q4.390625 0.984375 6.125 2.4375q1.71875 1.453125 1.71875 4.078125q0 2.84375 -2.390625 4.90625q-2.375 2.046875 -7.046875 2.046875q-4.234375 0 -6.703125 -1.71875q-2.46875 -1.71875 -3.234375 -4.671875zm36.19922 -0.6875l5.46875 0.921875q-1.0625 3.015625 -3.34375 4.59375q-2.265625 1.5625 -5.6875 1.5625q-5.40625 0 -8.0 -3.53125q-2.0625 -2.84375 -2.0625 -7.15625q0 -5.15625 2.6875 -8.078125q2.703125 -2.921875 6.828125 -2.921875q4.625 0 7.296875 3.0625q2.6875 3.0625 2.5625 9.359375l-13.75 0q0.0625 2.453125 1.328125 3.8125q1.28125 1.34375 3.171875 1.34375q1.28125 0 2.15625 -0.703125q0.890625 -0.703125 1.34375 -2.265625zm0.3125 -5.546875q-0.0625 -2.375 -1.234375 -3.609375q-1.171875 -1.25 -2.859375 -1.25q-1.796875 0 -2.96875 1.3125q-1.171875 1.3125 -1.140625 3.546875l8.203125 0zm21.03125 -11.40625l0 -5.078125l5.484375 0l0 5.078125l-5.484375 0zm0 23.5625l0 -20.75l5.484375 0l0 20.75l-5.484375 0zm8.707031 -20.75l3.046875 0l0 -1.5625q0 -2.609375 0.546875 -3.890625q0.5625 -1.296875 2.0625 -2.109375q1.5 -0.8125 3.78125 -0.8125q2.34375 0 4.59375 0.703125l-0.75 3.828125q-1.3125 -0.3125 -2.515625 -0.3125q-1.1875 0 -1.71875 0.5625q-0.515625 0.546875 -0.515625 2.140625l0 1.453125l4.109375 0l0 4.328125l-4.109375 0l0 16.421875l-5.484375 0l0 -16.421875l-3.046875 0l0 -4.328125z" fill-rule="nonzero"/><path fill="#000000" d="m168.79782 291.82187q-2.90625 -3.671875 -4.921875 -8.59375q-2.015625 -4.921875 -2.015625 -10.203125q0 -4.640625 1.5 -8.90625q1.765625 -4.9375 5.4375 -9.84375l2.515625 0q-2.359375 4.0625 -3.125 5.796875q-1.1875 2.703125 -1.875 5.625q-0.84375 3.65625 -0.84375 7.34375q0 9.40625 5.84375 18.78125l-2.515625 0z" fill-rule="nonzero"/><path fill="#000000" d="m188.39938 275.8375l3.546875 0.375q-1.328125 3.890625 -3.78125 5.78125q-2.453125 1.875 -5.578125 1.875q-3.375 0 -5.484375 -2.1875q-2.09375 -2.1875 -2.09375 -6.109375q0 -3.40625 1.34375 -6.6875q1.34375 -3.28125 3.859375 -4.984375q2.515625 -1.71875 5.734375 -1.71875q3.34375 0 5.296875 1.890625q1.953125 1.890625 1.953125 4.984375l-3.484375 0.234375q-0.015625 -1.96875 -1.140625 -3.078125q-1.125 -1.109375 -2.953125 -1.109375q-2.140625 0 -3.703125 1.34375q-1.5625 1.34375 -2.453125 4.09375q-0.875 2.734375 -0.875 5.28125q0 2.65625 1.171875 3.984375q1.171875 1.328125 2.890625 1.328125q1.71875 0 3.28125 -1.3125q1.578125 -1.3125 2.46875 -3.984375zm6.3125 -0.3125q0 -6.078125 3.578125 -10.0625q2.953125 -3.28125 7.734375 -3.28125q3.75 0 6.046875 2.34375q2.296875 2.34375 2.296875 6.328125q0 3.578125 -1.453125 6.65625q-1.4375 3.078125 -4.109375 4.71875q-2.671875 1.640625 -5.609375 1.640625q-2.421875 0 -4.40625 -1.03125q-1.984375 -1.046875 -3.03125 -2.9375q-1.046875 -1.890625 -1.046875 -4.375zm3.53125 -0.34375q0 2.921875 1.40625 4.4375q1.40625 1.515625 3.578125 1.515625q1.140625 0 2.25 -0.453125q1.109375 -0.46875 2.0625 -1.40625q0.96875 -0.9375 1.640625 -2.140625q0.671875 -1.203125 1.078125 -2.578125q0.609375 -1.9375 0.609375 -3.71875q0 -2.8125 -1.421875 -4.359375q-1.40625 -1.5625 -3.5625 -1.5625q-1.65625 0 -3.03125 0.796875q-1.359375 0.796875 -2.46875 2.328125q-1.09375 1.515625 -1.625 3.53125q-0.515625 2.015625 -0.515625 3.609375zm18.089844 8.21875l4.34375 -20.75l3.203125 0l-0.765625 3.625q2.09375 -2.140625 3.90625 -3.109375q1.8125 -0.984375 3.703125 -0.984375q2.53125 0 3.953125 1.375q1.4375 1.359375 1.4375 3.65625q0 1.140625 -0.5 3.625l-2.640625 12.5625l-3.53125 0l2.75 -13.140625q0.40625 -1.921875 0.40625 -2.84375q0 -1.03125 -0.71875 -1.671875q-0.703125 -0.640625 -2.046875 -0.640625q-2.71875 0 -4.84375 1.953125q-2.109375 1.953125 -3.109375 6.6875l-2.015625 9.65625l-3.53125 0zm36.23047 -3.015625q-3.03125 3.484375 -6.328125 3.484375q-2.953125 0 -4.921875 -2.171875q-1.953125 -2.1875 -1.953125 -6.328125q0 -3.78125 1.546875 -6.921875q1.5625 -3.140625 3.890625 -4.703125q2.34375 -1.5625 4.6875 -1.5625q3.859375 0 5.828125 3.734375l2.34375 -11.15625l3.515625 0l-5.96875 28.640625l-3.265625 0l0.625 -3.015625zm-9.6875 -5.671875q0 2.15625 0.421875 3.40625q0.4375 1.25 1.46875 2.09375q1.046875 0.828125 2.484375 0.828125q2.40625 0 4.359375 -2.5q2.609375 -3.328125 2.609375 -8.203125q0 -2.46875 -1.296875 -3.84375q-1.28125 -1.390625 -3.234375 -1.390625q-1.265625 0 -2.3125 0.5625q-1.046875 0.5625 -2.078125 1.921875q-1.015625 1.359375 -1.71875 3.453125q-0.703125 2.078125 -0.703125 3.671875zm22.964844 -15.9375l0.84375 -4.015625l3.515625 0l-0.84375 4.015625l-3.515625 0zm-5.15625 24.625l4.34375 -20.75l3.53125 0l-4.328125 20.75l-3.546875 0zm23.339844 -7.5625l3.546875 0.375q-1.328125 3.890625 -3.78125 5.78125q-2.453125 1.875 -5.578125 1.875q-3.375 0 -5.484375 -2.1875q-2.09375 -2.1875 -2.09375 -6.109375q0 -3.40625 1.34375 -6.6875q1.34375 -3.28125 3.859375 -4.984375q2.515625 -1.71875 5.734375 -1.71875q3.34375 0 5.296875 1.890625q1.953125 1.890625 1.953125 4.984375l-3.484375 0.234375q-0.015625 -1.96875 -1.140625 -3.078125q-1.125 -1.109375 -2.953125 -1.109375q-2.140625 0 -3.703125 1.34375q-1.5625 1.34375 -2.453125 4.09375q-0.875 2.734375 -0.875 5.28125q0 2.65625 1.171875 3.984375q1.171875 1.328125 2.890625 1.328125q1.71875 0 3.28125 -1.3125q1.578125 -1.3125 2.46875 -3.984375zm10.703125 -17.0625l0.84375 -4.015625l3.515625 0l-0.84375 4.015625l-3.515625 0zm-5.15625 24.625l4.34375 -20.75l3.53125 0l-4.328125 20.75l-3.546875 0zm9.652344 -7.875q0 -6.078125 3.578125 -10.0625q2.953125 -3.28125 7.734375 -3.28125q3.75 0 6.046875 2.34375q2.296875 2.34375 2.296875 6.328125q0 3.578125 -1.453125 6.65625q-1.4375 3.078125 -4.109375 4.71875q-2.671875 1.640625 -5.609375 1.640625q-2.421875 0 -4.40625 -1.03125q-1.984375 -1.046875 -3.03125 -2.9375q-1.046875 -1.890625 -1.046875 -4.375zm3.53125 -0.34375q0 2.921875 1.40625 4.4375q1.40625 1.515625 3.578125 1.515625q1.140625 0 2.25 -0.453125q1.109375 -0.46875 2.0625 -1.40625q0.96875 -0.9375 1.640625 -2.140625q0.671875 -1.203125 1.078125 -2.578125q0.609375 -1.9375 0.609375 -3.71875q0 -2.8125 -1.421875 -4.359375q-1.40625 -1.5625 -3.5625 -1.5625q-1.65625 0 -3.03125 0.796875q-1.359375 0.796875 -2.46875 2.328125q-1.09375 1.515625 -1.625 3.53125q-0.515625 2.015625 -0.515625 3.609375zm5.28125 -15.046875l3.671875 -5.375l4.453125 0l-5.203125 5.375l-2.921875 0zm12.808594 23.265625l4.34375 -20.75l3.203125 0l-0.765625 3.625q2.09375 -2.140625 3.90625 -3.109375q1.8125 -0.984375 3.703125 -0.984375q2.53125 0 3.953125 1.375q1.4375 1.359375 1.4375 3.65625q0 1.140625 -0.5 3.625l-2.640625 12.5625l-3.53125 0l2.75 -13.140625q0.40625 -1.921875 0.40625 -2.84375q0 -1.03125 -0.71875 -1.671875q-0.703125 -0.640625 -2.046875 -0.640625q-2.71875 0 -4.84375 1.953125q-2.109375 1.953125 -3.109375 6.6875l-2.015625 9.65625l-3.53125 0z" fill-rule="nonzero"/><path fill="#000000" d="m346.70016 291.82187l-2.515625 0q5.84375 -9.375 5.84375 -18.78125q0 -3.671875 -0.84375 -7.28125q-0.65625 -2.921875 -1.859375 -5.625q-0.75 -1.75 -3.140625 -5.859375l2.515625 0q3.671875 4.90625 5.4375 9.84375q1.5 4.265625 1.5 8.90625q0 5.28125 -2.03125 10.203125q-2.015625 4.921875 -4.90625 8.59375zm20.605469 -20.375q1.515625 -0.046875 2.453125 -0.8125q0.953125 -0.765625 1.265625 -2.109375q0.3125 -1.359375 0.328125 -4.609375q0.015625 -3.265625 0.125 -4.3125q0.171875 -1.640625 0.640625 -2.625q0.484375 -1.0 1.1875 -1.59375q0.703125 -0.59375 1.796875 -0.90625q0.75 -0.203125 2.421875 -0.203125l1.09375 0l0 3.0625l-0.609375 0q-2.03125 0 -2.703125 0.734375q-0.65625 0.734375 -0.65625 3.28125q0 5.109375 -0.203125 6.453125q-0.359375 2.09375 -1.21875 3.234375q-0.84375 1.125 -2.65625 2.0q2.15625 0.90625 3.109375 2.75q0.96875 1.84375 0.96875 6.046875q0 3.8125 0.078125 4.53125q0.15625 1.328125 0.796875 1.859375q0.640625 0.53125 2.484375 0.53125l0.609375 0l0 3.0625l-1.09375 0q-1.90625 0 -2.765625 -0.3125q-1.25 -0.453125 -2.078125 -1.46875q-0.8125 -1.0 -1.0625 -2.546875q-0.25 -1.53125 -0.265625 -5.046875q-0.015625 -3.515625 -0.328125 -4.859375q-0.3125 -1.359375 -1.265625 -2.140625q-0.9375 -0.78125 -2.453125 -0.8125l0 -3.1875z" fill-rule="nonzero"/><path fill="#ff0000" d="m136.47836 310.91998l0 -8.40625l-1.453125 0l0 -1.265625l1.453125 0l0 -1.03125q0 -0.96875 0.171875 -1.453125q0.234375 -0.640625 0.828125 -1.03125q0.59375 -0.390625 1.671875 -0.390625q0.6875 0 1.53125 0.15625l-0.25 1.4375q-0.5 -0.09375 -0.953125 -0.09375q-0.75 0 -1.0625 0.328125q-0.3125 0.3125 -0.3125 1.1875l0 0.890625l1.890625 0l0 1.265625l-1.890625 0l0 8.40625l-1.625 0zm11.105179 -1.1875q-0.921875 0.765625 -1.765625 1.09375q-0.828125 0.3125 -1.796875 0.3125q-1.59375 0 -2.453125 -0.78125q-0.859375 -0.78125 -0.859375 -1.984375q0 -0.71875 0.328125 -1.296875q0.328125 -0.59375 0.84375 -0.9375q0.53125 -0.359375 1.1875 -0.546875q0.46875 -0.125 1.453125 -0.25q1.984375 -0.234375 2.921875 -0.5625q0.015625 -0.34375 0.015625 -0.421875q0 -1.0 -0.46875 -1.421875q-0.625 -0.546875 -1.875 -0.546875q-1.15625 0 -1.703125 0.40625q-0.546875 0.40625 -0.8125 1.421875l-1.609375 -0.21875q0.21875 -1.015625 0.71875 -1.640625q0.5 -0.640625 1.453125 -0.984375q0.953125 -0.34375 2.1875 -0.34375q1.25 0 2.015625 0.296875q0.78125 0.28125 1.140625 0.734375q0.375 0.4375 0.515625 1.109375q0.078125 0.421875 0.078125 1.515625l0 2.1875q0 2.28125 0.109375 2.890625q0.109375 0.59375 0.40625 1.15625l-1.703125 0q-0.265625 -0.515625 -0.328125 -1.1875zm-0.140625 -3.671875q-0.890625 0.375 -2.671875 0.625q-1.015625 0.140625 -1.4375 0.328125q-0.421875 0.1875 -0.65625 0.53125q-0.21875 0.34375 -0.21875 0.78125q0 0.65625 0.5 1.09375q0.5 0.4375 1.453125 0.4375q0.9375 0 1.671875 -0.40625q0.75 -0.421875 1.09375 -1.140625q0.265625 -0.5625 0.265625 -1.640625l0 -0.609375zm4.156967 4.859375l0 -13.359375l1.640625 0l0 13.359375l-1.640625 0zm3.5354462 -2.890625l1.625 -0.25q0.125 0.96875 0.75 1.5q0.625 0.515625 1.75 0.515625q1.125 0 1.671875 -0.453125q0.546875 -0.46875 0.546875 -1.09375q0 -0.546875 -0.484375 -0.875q-0.328125 -0.21875 -1.671875 -0.546875q-1.8125 -0.46875 -2.515625 -0.796875q-0.6875 -0.328125 -1.046875 -0.90625q-0.359375 -0.59375 -0.359375 -1.3125q0 -0.640625 0.296875 -1.1875q0.296875 -0.5625 0.8125 -0.921875q0.375 -0.28125 1.03125 -0.46875q0.671875 -0.203125 1.421875 -0.203125q1.140625 0 2.0 0.328125q0.859375 0.328125 1.265625 0.890625q0.421875 0.5625 0.578125 1.5l-1.609375 0.21875q-0.109375 -0.75 -0.640625 -1.171875q-0.515625 -0.421875 -1.46875 -0.421875q-1.140625 0 -1.625 0.375q-0.46875 0.375 -0.46875 0.875q0 0.3125 0.1875 0.578125q0.203125 0.265625 0.640625 0.4375q0.234375 0.09375 1.4375 0.421875q1.75 0.453125 2.4375 0.75q0.6875 0.296875 1.078125 0.859375q0.390625 0.5625 0.390625 1.40625q0 0.828125 -0.484375 1.546875q-0.46875 0.71875 -1.375 1.125q-0.90625 0.390625 -2.046875 0.390625q-1.875 0 -2.875 -0.78125q-0.984375 -0.78125 -1.25 -2.328125zm16.609375 -0.21875l1.6875 0.203125q-0.40625 1.484375 -1.484375 2.3125q-1.078125 0.8125 -2.765625 0.8125q-2.125 0 -3.375 -1.296875q-1.234375 -1.3125 -1.234375 -3.671875q0 -2.453125 1.25 -3.796875q1.265625 -1.34375 3.265625 -1.34375q1.9375 0 3.15625 1.328125q1.234375 1.3125 1.234375 3.703125q0 0.15625 0 0.4375l-7.21875 0q0.09375 1.59375 0.90625 2.453125q0.8125 0.84375 2.015625 0.84375q0.90625 0 1.546875 -0.46875q0.640625 -0.484375 1.015625 -1.515625zm-5.390625 -2.65625l5.40625 0q-0.109375 -1.21875 -0.625 -1.828125q-0.78125 -0.953125 -2.03125 -0.953125q-1.125 0 -1.90625 0.765625q-0.765625 0.75 -0.84375 2.015625z" fill-rule="nonzero"/><path fill="#0000ff" d="m210.17337 309.45123l0.234375 1.453125q-0.6875 0.140625 -1.234375 0.140625q-0.890625 0 -1.390625 -0.28125q-0.484375 -0.28125 -0.6875 -0.734375q-0.203125 -0.46875 -0.203125 -1.9375l0 -5.578125l-1.203125 0l0 -1.265625l1.203125 0l0 -2.390625l1.625 -0.984375l0 3.375l1.65625 0l0 1.265625l-1.65625 0l0 5.671875q0 0.6875 0.078125 0.890625q0.09375 0.203125 0.28125 0.328125q0.203125 0.109375 0.578125 0.109375q0.265625 0 0.71875 -0.0625zm1.5895538 1.46875l0 -9.671875l1.46875 0l0 1.46875q0.5625 -1.03125 1.03125 -1.359375q0.484375 -0.328125 1.0625 -0.328125q0.828125 0 1.6875 0.53125l-0.5625 1.515625q-0.609375 -0.359375 -1.203125 -0.359375q-0.546875 0 -0.96875 0.328125q-0.421875 0.328125 -0.609375 0.890625q-0.28125 0.875 -0.28125 1.921875l0 5.0625l-1.625 0zm12.556427 0l0 -1.421875q-1.125 1.640625 -3.0625 1.640625q-0.859375 0 -1.609375 -0.328125q-0.734375 -0.328125 -1.09375 -0.828125q-0.359375 -0.5 -0.5 -1.21875q-0.109375 -0.46875 -0.109375 -1.53125l0 -5.984375l1.640625 0l0 5.359375q0 1.28125 0.109375 1.734375q0.15625 0.640625 0.65625 1.015625q0.5 0.375 1.234375 0.375q0.734375 0 1.375 -0.375q0.65625 -0.390625 0.921875 -1.03125q0.265625 -0.65625 0.265625 -1.890625l0 -5.1875l1.640625 0l0 9.671875l-1.46875 0zm10.672592 -3.109375l1.6875 0.203125q-0.40625 1.484375 -1.484375 2.3125q-1.078125 0.8125 -2.765625 0.8125q-2.125 0 -3.375 -1.296875q-1.234375 -1.3125 -1.234375 -3.671875q0 -2.453125 1.25 -3.796875q1.265625 -1.34375 3.265625 -1.34375q1.9375 0 3.15625 1.328125q1.234375 1.3125 1.234375 3.703125q0 0.15625 0 0.4375l-7.21875 0q0.09375 1.59375 0.90625 2.453125q0.8125 0.84375 2.015625 0.84375q0.90625 0 1.546875 -0.46875q0.640625 -0.484375 1.015625 -1.515625zm-5.390625 -2.65625l5.40625 0q-0.109375 -1.21875 -0.625 -1.828125q-0.78125 -0.953125 -2.03125 -0.953125q-1.125 0 -1.90625 0.765625q-0.765625 0.75 -0.84375 2.015625z" fill-rule="nonzero"/><path fill="#000000" d="m39.02438 328.775l0.84375 -4.015625l3.515625 0l-0.84375 4.015625l-3.515625 0zm-5.15625 24.625l4.34375 -20.75l3.53125 0l-4.328125 20.75l-3.546875 0zm9.027344 0l4.34375 -20.75l3.203125 0l-0.765625 3.625q2.09375 -2.140625 3.90625 -3.109375q1.8125 -0.984375 3.703125 -0.984375q2.53125 0 3.953125 1.375q1.4375 1.359375 1.4375 3.65625q0 1.140625 -0.5 3.625l-2.640625 12.5625l-3.53125 0l2.75 -13.140625q0.40625 -1.921875 0.40625 -2.84375q0 -1.03125 -0.71875 -1.671875q-0.703125 -0.640625 -2.046875 -0.640625q-2.71875 0 -4.84375 1.953125q-2.109375 1.953125 -3.109375 6.6875l-2.015625 9.65625l-3.53125 0zm22.574223 -7.09375l3.546875 -0.21875q0 1.53125 0.46875 2.609375q0.46875 1.0625 1.71875 1.75q1.265625 0.6875 2.9375 0.6875q2.34375 0 3.515625 -0.9375q1.171875 -0.9375 1.171875 -2.203125q0 -0.921875 -0.703125 -1.75q-0.71875 -0.8125 -3.53125 -2.015625q-2.796875 -1.203125 -3.578125 -1.6875q-1.296875 -0.796875 -1.96875 -1.875q-0.65625 -1.09375 -0.65625 -2.5q0 -2.46875 1.953125 -4.21875q1.953125 -1.765625 5.46875 -1.765625q3.90625 0 5.9375 1.8125q2.046875 1.8125 2.125 4.75l-3.453125 0.234375q-0.078125 -1.875 -1.328125 -2.96875q-1.25 -1.09375 -3.546875 -1.09375q-1.828125 0 -2.84375 0.84375q-1.015625 0.84375 -1.015625 1.8125q0 0.984375 0.875 1.71875q0.59375 0.515625 3.03125 1.5625q4.0625 1.765625 5.109375 2.78125q1.6875 1.625 1.6875 3.9375q0 1.546875 -0.953125 3.03125q-0.9375 1.484375 -2.890625 2.375q-1.9375 0.890625 -4.578125 0.890625q-3.59375 0 -6.109375 -1.78125q-2.515625 -1.78125 -2.390625 -5.78125zm27.9375 4.21875l-0.59375 2.890625q-1.265625 0.34375 -2.453125 0.34375q-2.109375 0 -3.359375 -1.046875q-0.9375 -0.78125 -0.9375 -2.125q0 -0.6875 0.5 -3.140625l2.53125 -12.0625l-2.796875 0l0.5625 -2.734375l2.796875 0l1.078125 -5.09375l4.03125 -2.4375l-1.578125 7.53125l3.484375 0l-0.59375 2.734375l-3.453125 0l-2.40625 11.46875q-0.453125 2.1875 -0.453125 2.625q0 0.625 0.359375 0.953125q0.375 0.328125 1.1875 0.328125q1.171875 0 2.09375 -0.234375zm2.8476562 2.875l4.34375 -20.75l3.125 0l-0.890625 4.25q1.609375 -2.40625 3.140625 -3.5625q1.53125 -1.15625 3.140625 -1.15625q1.046875 0 2.59375 0.765625l-1.453125 3.28125q-0.90625 -0.65625 -2.0 -0.65625q-1.859375 0 -3.8125 2.078125q-1.953125 2.0625 -3.0625 7.421875l-1.765625 8.328125l-3.359375 0zm27.476562 -3.75q-3.71875 4.21875 -7.625 4.21875q-2.40625 0 -3.890625 -1.375q-1.46875 -1.375 -1.46875 -3.375q0 -1.3125 0.671875 -4.484375l2.5 -11.984375l3.53125 0l-2.78125 13.265625q-0.34375 1.65625 -0.34375 2.578125q0 1.171875 0.703125 1.828125q0.71875 0.65625 2.109375 0.65625q1.484375 0 2.890625 -0.71875q1.421875 -0.734375 2.4375 -1.953125q1.03125 -1.234375 1.6875 -2.921875q0.421875 -1.0625 0.984375 -3.765625l1.875 -8.96875l3.546875 0l-4.34375 20.75l-3.265625 0l0.78125 -3.75zm22.402344 -3.8125l3.546875 0.375q-1.328125 3.890625 -3.78125 5.78125q-2.453125 1.875 -5.578125 1.875q-3.375 0 -5.484375 -2.1875q-2.09375 -2.1875 -2.09375 -6.109375q0 -3.40625 1.34375 -6.6875q1.34375 -3.28125 3.859375 -4.984375q2.515625 -1.71875 5.734375 -1.71875q3.34375 0 5.296875 1.890625q1.953125 1.890625 1.953125 4.984375l-3.484375 0.234375q-0.015625 -1.96875 -1.140625 -3.078125q-1.125 -1.109375 -2.953125 -1.109375q-2.140625 0 -3.703125 1.34375q-1.5625 1.34375 -2.453125 4.09375q-0.875 2.734375 -0.875 5.28125q0 2.65625 1.171875 3.984375q1.171875 1.328125 2.890625 1.328125q1.71875 0 3.28125 -1.3125q1.578125 -1.3125 2.46875 -3.984375zm20.0 0l3.546875 0.375q-1.328125 3.890625 -3.78125 5.78125q-2.453125 1.875 -5.578125 1.875q-3.375 0 -5.484375 -2.1875q-2.09375 -2.1875 -2.09375 -6.109375q0 -3.40625 1.34375 -6.6875q1.34375 -3.28125 3.859375 -4.984375q2.515625 -1.71875 5.734375 -1.71875q3.34375 0 5.296875 1.890625q1.953125 1.890625 1.953125 4.984375l-3.484375 0.234375q-0.015625 -1.96875 -1.140625 -3.078125q-1.125 -1.109375 -2.953125 -1.109375q-2.140625 0 -3.703125 1.34375q-1.5625 1.34375 -2.453125 4.09375q-0.875 2.734375 -0.875 5.28125q0 2.65625 1.171875 3.984375q1.171875 1.328125 2.890625 1.328125q1.71875 0 3.28125 -1.3125q1.578125 -1.3125 2.46875 -3.984375zm10.703125 -17.0625l0.84375 -4.015625l3.515625 0l-0.84375 4.015625l-3.515625 0zm-5.15625 24.625l4.34375 -20.75l3.53125 0l-4.328125 20.75l-3.546875 0zm9.652344 -7.875q0 -6.078125 3.578125 -10.0625q2.953125 -3.28125 7.734375 -3.28125q3.75 0 6.046875 2.34375q2.296875 2.34375 2.296875 6.328125q0 3.578125 -1.453125 6.65625q-1.4375 3.078125 -4.109375 4.71875q-2.671875 1.640625 -5.609375 1.640625q-2.421875 0 -4.40625 -1.03125q-1.984375 -1.046875 -3.03125 -2.9375q-1.046875 -1.890625 -1.046875 -4.375zm3.53125 -0.34375q0 2.921875 1.40625 4.4375q1.40625 1.515625 3.578125 1.515625q1.140625 0 2.25 -0.453125q1.109375 -0.46875 2.0625 -1.40625q0.96875 -0.9375 1.640625 -2.140625q0.671875 -1.203125 1.078125 -2.578125q0.609375 -1.9375 0.609375 -3.71875q0 -2.8125 -1.421875 -4.359375q-1.40625 -1.5625 -3.5625 -1.5625q-1.65625 0 -3.03125 0.796875q-1.359375 0.796875 -2.46875 2.328125q-1.09375 1.515625 -1.625 3.53125q-0.515625 2.015625 -0.515625 3.609375zm18.089844 8.21875l4.34375 -20.75l3.203125 0l-0.765625 3.625q2.09375 -2.140625 3.90625 -3.109375q1.8125 -0.984375 3.703125 -0.984375q2.53125 0 3.953125 1.375q1.4375 1.359375 1.4375 3.65625q0 1.140625 -0.5 3.625l-2.640625 12.5625l-3.53125 0l2.75 -13.140625q0.40625 -1.921875 0.40625 -2.84375q0 -1.03125 -0.71875 -1.671875q-0.703125 -0.640625 -2.046875 -0.640625q-2.71875 0 -4.84375 1.953125q-2.109375 1.953125 -3.109375 6.6875l-2.015625 9.65625l-3.53125 0zm37.48047 -7.046875l3.4375 0.34375q-0.734375 2.5625 -3.40625 4.875q-2.671875 2.296875 -6.359375 2.296875q-2.296875 0 -4.234375 -1.0625q-1.921875 -1.0625 -2.921875 -3.09375q-1.0 -2.03125 -1.0 -4.640625q0 -3.390625 1.5625 -6.578125q1.578125 -3.203125 4.078125 -4.75q2.5 -1.5625 5.40625 -1.5625q3.71875 0 5.921875 2.3125q2.21875 2.296875 2.21875 6.28125q0 1.53125 -0.265625 3.125l-15.28125 0q-0.078125 0.609375 -0.078125 1.09375q0 2.921875 1.34375 4.453125q1.34375 1.53125 3.265625 1.53125q1.828125 0 3.578125 -1.1875q1.765625 -1.203125 2.734375 -3.4375zm-10.265625 -5.140625l11.640625 0q0.015625 -0.546875 0.015625 -0.78125q0 -2.65625 -1.328125 -4.0625q-1.328125 -1.421875 -3.421875 -1.421875q-2.265625 0 -4.140625 1.5625q-1.859375 1.5625 -2.765625 4.703125zm17.605469 5.09375l3.546875 -0.21875q0 1.53125 0.46875 2.609375q0.46875 1.0625 1.71875 1.75q1.265625 0.6875 2.9375 0.6875q2.34375 0 3.515625 -0.9375q1.171875 -0.9375 1.171875 -2.203125q0 -0.921875 -0.703125 -1.75q-0.71875 -0.8125 -3.53125 -2.015625q-2.796875 -1.203125 -3.578125 -1.6875q-1.296875 -0.796875 -1.96875 -1.875q-0.65625 -1.09375 -0.65625 -2.5q0 -2.46875 1.953125 -4.21875q1.953125 -1.765625 5.46875 -1.765625q3.90625 0 5.9375 1.8125q2.046875 1.8125 2.125 4.75l-3.453125 0.234375q-0.078125 -1.875 -1.328125 -2.96875q-1.25 -1.09375 -3.546875 -1.09375q-1.828125 0 -2.84375 0.84375q-1.015625 0.84375 -1.015625 1.8125q0 0.984375 0.875 1.71875q0.59375 0.515625 3.03125 1.5625q4.0625 1.765625 5.109375 2.78125q1.6875 1.625 1.6875 3.9375q0 1.546875 -0.953125 3.03125q-0.9375 1.484375 -2.890625 2.375q-1.9375 0.890625 -4.578125 0.890625q-3.59375 0 -6.109375 -1.78125q-2.515625 -1.78125 -2.390625 -5.78125z" fill-rule="nonzero"/><path fill="#000000" d="m22.688444 389.44687l0 3.1875q-1.515625 0.03125 -2.46875 0.8125q-0.9375 0.78125 -1.25 2.125q-0.3125 1.328125 -0.328125 4.59375q-0.015625 3.265625 -0.125 4.296875q-0.171875 1.671875 -0.65625 2.65625q-0.46875 0.984375 -1.171875 1.578125q-0.70312595 0.59375 -1.796876 0.90625q-0.75 0.21875 -2.421875 0.21875l-1.09375 0l0 -3.0625l0.609375 0q2.03125 0 2.6875 -0.734375q0.671875 -0.734375 0.671875 -3.296875q0 -4.890625 0.171875 -6.1875q0.3125 -2.171875 1.250001 -3.46875q0.9375 -1.296875 2.65625 -2.03125q-2.25 -1.0625 -3.171875 -2.828125q-0.90625095 -1.78125 -0.90625095 -5.96875q0 -3.8125 -0.109375 -4.5625q-0.125 -1.296875 -0.765625 -1.8125q-0.640625 -0.53125 -2.484375 -0.53125l-0.609375 0l0 -3.0625l1.09375 0q1.90625 0 2.765625 0.3125q1.250001 0.4375 2.062501 1.453125q0.828125 1.015625 1.078125 2.5625q0.25 1.53125 0.265625 5.046875q0.015625 3.515625 0.328125 4.859375q0.3125 1.328125 1.25 2.109375q0.953125 0.78125 2.46875 0.828125z" fill-rule="nonzero"/><path fill="#000000" d="m49.81735 394.79062l5.46875 0.921875q-1.0625 3.015625 -3.34375 4.59375q-2.265625 1.5625 -5.6875 1.5625q-5.40625 0 -8.0 -3.53125q-2.0625 -2.84375 -2.0625 -7.15625q0 -5.15625 2.6875 -8.078125q2.703125 -2.921875 6.828125 -2.921875q4.625 0 7.296875 3.0625q2.6875 3.0625 2.5625 9.359375l-13.75 0q0.0625 2.453125 1.328125 3.8125q1.28125 1.34375 3.171875 1.34375q1.28125 0 2.15625 -0.703125q0.890625 -0.703125 1.34375 -2.265625zm0.3125 -5.546875q-0.0625 -2.375 -1.234375 -3.609375q-1.171875 -1.25 -2.859375 -1.25q-1.796875 0 -2.96875 1.3125q-1.171875 1.3125 -1.140625 3.546875l8.203125 0zm9.917969 12.15625l0 -28.640625l5.484379 0l0 28.640625l-5.484379 0zm9.175785 -5.921875l5.515625 -0.84375q0.34375 1.609375 1.421875 2.4375q1.078125 0.828125 3.0 0.828125q2.140625 0 3.203125 -0.78125q0.734375 -0.546875 0.734375 -1.46875q0 -0.625 -0.390625 -1.03125q-0.421875 -0.390625 -1.84375 -0.71875q-6.640625 -1.46875 -8.421875 -2.671875q-2.453125 -1.6875 -2.453125 -4.671875q0 -2.703125 2.125 -4.53125q2.125 -1.84375 6.609375 -1.84375q4.25 0 6.3125 1.390625q2.078125 1.390625 2.859375 4.109375l-5.171875 0.953125q-0.328125 -1.21875 -1.265625 -1.859375q-0.921875 -0.640625 -2.640625 -0.640625q-2.171875 0 -3.109375 0.609375q-0.625 0.421875 -0.625 1.109375q0 0.578125 0.546875 1.0q0.75 0.546875 5.125 1.546875q4.390625 0.984375 6.125 2.4375q1.71875 1.453125 1.71875 4.078125q0 2.84375 -2.390625 4.90625q-2.375 2.046875 -7.046875 2.046875q-4.234375 0 -6.703125 -1.71875q-2.46875 -1.71875 -3.234375 -4.671875zm36.19922 -0.6875l5.46875 0.921875q-1.0625 3.015625 -3.34375 4.59375q-2.265625 1.5625 -5.6875 1.5625q-5.40625 0 -8.0 -3.53125q-2.0625 -2.84375 -2.0625 -7.15625q0 -5.15625 2.6875 -8.078125q2.703125 -2.921875 6.828125 -2.921875q4.625 0 7.296875 3.0625q2.6875 3.0625 2.5625 9.359375l-13.75 0q0.0625 2.453125 1.328125 3.8125q1.28125 1.34375 3.171875 1.34375q1.28125 0 2.15625 -0.703125q0.890625 -0.703125 1.34375 -2.265625zm0.3125 -5.546875q-0.0625 -2.375 -1.234375 -3.609375q-1.171875 -1.25 -2.859375 -1.25q-1.796875 0 -2.96875 1.3125q-1.171875 1.3125 -1.140625 3.546875l8.203125 0z" fill-rule="nonzero"/><path fill="#000000" d="m125.000946 389.44687q1.515625 -0.046875 2.453125 -0.8125q0.953125 -0.765625 1.265625 -2.109375q0.3125 -1.359375 0.328125 -4.609375q0.015625 -3.265625 0.125 -4.3125q0.171875 -1.640625 0.640625 -2.625q0.484375 -1.0 1.1875 -1.59375q0.703125 -0.59375 1.796875 -0.90625q0.75 -0.203125 2.421875 -0.203125l1.09375 0l0 3.0625l-0.609375 0q-2.03125 0 -2.703125 0.734375q-0.65625 0.734375 -0.65625 3.28125q0 5.109375 -0.203125 6.453125q-0.359375 2.09375 -1.21875 3.234375q-0.84375 1.125 -2.65625 2.0q2.15625 0.90625 3.109375 2.75q0.96875 1.84375 0.96875 6.046875q0 3.8125 0.078125 4.53125q0.15625 1.328125 0.796875 1.859375q0.640625 0.53125 2.484375 0.53125l0.609375 0l0 3.0625l-1.09375 0q-1.90625 0 -2.765625 -0.3125q-1.25 -0.453125 -2.078125 -1.46875q-0.8125 -1.0 -1.0625 -2.546875q-0.25 -1.53125 -0.265625 -5.046875q-0.015625 -3.515625 -0.328125 -4.859375q-0.3125 -1.359375 -1.265625 -2.140625q-0.9375 -0.78125 -2.453125 -0.8125l0 -3.1875z" fill-rule="nonzero"/><path fill="#000000" d="m39.02438 424.775l0.84375 -4.015625l3.515625 0l-0.84375 4.015625l-3.515625 0zm-5.15625 24.625l4.34375 -20.75l3.53125 0l-4.328125 20.75l-3.546875 0zm9.027344 0l4.34375 -20.75l3.203125 0l-0.765625 3.625q2.09375 -2.140625 3.90625 -3.109375q1.8125 -0.984375 3.703125 -0.984375q2.53125 0 3.953125 1.375q1.4375 1.359375 1.4375 3.65625q0 1.140625 -0.5 3.625l-2.640625 12.5625l-3.53125 0l2.75 -13.140625q0.40625 -1.921875 0.40625 -2.84375q0 -1.03125 -0.71875 -1.671875q-0.703125 -0.640625 -2.046875 -0.640625q-2.71875 0 -4.84375 1.953125q-2.109375 1.953125 -3.109375 6.6875l-2.015625 9.65625l-3.53125 0zm22.574223 -7.09375l3.546875 -0.21875q0 1.53125 0.46875 2.609375q0.46875 1.0625 1.71875 1.75q1.265625 0.6875 2.9375 0.6875q2.34375 0 3.515625 -0.9375q1.171875 -0.9375 1.171875 -2.203125q0 -0.921875 -0.703125 -1.75q-0.71875 -0.8125 -3.53125 -2.015625q-2.796875 -1.203125 -3.578125 -1.6875q-1.296875 -0.796875 -1.96875 -1.875q-0.65625 -1.09375 -0.65625 -2.5q0 -2.46875 1.953125 -4.21875q1.953125 -1.765625 5.46875 -1.765625q3.90625 0 5.9375 1.8125q2.046875 1.8125 2.125 4.75l-3.453125 0.234375q-0.078125 -1.875 -1.328125 -2.96875q-1.25 -1.09375 -3.546875 -1.09375q-1.828125 0 -2.84375 0.84375q-1.015625 0.84375 -1.015625 1.8125q0 0.984375 0.875 1.71875q0.59375 0.515625 3.03125 1.5625q4.0625 1.765625 5.109375 2.78125q1.6875 1.625 1.6875 3.9375q0 1.546875 -0.953125 3.03125q-0.9375 1.484375 -2.890625 2.375q-1.9375 0.890625 -4.578125 0.890625q-3.59375 0 -6.109375 -1.78125q-2.515625 -1.78125 -2.390625 -5.78125zm27.9375 4.21875l-0.59375 2.890625q-1.265625 0.34375 -2.453125 0.34375q-2.109375 0 -3.359375 -1.046875q-0.9375 -0.78125 -0.9375 -2.125q0 -0.6875 0.5 -3.140625l2.53125 -12.0625l-2.796875 0l0.5625 -2.734375l2.796875 0l1.078125 -5.09375l4.03125 -2.4375l-1.578125 7.53125l3.484375 0l-0.59375 2.734375l-3.453125 0l-2.40625 11.46875q-0.453125 2.1875 -0.453125 2.625q0 0.625 0.359375 0.953125q0.375 0.328125 1.1875 0.328125q1.171875 0 2.09375 -0.234375zm2.8476562 2.875l4.34375 -20.75l3.125 0l-0.890625 4.25q1.609375 -2.40625 3.140625 -3.5625q1.53125 -1.15625 3.140625 -1.15625q1.046875 0 2.59375 0.765625l-1.453125 3.28125q-0.90625 -0.65625 -2.0 -0.65625q-1.859375 0 -3.8125 2.078125q-1.953125 2.0625 -3.0625 7.421875l-1.765625 8.328125l-3.359375 0zm27.476562 -3.75q-3.71875 4.21875 -7.625 4.21875q-2.40625 0 -3.890625 -1.375q-1.46875 -1.375 -1.46875 -3.375q0 -1.3125 0.671875 -4.484375l2.5 -11.984375l3.53125 0l-2.78125 13.265625q-0.34375 1.65625 -0.34375 2.578125q0 1.171875 0.703125 1.828125q0.71875 0.65625 2.109375 0.65625q1.484375 0 2.890625 -0.71875q1.421875 -0.734375 2.4375 -1.953125q1.03125 -1.234375 1.6875 -2.921875q0.421875 -1.0625 0.984375 -3.765625l1.875 -8.96875l3.546875 0l-4.34375 20.75l-3.265625 0l0.78125 -3.75zm22.402344 -3.8125l3.546875 0.375q-1.328125 3.890625 -3.78125 5.78125q-2.453125 1.875 -5.578125 1.875q-3.375 0 -5.484375 -2.1875q-2.09375 -2.1875 -2.09375 -6.109375q0 -3.40625 1.34375 -6.6875q1.34375 -3.28125 3.859375 -4.984375q2.515625 -1.71875 5.734375 -1.71875q3.34375 0 5.296875 1.890625q1.953125 1.890625 1.953125 4.984375l-3.484375 0.234375q-0.015625 -1.96875 -1.140625 -3.078125q-1.125 -1.109375 -2.953125 -1.109375q-2.140625 0 -3.703125 1.34375q-1.5625 1.34375 -2.453125 4.09375q-0.875 2.734375 -0.875 5.28125q0 2.65625 1.171875 3.984375q1.171875 1.328125 2.890625 1.328125q1.71875 0 3.28125 -1.3125q1.578125 -1.3125 2.46875 -3.984375zm20.0 0l3.546875 0.375q-1.328125 3.890625 -3.78125 5.78125q-2.453125 1.875 -5.578125 1.875q-3.375 0 -5.484375 -2.1875q-2.09375 -2.1875 -2.09375 -6.109375q0 -3.40625 1.34375 -6.6875q1.34375 -3.28125 3.859375 -4.984375q2.515625 -1.71875 5.734375 -1.71875q3.34375 0 5.296875 1.890625q1.953125 1.890625 1.953125 4.984375l-3.484375 0.234375q-0.015625 -1.96875 -1.140625 -3.078125q-1.125 -1.109375 -2.953125 -1.109375q-2.140625 0 -3.703125 1.34375q-1.5625 1.34375 -2.453125 4.09375q-0.875 2.734375 -0.875 5.28125q0 2.65625 1.171875 3.984375q1.171875 1.328125 2.890625 1.328125q1.71875 0 3.28125 -1.3125q1.578125 -1.3125 2.46875 -3.984375zm10.703125 -17.0625l0.84375 -4.015625l3.515625 0l-0.84375 4.015625l-3.515625 0zm-5.15625 24.625l4.34375 -20.75l3.53125 0l-4.328125 20.75l-3.546875 0zm9.652344 -7.875q0 -6.078125 3.578125 -10.0625q2.953125 -3.28125 7.734375 -3.28125q3.75 0 6.046875 2.34375q2.296875 2.34375 2.296875 6.328125q0 3.578125 -1.453125 6.65625q-1.4375 3.078125 -4.109375 4.71875q-2.671875 1.640625 -5.609375 1.640625q-2.421875 0 -4.40625 -1.03125q-1.984375 -1.046875 -3.03125 -2.9375q-1.046875 -1.890625 -1.046875 -4.375zm3.53125 -0.34375q0 2.921875 1.40625 4.4375q1.40625 1.515625 3.578125 1.515625q1.140625 0 2.25 -0.453125q1.109375 -0.46875 2.0625 -1.40625q0.96875 -0.9375 1.640625 -2.140625q0.671875 -1.203125 1.078125 -2.578125q0.609375 -1.9375 0.609375 -3.71875q0 -2.8125 -1.421875 -4.359375q-1.40625 -1.5625 -3.5625 -1.5625q-1.65625 0 -3.03125 0.796875q-1.359375 0.796875 -2.46875 2.328125q-1.09375 1.515625 -1.625 3.53125q-0.515625 2.015625 -0.515625 3.609375zm18.089844 8.21875l4.34375 -20.75l3.203125 0l-0.765625 3.625q2.09375 -2.140625 3.90625 -3.109375q1.8125 -0.984375 3.703125 -0.984375q2.53125 0 3.953125 1.375q1.4375 1.359375 1.4375 3.65625q0 1.140625 -0.5 3.625l-2.640625 12.5625l-3.53125 0l2.75 -13.140625q0.40625 -1.921875 0.40625 -2.84375q0 -1.03125 -0.71875 -1.671875q-0.703125 -0.640625 -2.046875 -0.640625q-2.71875 0 -4.84375 1.953125q-2.109375 1.953125 -3.109375 6.6875l-2.015625 9.65625l-3.53125 0zm37.48047 -7.046875l3.4375 0.34375q-0.734375 2.5625 -3.40625 4.875q-2.671875 2.296875 -6.359375 2.296875q-2.296875 0 -4.234375 -1.0625q-1.921875 -1.0625 -2.921875 -3.09375q-1.0 -2.03125 -1.0 -4.640625q0 -3.390625 1.5625 -6.578125q1.578125 -3.203125 4.078125 -4.75q2.5 -1.5625 5.40625 -1.5625q3.71875 0 5.921875 2.3125q2.21875 2.296875 2.21875 6.28125q0 1.53125 -0.265625 3.125l-15.28125 0q-0.078125 0.609375 -0.078125 1.09375q0 2.921875 1.34375 4.453125q1.34375 1.53125 3.265625 1.53125q1.828125 0 3.578125 -1.1875q1.765625 -1.203125 2.734375 -3.4375zm-10.265625 -5.140625l11.640625 0q0.015625 -0.546875 0.015625 -0.78125q0 -2.65625 -1.328125 -4.0625q-1.328125 -1.421875 -3.421875 -1.421875q-2.265625 0 -4.140625 1.5625q-1.859375 1.5625 -2.765625 4.703125zm17.605469 5.09375l3.546875 -0.21875q0 1.53125 0.46875 2.609375q0.46875 1.0625 1.71875 1.75q1.265625 0.6875 2.9375 0.6875q2.34375 0 3.515625 -0.9375q1.171875 -0.9375 1.171875 -2.203125q0 -0.921875 -0.703125 -1.75q-0.71875 -0.8125 -3.53125 -2.015625q-2.796875 -1.203125 -3.578125 -1.6875q-1.296875 -0.796875 -1.96875 -1.875q-0.65625 -1.09375 -0.65625 -2.5q0 -2.46875 1.953125 -4.21875q1.953125 -1.765625 5.46875 -1.765625q3.90625 0 5.9375 1.8125q2.046875 1.8125 2.125 4.75l-3.453125 0.234375q-0.078125 -1.875 -1.328125 -2.96875q-1.25 -1.09375 -3.546875 -1.09375q-1.828125 0 -2.84375 0.84375q-1.015625 0.84375 -1.015625 1.8125q0 0.984375 0.875 1.71875q0.59375 0.515625 3.03125 1.5625q4.0625 1.765625 5.109375 2.78125q1.6875 1.625 1.6875 3.9375q0 1.546875 -0.953125 3.03125q-0.9375 1.484375 -2.890625 2.375q-1.9375 0.890625 -4.578125 0.890625q-3.59375 0 -6.109375 -1.78125q-2.515625 -1.78125 -2.390625 -5.78125z" fill-rule="nonzero"/><path fill="#000000" d="m22.688444 485.44687l0 3.1875q-1.515625 0.03125 -2.46875 0.8125q-0.9375 0.78125 -1.25 2.125q-0.3125 1.328125 -0.328125 4.59375q-0.015625 3.265625 -0.125 4.296875q-0.171875 1.671875 -0.65625 2.65625q-0.46875 0.984375 -1.171875 1.578125q-0.70312595 0.59375 -1.796876 0.90625q-0.75 0.21875 -2.421875 0.21875l-1.09375 0l0 -3.0625l0.609375 0q2.03125 0 2.6875 -0.734375q0.671875 -0.734375 0.671875 -3.296875q0 -4.890625 0.171875 -6.1875q0.3125 -2.171875 1.250001 -3.46875q0.9375 -1.296875 2.65625 -2.03125q-2.25 -1.0625 -3.171875 -2.828125q-0.90625095 -1.78125 -0.90625095 -5.96875q0 -3.8125 -0.109375 -4.5625q-0.125 -1.296875 -0.765625 -1.8125q-0.640625 -0.53125 -2.484375 -0.53125l-0.609375 0l0 -3.0625l1.09375 0q1.90625 0 2.765625 0.3125q1.250001 0.4375 2.062501 1.453125q0.828125 1.015625 1.078125 2.5625q0.25 1.53125 0.265625 5.046875q0.015625 3.515625 0.328125 4.859375q0.3125 1.328125 1.25 2.109375q0.953125 0.78125 2.46875 0.828125z" fill-rule="nonzero"/><path fill="#000000" d="m16.79782 520.775l0.84375 -4.015625l3.515625 0l-0.84375 4.015625l-3.515625 0zm-5.156251 24.625l4.34375 -20.75l3.531251 0l-4.328126 20.75l-3.546875 0zm9.027345 0l4.34375 -20.75l3.203125 0l-0.765625 3.625q2.09375 -2.140625 3.90625 -3.109375q1.8124981 -0.984375 3.703123 -0.984375q2.53125 0 3.953125 1.375q1.4375 1.359375 1.4375 3.65625q0 1.140625 -0.5 3.625l-2.640625 12.5625l-3.53125 0l2.75 -13.140625q0.40625 -1.921875 0.40625 -2.84375q0 -1.03125 -0.71875 -1.671875q-0.703125 -0.640625 -2.046875 -0.640625q-2.718748 0 -4.843748 1.953125q-2.109375 1.953125 -3.109375 6.6875l-2.015625 9.65625l-3.53125 0zm22.574217 -7.09375l3.546875 -0.21875q0 1.53125 0.46875 2.609375q0.46875 1.0625 1.71875 1.75q1.265625 0.6875 2.9375 0.6875q2.34375 0 3.515625 -0.9375q1.171875 -0.9375 1.171875 -2.203125q0 -0.921875 -0.703125 -1.75q-0.71875 -0.8125 -3.53125 -2.015625q-2.796875 -1.203125 -3.578125 -1.6875q-1.296875 -0.796875 -1.96875 -1.875q-0.65625 -1.09375 -0.65625 -2.5q0 -2.46875 1.953125 -4.21875q1.953125 -1.765625 5.46875 -1.765625q3.90625 0 5.9375 1.8125q2.046875 1.8125 2.125 4.75l-3.453125 0.234375q-0.078125 -1.875 -1.328125 -2.96875q-1.25 -1.09375 -3.546875 -1.09375q-1.828125 0 -2.84375 0.84375q-1.015625 0.84375 -1.015625 1.8125q0 0.984375 0.875 1.71875q0.59375 0.515625 3.03125 1.5625q4.0625 1.765625 5.109375 2.78125q1.6875 1.625 1.6875 3.9375q0 1.546875 -0.953125 3.03125q-0.9375 1.484375 -2.890625 2.375q-1.9375 0.890625 -4.578125 0.890625q-3.59375 0 -6.109375 -1.78125q-2.515625 -1.78125 -2.390625 -5.78125zm27.937504 4.21875l-0.59375 2.890625q-1.265625 0.34375 -2.453125 0.34375q-2.109375 0 -3.359375 -1.046875q-0.9375038 -0.78125 -0.9375038 -2.125q0 -0.6875 0.5000038 -3.140625l2.53125 -12.0625l-2.796875 0l0.5625 -2.734375l2.796875 0l1.078125 -5.09375l4.03125 -2.4375l-1.578125 7.53125l3.484375 0l-0.59375 2.734375l-3.453125 0l-2.40625 11.46875q-0.453125 2.1875 -0.453125 2.625q0 0.625 0.359375 0.953125q0.375 0.328125 1.1875 0.328125q1.171875 0 2.09375 -0.234375zm2.8476562 2.875l4.34375 -20.75l3.125 0l-0.890625 4.25q1.609375 -2.40625 3.140625 -3.5625q1.53125 -1.15625 3.140625 -1.15625q1.046875 0 2.59375 0.765625l-1.453125 3.28125q-0.90625 -0.65625 -2.0 -0.65625q-1.859375 0 -3.8125 2.078125q-1.953125 2.0625 -3.0625 7.421875l-1.765625 8.328125l-3.359375 0zm27.476562 -3.75q-3.71875 4.21875 -7.625 4.21875q-2.40625 0 -3.890625 -1.375q-1.46875 -1.375 -1.46875 -3.375q0 -1.3125 0.671875 -4.484375l2.5 -11.984375l3.53125 0l-2.78125 13.265625q-0.34375 1.65625 -0.34375 2.578125q0 1.171875 0.703125 1.828125q0.71875 0.65625 2.109375 0.65625q1.484375 0 2.890625 -0.71875q1.421875 -0.734375 2.4375 -1.953125q1.03125 -1.234375 1.6875 -2.921875q0.421875 -1.0625 0.984375 -3.765625l1.875 -8.96875l3.546875 0l-4.34375 20.75l-3.265625 0l0.78125 -3.75zm22.402344 -3.8125l3.546875 0.375q-1.328125 3.890625 -3.78125 5.78125q-2.453125 1.875 -5.578125 1.875q-3.375 0 -5.484375 -2.1875q-2.09375 -2.1875 -2.09375 -6.109375q0 -3.40625 1.34375 -6.6875q1.34375 -3.28125 3.859375 -4.984375q2.515625 -1.71875 5.734375 -1.71875q3.34375 0 5.296875 1.890625q1.953125 1.890625 1.953125 4.984375l-3.484375 0.234375q-0.015625 -1.96875 -1.140625 -3.078125q-1.125 -1.109375 -2.953125 -1.109375q-2.140625 0 -3.703125 1.34375q-1.5625 1.34375 -2.453125 4.09375q-0.875 2.734375 -0.875 5.28125q0 2.65625 1.171875 3.984375q1.171875 1.328125 2.890625 1.328125q1.71875 0 3.28125 -1.3125q1.578125 -1.3125 2.46875 -3.984375zm20.0 0l3.546875 0.375q-1.328125 3.890625 -3.78125 5.78125q-2.453125 1.875 -5.578125 1.875q-3.375 0 -5.484375 -2.1875q-2.09375 -2.1875 -2.09375 -6.109375q0 -3.40625 1.34375 -6.6875q1.34375 -3.28125 3.859375 -4.984375q2.515625 -1.71875 5.734375 -1.71875q3.34375 0 5.296875 1.890625q1.953125 1.890625 1.953125 4.984375l-3.484375 0.234375q-0.015625 -1.96875 -1.140625 -3.078125q-1.125 -1.109375 -2.953125 -1.109375q-2.140625 0 -3.703125 1.34375q-1.5625 1.34375 -2.453125 4.09375q-0.875 2.734375 -0.875 5.28125q0 2.65625 1.171875 3.984375q1.171875 1.328125 2.890625 1.328125q1.71875 0 3.28125 -1.3125q1.578125 -1.3125 2.46875 -3.984375zm10.703125 -17.0625l0.84375 -4.015625l3.515625 0l-0.84375 4.015625l-3.515625 0zm-5.15625 24.625l4.34375 -20.75l3.53125 0l-4.328125 20.75l-3.546875 0zm9.652344 -7.875q0 -6.078125 3.578125 -10.0625q2.953125 -3.28125 7.734375 -3.28125q3.75 0 6.046875 2.34375q2.296875 2.34375 2.296875 6.328125q0 3.578125 -1.453125 6.65625q-1.4375 3.078125 -4.109375 4.71875q-2.671875 1.640625 -5.609375 1.640625q-2.421875 0 -4.40625 -1.03125q-1.984375 -1.046875 -3.03125 -2.9375q-1.046875 -1.890625 -1.046875 -4.375zm3.53125 -0.34375q0 2.921875 1.40625 4.4375q1.40625 1.515625 3.578125 1.515625q1.140625 0 2.25 -0.453125q1.109375 -0.46875 2.0625 -1.40625q0.96875 -0.9375 1.640625 -2.140625q0.671875 -1.203125 1.078125 -2.578125q0.609375 -1.9375 0.609375 -3.71875q0 -2.8125 -1.421875 -4.359375q-1.40625 -1.5625 -3.5625 -1.5625q-1.65625 0 -3.03125 0.796875q-1.359375 0.796875 -2.46875 2.328125q-1.09375 1.515625 -1.625 3.53125q-0.515625 2.015625 -0.515625 3.609375zm18.089844 8.21875l4.34375 -20.75l3.203125 0l-0.765625 3.625q2.09375 -2.140625 3.90625 -3.109375q1.8125 -0.984375 3.703125 -0.984375q2.53125 0 3.953125 1.375q1.4375 1.359375 1.4375 3.65625q0 1.140625 -0.5 3.625l-2.640625 12.5625l-3.53125 0l2.75 -13.140625q0.40625 -1.921875 0.40625 -2.84375q0 -1.03125 -0.71875 -1.671875q-0.703125 -0.640625 -2.046875 -0.640625q-2.71875 0 -4.84375 1.953125q-2.109375 1.953125 -3.109375 6.6875l-2.015625 9.65625l-3.53125 0zm37.48047 -7.046875l3.4375 0.34375q-0.734375 2.5625 -3.40625 4.875q-2.671875 2.296875 -6.359375 2.296875q-2.296875 0 -4.234375 -1.0625q-1.921875 -1.0625 -2.921875 -3.09375q-1.0 -2.03125 -1.0 -4.640625q0 -3.390625 1.5625 -6.578125q1.578125 -3.203125 4.078125 -4.75q2.5 -1.5625 5.40625 -1.5625q3.71875 0 5.921875 2.3125q2.21875 2.296875 2.21875 6.28125q0 1.53125 -0.265625 3.125l-15.28125 0q-0.078125 0.609375 -0.078125 1.09375q0 2.921875 1.34375 4.453125q1.34375 1.53125 3.265625 1.53125q1.828125 0 3.578125 -1.1875q1.765625 -1.203125 2.734375 -3.4375zm-10.265625 -5.140625l11.640625 0q0.015625 -0.546875 0.015625 -0.78125q0 -2.65625 -1.328125 -4.0625q-1.328125 -1.421875 -3.421875 -1.421875q-2.265625 0 -4.140625 1.5625q-1.859375 1.5625 -2.765625 4.703125zm17.605469 5.09375l3.546875 -0.21875q0 1.53125 0.46875 2.609375q0.46875 1.0625 1.71875 1.75q1.265625 0.6875 2.9375 0.6875q2.34375 0 3.515625 -0.9375q1.171875 -0.9375 1.171875 -2.203125q0 -0.921875 -0.703125 -1.75q-0.71875 -0.8125 -3.53125 -2.015625q-2.796875 -1.203125 -3.578125 -1.6875q-1.296875 -0.796875 -1.96875 -1.875q-0.65625 -1.09375 -0.65625 -2.5q0 -2.46875 1.953125 -4.21875q1.953125 -1.765625 5.46875 -1.765625q3.90625 0 5.9375 1.8125q2.046875 1.8125 2.125 4.75l-3.453125 0.234375q-0.078125 -1.875 -1.328125 -2.96875q-1.25 -1.09375 -3.546875 -1.09375q-1.828125 0 -2.84375 0.84375q-1.015625 0.84375 -1.015625 1.8125q0 0.984375 0.875 1.71875q0.59375 0.515625 3.03125 1.5625q4.0625 1.765625 5.109375 2.78125q1.6875 1.625 1.6875 3.9375q0 1.546875 -0.953125 3.03125q-0.9375 1.484375 -2.890625 2.375q-1.9375 0.890625 -4.578125 0.890625q-3.59375 0 -6.109375 -1.78125q-2.515625 -1.78125 -2.390625 -5.78125z" fill-rule="nonzero"/><path fill="#000000" fill-opacity="0.0" d="m194.13387 56.33858l0 31.905514" fill-rule="evenodd"/><path stroke="#0000ff" stroke-width="2.0" stroke-linejoin="round" stroke-linecap="butt" d="m194.13387 56.33858l0 19.905514" fill-rule="evenodd"/><path fill="#0000ff" stroke="#0000ff" stroke-width="2.0" stroke-linecap="butt" d="m190.8304 76.244095l3.3034668 9.076195l3.3034515 -9.076195z" fill-rule="evenodd"/><path fill="#000000" fill-opacity="0.0" d="m120.031494 57.110237l0 24.202095l-91.96063 0l0 44.527565l170.36746 0.9658737l0 15.48819" fill-rule="evenodd"/><path stroke="#ff0000" stroke-width="2.0" stroke-linejoin="round" stroke-linecap="butt" d="m120.031494 57.110237l0 24.202095l-91.96063 0l0 44.527565l170.36746 0.9658737l0 3.4881897" fill-rule="evenodd"/><path fill="#ff0000" stroke="#ff0000" stroke-width="2.0" stroke-linecap="butt" d="m195.13486 130.29396l3.3034668 9.076202l3.3034668 -9.076202z" fill-rule="evenodd"/><path fill="#000000" fill-opacity="0.0" d="m181.79231 176.17323l0 24.199463l-153.72145 0l0 44.527573l170.3674 0l0 17.425201" fill-rule="evenodd"/><path stroke="#ff0000" stroke-width="2.0" stroke-linejoin="round" stroke-linecap="butt" d="m181.79233 176.17323l0 24.199463l-153.72147 0l0 44.527573l170.3674 0l0 5.425186" fill-rule="evenodd"/><path fill="#ff0000" stroke="#ff0000" stroke-width="2.0" stroke-linecap="butt" d="m195.1348 250.32545l3.3034668 9.076187l3.3034668 -9.076187z" fill-rule="evenodd"/><path fill="#000000" fill-opacity="0.0" d="m244.98163 176.17323l0 31.905502" fill-rule="evenodd"/><path stroke="#0000ff" stroke-width="2.0" stroke-linejoin="round" stroke-linecap="butt" d="m244.98163 176.17323l0 19.905502" fill-rule="evenodd"/><path fill="#0000ff" stroke="#0000ff" stroke-width="2.0" stroke-linecap="butt" d="m241.67816 196.07874l3.3034668 9.076202l3.3034668 -9.076202z" fill-rule="evenodd"/><path fill="#000000" fill-opacity="0.0" d="m244.98163 296.2047l0 31.905518" fill-rule="evenodd"/><path stroke="#0000ff" stroke-width="2.0" stroke-linejoin="round" stroke-linecap="butt" d="m244.98163 296.2047l0 19.905518" fill-rule="evenodd"/><path fill="#0000ff" stroke="#0000ff" stroke-width="2.0" stroke-linecap="butt" d="m241.67816 316.11023l3.3034668 9.076202l3.3034668 -9.076202z" fill-rule="evenodd"/><path fill="#000000" fill-opacity="0.0" d="m121.826775 456.64566l0.44094086 62.677155" fill-rule="evenodd"/><path stroke="#ff0000" stroke-width="2.0" stroke-linejoin="round" stroke-linecap="butt" d="m121.826775 456.64566l0.3565216 50.67746" fill-rule="evenodd"/><path fill="#ff0000" stroke="#ff0000" stroke-width="2.0" stroke-linecap="butt" d="m118.87991 507.34637l3.3672333 9.052734l3.2395325 -9.099213z" fill-rule="evenodd"/><path fill="#000000" fill-opacity="0.0" d="m182.80673 298.09186l0 20.960632l-154.73587 0l0 89.65878l94.03166 0l0 19.795288" fill-rule="evenodd"/><path stroke="#ff0000" stroke-width="2.0" stroke-linejoin="round" stroke-linecap="butt" d="m182.80672 298.09186l0 20.960632l-154.73586 0l0 89.65878l94.03168 0l0 7.795288" fill-rule="evenodd"/><path fill="#ff0000" stroke="#ff0000" stroke-width="2.0" stroke-linecap="butt" d="m118.79907 416.50656l3.3034668 9.076202l3.3034592 -9.076202z" fill-rule="evenodd"/><path fill="#000000" fill-opacity="0.0" d="m248.021 358.6404l0 11.645691l38.427826 0l0 91.9895l-100.14174 0l0 58.22043" fill-rule="evenodd"/><path stroke="#0000ff" stroke-width="2.0" stroke-linejoin="round" stroke-linecap="butt" d="m248.021 358.6404l0 11.645691l38.427826 0l0 91.9895l-100.14174 0l0 46.22046" fill-rule="evenodd"/><path fill="#0000ff" stroke="#0000ff" stroke-width="2.0" stroke-linecap="butt" d="m183.00362 508.49606l3.3034668 9.076202l3.3034668 -9.076202z" fill-rule="evenodd"/><path fill="#000000" fill-opacity="0.0" d="m246.13911 234.03937l0 14.323105l145.55116 0l-1.1627197 227.96431l-179.32283 0l0 44.16107" fill-rule="evenodd"/><path stroke="#0000ff" stroke-width="2.0" stroke-linejoin="round" stroke-linecap="butt" d="m246.13911 234.03937l0 14.323105l145.55116 0l-1.1627197 227.96431l-179.32283 0l0 32.16107" fill-rule="evenodd"/><path fill="#0000ff" stroke="#0000ff" stroke-width="2.0" stroke-linecap="butt" d="m207.90126 508.48785l3.3034668 9.076172l3.3034668 -9.076172z" fill-rule="evenodd"/><path fill="#000000" fill-opacity="0.0" d="m246.85826 116.438324l0 16.301834l161.85564 -1.162735l0 365.6273l-178.15747 0l0 23.288696" fill-rule="evenodd"/><path stroke="#0000ff" stroke-width="2.0" stroke-linejoin="round" stroke-linecap="butt" d="m246.85826 116.438324l0 16.301834l161.85564 -1.162735l0 365.6273l-178.15747 0l0 11.288727" fill-rule="evenodd"/><path fill="#0000ff" stroke="#0000ff" stroke-width="2.0" stroke-linecap="butt" d="m227.25296 508.49344l3.3034668 9.076202l3.3034668 -9.076202z" fill-rule="evenodd"/></g></svg>